%TF.GenerationSoftware,KiCad,Pcbnew,8.0.1-8.0.1-1~ubuntu22.04.1*%
%TF.CreationDate,2024-03-21T20:32:24+01:00*%
%TF.ProjectId,keyboard_pcb,6b657962-6f61-4726-945f-7063622e6b69,rev?*%
%TF.SameCoordinates,Original*%
%TF.FileFunction,Paste,Top*%
%TF.FilePolarity,Positive*%
%FSLAX46Y46*%
G04 Gerber Fmt 4.6, Leading zero omitted, Abs format (unit mm)*
G04 Created by KiCad (PCBNEW 8.0.1-8.0.1-1~ubuntu22.04.1) date 2024-03-21 20:32:24*
%MOMM*%
%LPD*%
G01*
G04 APERTURE LIST*
%ADD10R,0.700000X0.700000*%
G04 APERTURE END LIST*
D10*
%TO.C,D97*%
X380945000Y-163580000D03*
X380945000Y-164680000D03*
X382775000Y-164680000D03*
X382775000Y-163580000D03*
%TD*%
%TO.C,D101*%
X202495000Y-201680000D03*
X202495000Y-202780000D03*
X204325000Y-202780000D03*
X204325000Y-201680000D03*
%TD*%
%TO.C,D78*%
X376195000Y-144530000D03*
X376195000Y-145630000D03*
X378025000Y-145630000D03*
X378025000Y-144530000D03*
%TD*%
%TO.C,D26*%
X323695000Y-163580000D03*
X323695000Y-164680000D03*
X325525000Y-164680000D03*
X325525000Y-163580000D03*
%TD*%
%TO.C,D87*%
X395245000Y-144530000D03*
X395245000Y-145630000D03*
X397075000Y-145630000D03*
X397075000Y-144530000D03*
%TD*%
%TO.C,D68*%
X118955000Y-201430000D03*
X118955000Y-202530000D03*
X120785000Y-202530000D03*
X120785000Y-201430000D03*
%TD*%
%TO.C,D104*%
X369145000Y-201680000D03*
X369145000Y-202780000D03*
X370975000Y-202780000D03*
X370975000Y-201680000D03*
%TD*%
%TO.C,D32*%
X80855000Y-182480000D03*
X80855000Y-183580000D03*
X82685000Y-183580000D03*
X82685000Y-182480000D03*
%TD*%
%TO.C,D106*%
X416745000Y-201680000D03*
X416745000Y-202780000D03*
X418575000Y-202780000D03*
X418575000Y-201680000D03*
%TD*%
%TO.C,D3*%
X433295000Y-125580000D03*
X433295000Y-126680000D03*
X435125000Y-126680000D03*
X435125000Y-125580000D03*
%TD*%
%TO.C,D7*%
X438045000Y-144530000D03*
X438045000Y-145630000D03*
X439875000Y-145630000D03*
X439875000Y-144530000D03*
%TD*%
%TO.C,D79*%
X430945000Y-163580000D03*
X430945000Y-164680000D03*
X432775000Y-164680000D03*
X432775000Y-163580000D03*
%TD*%
%TO.C,D93*%
X233245000Y-125580000D03*
X233245000Y-126680000D03*
X235075000Y-126680000D03*
X235075000Y-125580000D03*
%TD*%
%TO.C,D48*%
X328495000Y-125580000D03*
X328495000Y-126680000D03*
X330325000Y-126680000D03*
X330325000Y-125580000D03*
%TD*%
%TO.C,D56*%
X500095000Y-96330000D03*
X500095000Y-97430000D03*
X501925000Y-97430000D03*
X501925000Y-96330000D03*
%TD*%
%TO.C,D5*%
X118955000Y-163380000D03*
X118955000Y-164480000D03*
X120785000Y-164480000D03*
X120785000Y-163380000D03*
%TD*%
%TO.C,D92*%
X481095000Y-125580000D03*
X481095000Y-126680000D03*
X482925000Y-126680000D03*
X482925000Y-125580000D03*
%TD*%
%TO.C,D27*%
X257145000Y-182680000D03*
X257145000Y-183780000D03*
X258975000Y-183780000D03*
X258975000Y-182680000D03*
%TD*%
%TO.C,D28*%
X176145000Y-96330000D03*
X176145000Y-97430000D03*
X177975000Y-97430000D03*
X177975000Y-96330000D03*
%TD*%
%TO.C,D95*%
X204695000Y-144530000D03*
X204695000Y-145630000D03*
X206525000Y-145630000D03*
X206525000Y-144530000D03*
%TD*%
%TO.C,D75*%
X271345000Y-125580000D03*
X271345000Y-126680000D03*
X273175000Y-126680000D03*
X273175000Y-125580000D03*
%TD*%
%TO.C,D96*%
X414245000Y-144530000D03*
X414245000Y-145630000D03*
X416075000Y-145630000D03*
X416075000Y-144530000D03*
%TD*%
%TO.C,D44*%
X285695000Y-163580000D03*
X285695000Y-164680000D03*
X287525000Y-164680000D03*
X287525000Y-163580000D03*
%TD*%
%TO.C,D86*%
X180895000Y-144530000D03*
X180895000Y-145630000D03*
X182725000Y-145630000D03*
X182725000Y-144530000D03*
%TD*%
%TO.C,D81*%
X371395000Y-182680000D03*
X371395000Y-183780000D03*
X373225000Y-183780000D03*
X373225000Y-182680000D03*
%TD*%
%TO.C,D50*%
X118955000Y-182480000D03*
X118955000Y-183580000D03*
X120785000Y-183580000D03*
X120785000Y-182480000D03*
%TD*%
%TO.C,D84*%
X252295000Y-125580000D03*
X252295000Y-126680000D03*
X254125000Y-126680000D03*
X254125000Y-125580000D03*
%TD*%
%TO.C,D6*%
X223745000Y-144530000D03*
X223745000Y-145630000D03*
X225575000Y-145630000D03*
X225575000Y-144530000D03*
%TD*%
%TO.C,D11*%
X385595000Y-96330000D03*
X385595000Y-97430000D03*
X387425000Y-97430000D03*
X387425000Y-96330000D03*
%TD*%
%TO.C,D45*%
X295245000Y-182680000D03*
X295245000Y-183780000D03*
X297075000Y-183780000D03*
X297075000Y-182680000D03*
%TD*%
%TO.C,D76*%
X99905000Y-144330000D03*
X99905000Y-145430000D03*
X101735000Y-145430000D03*
X101735000Y-144330000D03*
%TD*%
%TO.C,D67*%
X80855000Y-144330000D03*
X80855000Y-145430000D03*
X82685000Y-145430000D03*
X82685000Y-144330000D03*
%TD*%
%TO.C,D13*%
X347545000Y-125580000D03*
X347545000Y-126680000D03*
X349375000Y-126680000D03*
X349375000Y-125580000D03*
%TD*%
%TO.C,D89*%
X183295000Y-163580000D03*
X183295000Y-164680000D03*
X185125000Y-164680000D03*
X185125000Y-163580000D03*
%TD*%
%TO.C,D23*%
X80955000Y-163380000D03*
X80955000Y-164480000D03*
X82785000Y-164480000D03*
X82785000Y-163380000D03*
%TD*%
%TO.C,D42*%
X299945000Y-144530000D03*
X299945000Y-145630000D03*
X301775000Y-145630000D03*
X301775000Y-144530000D03*
%TD*%
%TO.C,D52*%
X519045000Y-201680000D03*
X519045000Y-202780000D03*
X520875000Y-202780000D03*
X520875000Y-201680000D03*
%TD*%
%TO.C,D64*%
X271245000Y-96330000D03*
X271245000Y-97430000D03*
X273075000Y-97430000D03*
X273075000Y-96330000D03*
%TD*%
%TO.C,D31*%
X137955000Y-125230000D03*
X137955000Y-126330000D03*
X139785000Y-126330000D03*
X139785000Y-125230000D03*
%TD*%
%TO.C,D105*%
X392945000Y-201680000D03*
X392945000Y-202780000D03*
X394775000Y-202780000D03*
X394775000Y-201680000D03*
%TD*%
%TO.C,D15*%
X242795000Y-144530000D03*
X242795000Y-145630000D03*
X244625000Y-145630000D03*
X244625000Y-144530000D03*
%TD*%
%TO.C,D22*%
X176145000Y-125580000D03*
X176145000Y-126680000D03*
X177975000Y-126680000D03*
X177975000Y-125580000D03*
%TD*%
%TO.C,D85*%
X118955000Y-144330000D03*
X118955000Y-145430000D03*
X120785000Y-145430000D03*
X120785000Y-144330000D03*
%TD*%
%TO.C,D40*%
X118905000Y-125230000D03*
X118905000Y-126330000D03*
X120735000Y-126330000D03*
X120735000Y-125230000D03*
%TD*%
%TO.C,D38*%
X442795000Y-96330000D03*
X442795000Y-97430000D03*
X444625000Y-97430000D03*
X444625000Y-96330000D03*
%TD*%
%TO.C,D73*%
X299795000Y-96330000D03*
X299795000Y-97430000D03*
X301625000Y-97430000D03*
X301625000Y-96330000D03*
%TD*%
%TO.C,D77*%
X90405000Y-201480000D03*
X90405000Y-202580000D03*
X92235000Y-202580000D03*
X92235000Y-201480000D03*
%TD*%
%TO.C,D43*%
X499995000Y-182680000D03*
X499995000Y-183780000D03*
X501825000Y-183780000D03*
X501825000Y-182680000D03*
%TD*%
%TO.C,D63*%
X333295000Y-182680000D03*
X333295000Y-183780000D03*
X335125000Y-183780000D03*
X335125000Y-182680000D03*
%TD*%
%TO.C,D36*%
X276195000Y-182680000D03*
X276195000Y-183780000D03*
X278025000Y-183780000D03*
X278025000Y-182680000D03*
%TD*%
%TO.C,D98*%
X188045000Y-182680000D03*
X188045000Y-183780000D03*
X189875000Y-183780000D03*
X189875000Y-182680000D03*
%TD*%
%TO.C,D29*%
X423695000Y-96330000D03*
X423695000Y-97430000D03*
X425525000Y-97430000D03*
X425525000Y-96330000D03*
%TD*%
%TO.C,D70*%
X480995000Y-201680000D03*
X480995000Y-202780000D03*
X482825000Y-202780000D03*
X482825000Y-201680000D03*
%TD*%
%TO.C,D20*%
X404645000Y-96330000D03*
X404645000Y-97430000D03*
X406475000Y-97430000D03*
X406475000Y-96330000D03*
%TD*%
%TO.C,D14*%
X99905000Y-163380000D03*
X99905000Y-164480000D03*
X101735000Y-164480000D03*
X101735000Y-163380000D03*
%TD*%
%TO.C,D59*%
X142605000Y-187430000D03*
X142605000Y-188530000D03*
X144435000Y-188530000D03*
X144435000Y-187430000D03*
%TD*%
%TO.C,D24*%
X261845000Y-144530000D03*
X261845000Y-145630000D03*
X263675000Y-145630000D03*
X263675000Y-144530000D03*
%TD*%
%TO.C,D1*%
X84555000Y-91630000D03*
X84555000Y-92730000D03*
X86385000Y-92730000D03*
X86385000Y-91630000D03*
%TD*%
%TO.C,D53*%
X266645000Y-163580000D03*
X266645000Y-164680000D03*
X268475000Y-164680000D03*
X268475000Y-163580000D03*
%TD*%
%TO.C,D82*%
X318845000Y-96330000D03*
X318845000Y-97430000D03*
X320675000Y-97430000D03*
X320675000Y-96330000D03*
%TD*%
%TO.C,D4*%
X214245000Y-125580000D03*
X214245000Y-126680000D03*
X216075000Y-126680000D03*
X216075000Y-125580000D03*
%TD*%
%TO.C,D99*%
X426195000Y-182680000D03*
X426195000Y-183780000D03*
X428025000Y-183780000D03*
X428025000Y-182680000D03*
%TD*%
%TO.C,D51*%
X318995000Y-144530000D03*
X318995000Y-145630000D03*
X320825000Y-145630000D03*
X320825000Y-144530000D03*
%TD*%
%TO.C,D12*%
X404695000Y-125580000D03*
X404695000Y-126680000D03*
X406525000Y-126680000D03*
X406525000Y-125580000D03*
%TD*%
%TO.C,D62*%
X247595000Y-163580000D03*
X247595000Y-164680000D03*
X249425000Y-164680000D03*
X249425000Y-163580000D03*
%TD*%
%TO.C,D10*%
X99855000Y-91630000D03*
X99855000Y-92730000D03*
X101685000Y-92730000D03*
X101685000Y-91630000D03*
%TD*%
%TO.C,D54*%
X314295000Y-182680000D03*
X314295000Y-183780000D03*
X316125000Y-183780000D03*
X316125000Y-182680000D03*
%TD*%
%TO.C,D61*%
X499995000Y-201680000D03*
X499995000Y-202780000D03*
X501825000Y-202780000D03*
X501825000Y-201680000D03*
%TD*%
%TO.C,D41*%
X99905000Y-182380000D03*
X99905000Y-183480000D03*
X101735000Y-183480000D03*
X101735000Y-182380000D03*
%TD*%
%TO.C,D107*%
X440495000Y-201680000D03*
X440495000Y-202780000D03*
X442325000Y-202780000D03*
X442325000Y-201680000D03*
%TD*%
%TO.C,D2*%
X356945000Y-96330000D03*
X356945000Y-97430000D03*
X358775000Y-97430000D03*
X358775000Y-96330000D03*
%TD*%
%TO.C,D100*%
X178645000Y-201680000D03*
X178645000Y-202780000D03*
X180475000Y-202780000D03*
X180475000Y-201680000D03*
%TD*%
%TO.C,D8*%
X361895000Y-163580000D03*
X361895000Y-164680000D03*
X363725000Y-164680000D03*
X363725000Y-163580000D03*
%TD*%
%TO.C,D18*%
X238095000Y-182680000D03*
X238095000Y-183780000D03*
X239925000Y-183780000D03*
X239925000Y-182680000D03*
%TD*%
%TO.C,D74*%
X519195000Y-125580000D03*
X519195000Y-126680000D03*
X521025000Y-126680000D03*
X521025000Y-125580000D03*
%TD*%
%TO.C,D94*%
X142505000Y-149630000D03*
X142505000Y-150730000D03*
X144335000Y-150730000D03*
X144335000Y-149630000D03*
%TD*%
%TO.C,D102*%
X226295000Y-201680000D03*
X226295000Y-202780000D03*
X228125000Y-202780000D03*
X228125000Y-201680000D03*
%TD*%
%TO.C,D90*%
X390445000Y-182680000D03*
X390445000Y-183780000D03*
X392275000Y-183780000D03*
X392275000Y-182680000D03*
%TD*%
%TO.C,D57*%
X309445000Y-125580000D03*
X309445000Y-126680000D03*
X311275000Y-126680000D03*
X311275000Y-125580000D03*
%TD*%
%TO.C,D66*%
X290395000Y-125580000D03*
X290395000Y-126680000D03*
X292225000Y-126680000D03*
X292225000Y-125580000D03*
%TD*%
%TO.C,D33*%
X280895000Y-144530000D03*
X280895000Y-145630000D03*
X282725000Y-145630000D03*
X282725000Y-144530000D03*
%TD*%
%TO.C,D65*%
X519195000Y-96330000D03*
X519195000Y-97430000D03*
X521025000Y-97430000D03*
X521025000Y-96330000D03*
%TD*%
%TO.C,D80*%
X209495000Y-163580000D03*
X209495000Y-164680000D03*
X211325000Y-164680000D03*
X211325000Y-163580000D03*
%TD*%
%TO.C,D55*%
X252195000Y-96330000D03*
X252195000Y-97430000D03*
X254025000Y-97430000D03*
X254025000Y-96330000D03*
%TD*%
%TO.C,D16*%
X481095000Y-144380000D03*
X481095000Y-145480000D03*
X482925000Y-145480000D03*
X482925000Y-144380000D03*
%TD*%
%TO.C,D69*%
X357095000Y-144530000D03*
X357095000Y-145630000D03*
X358925000Y-145630000D03*
X358925000Y-144530000D03*
%TD*%
%TO.C,D60*%
X338045000Y-144530000D03*
X338045000Y-145630000D03*
X339875000Y-145630000D03*
X339875000Y-144530000D03*
%TD*%
%TO.C,D49*%
X99855000Y-125230000D03*
X99855000Y-126330000D03*
X101685000Y-126330000D03*
X101685000Y-125230000D03*
%TD*%
%TO.C,D103*%
X297695000Y-201680000D03*
X297695000Y-202780000D03*
X299525000Y-202780000D03*
X299525000Y-201680000D03*
%TD*%
%TO.C,D83*%
X500145000Y-125580000D03*
X500145000Y-126680000D03*
X501975000Y-126680000D03*
X501975000Y-125580000D03*
%TD*%
%TO.C,D35*%
X304745000Y-163580000D03*
X304745000Y-164680000D03*
X306575000Y-164680000D03*
X306575000Y-163580000D03*
%TD*%
%TO.C,D72*%
X352345000Y-182680000D03*
X352345000Y-183780000D03*
X354175000Y-183780000D03*
X354175000Y-182680000D03*
%TD*%
%TO.C,D71*%
X228545000Y-163580000D03*
X228545000Y-164680000D03*
X230375000Y-164680000D03*
X230375000Y-163580000D03*
%TD*%
%TO.C,D88*%
X399995000Y-163580000D03*
X399995000Y-164680000D03*
X401825000Y-164680000D03*
X401825000Y-163580000D03*
%TD*%
%TO.C,D58*%
X80805000Y-125230000D03*
X80805000Y-126330000D03*
X82635000Y-126330000D03*
X82635000Y-125230000D03*
%TD*%
%TO.C,D39*%
X195195000Y-125580000D03*
X195195000Y-126680000D03*
X197025000Y-126680000D03*
X197025000Y-125580000D03*
%TD*%
%TO.C,D19*%
X115105000Y-91630000D03*
X115105000Y-92730000D03*
X116935000Y-92730000D03*
X116935000Y-91630000D03*
%TD*%
%TO.C,D37*%
X214095000Y-96330000D03*
X214095000Y-97430000D03*
X215925000Y-97430000D03*
X215925000Y-96330000D03*
%TD*%
%TO.C,D46*%
X233145000Y-96330000D03*
X233145000Y-97430000D03*
X234975000Y-97430000D03*
X234975000Y-96330000D03*
%TD*%
%TO.C,D30*%
X366595000Y-125580000D03*
X366595000Y-126680000D03*
X368425000Y-126680000D03*
X368425000Y-125580000D03*
%TD*%
%TO.C,D21*%
X385645000Y-125580000D03*
X385645000Y-126680000D03*
X387475000Y-126680000D03*
X387475000Y-125580000D03*
%TD*%
%TO.C,D17*%
X342845000Y-163580000D03*
X342845000Y-164680000D03*
X344675000Y-164680000D03*
X344675000Y-163580000D03*
%TD*%
%TO.C,D25*%
X500145000Y-144380000D03*
X500145000Y-145480000D03*
X501975000Y-145480000D03*
X501975000Y-144380000D03*
%TD*%
%TO.C,D91*%
X337895000Y-96330000D03*
X337895000Y-97430000D03*
X339725000Y-97430000D03*
X339725000Y-96330000D03*
%TD*%
%TO.C,D34*%
X519195000Y-144380000D03*
X519195000Y-145480000D03*
X521025000Y-145480000D03*
X521025000Y-144380000D03*
%TD*%
%TO.C,D9*%
X219045000Y-182680000D03*
X219045000Y-183780000D03*
X220875000Y-183780000D03*
X220875000Y-182680000D03*
%TD*%
%TO.C,D47*%
X481095000Y-96330000D03*
X481095000Y-97430000D03*
X482925000Y-97430000D03*
X482925000Y-96330000D03*
%TD*%
M02*
