%TF.GenerationSoftware,KiCad,Pcbnew,8.0.1-8.0.1-1~ubuntu22.04.1*%
%TF.CreationDate,2024-03-21T20:32:24+01:00*%
%TF.ProjectId,keyboard_pcb,6b657962-6f61-4726-945f-7063622e6b69,rev?*%
%TF.SameCoordinates,Original*%
%TF.FileFunction,Other,Comment*%
%FSLAX46Y46*%
G04 Gerber Fmt 4.6, Leading zero omitted, Abs format (unit mm)*
G04 Created by KiCad (PCBNEW 8.0.1-8.0.1-1~ubuntu22.04.1) date 2024-03-21 20:32:24*
%MOMM*%
%LPD*%
G01*
G04 APERTURE LIST*
%ADD10C,0.070000*%
%ADD11C,0.150000*%
%ADD12C,0.120000*%
G04 APERTURE END LIST*
D10*
X464388096Y-198017828D02*
X464388096Y-197617828D01*
X464159525Y-198017828D02*
X464330954Y-197789257D01*
X464159525Y-197617828D02*
X464388096Y-197846400D01*
X463988096Y-197808304D02*
X463854763Y-197808304D01*
X463797620Y-198017828D02*
X463988096Y-198017828D01*
X463988096Y-198017828D02*
X463988096Y-197617828D01*
X463988096Y-197617828D02*
X463797620Y-197617828D01*
X463626191Y-197808304D02*
X463492858Y-197808304D01*
X463435715Y-198017828D02*
X463626191Y-198017828D01*
X463626191Y-198017828D02*
X463626191Y-197617828D01*
X463626191Y-197617828D02*
X463435715Y-197617828D01*
X463264286Y-198017828D02*
X463264286Y-197617828D01*
X463264286Y-197617828D02*
X463111905Y-197617828D01*
X463111905Y-197617828D02*
X463073810Y-197636876D01*
X463073810Y-197636876D02*
X463054763Y-197655923D01*
X463054763Y-197655923D02*
X463035715Y-197694019D01*
X463035715Y-197694019D02*
X463035715Y-197751161D01*
X463035715Y-197751161D02*
X463054763Y-197789257D01*
X463054763Y-197789257D02*
X463073810Y-197808304D01*
X463073810Y-197808304D02*
X463111905Y-197827352D01*
X463111905Y-197827352D02*
X463264286Y-197827352D01*
X462788096Y-197617828D02*
X462711905Y-197617828D01*
X462711905Y-197617828D02*
X462673810Y-197636876D01*
X462673810Y-197636876D02*
X462635715Y-197674971D01*
X462635715Y-197674971D02*
X462616667Y-197751161D01*
X462616667Y-197751161D02*
X462616667Y-197884495D01*
X462616667Y-197884495D02*
X462635715Y-197960685D01*
X462635715Y-197960685D02*
X462673810Y-197998781D01*
X462673810Y-197998781D02*
X462711905Y-198017828D01*
X462711905Y-198017828D02*
X462788096Y-198017828D01*
X462788096Y-198017828D02*
X462826191Y-197998781D01*
X462826191Y-197998781D02*
X462864286Y-197960685D01*
X462864286Y-197960685D02*
X462883334Y-197884495D01*
X462883334Y-197884495D02*
X462883334Y-197751161D01*
X462883334Y-197751161D02*
X462864286Y-197674971D01*
X462864286Y-197674971D02*
X462826191Y-197636876D01*
X462826191Y-197636876D02*
X462788096Y-197617828D01*
X462445238Y-197617828D02*
X462445238Y-197941638D01*
X462445238Y-197941638D02*
X462426191Y-197979733D01*
X462426191Y-197979733D02*
X462407143Y-197998781D01*
X462407143Y-197998781D02*
X462369048Y-198017828D01*
X462369048Y-198017828D02*
X462292857Y-198017828D01*
X462292857Y-198017828D02*
X462254762Y-197998781D01*
X462254762Y-197998781D02*
X462235715Y-197979733D01*
X462235715Y-197979733D02*
X462216667Y-197941638D01*
X462216667Y-197941638D02*
X462216667Y-197617828D01*
X462083333Y-197617828D02*
X461854762Y-197617828D01*
X461969048Y-198017828D02*
X461969048Y-197617828D01*
D11*
%TO.C,H5*%
X513300000Y-198850000D02*
G75*
G02*
X506900000Y-198850000I-3200000J0D01*
G01*
X506900000Y-198850000D02*
G75*
G02*
X513300000Y-198850000I3200000J0D01*
G01*
%TO.C,H4*%
X194650000Y-197700000D02*
G75*
G02*
X188250000Y-197700000I-3200000J0D01*
G01*
X188250000Y-197700000D02*
G75*
G02*
X194650000Y-197700000I3200000J0D01*
G01*
%TO.C,H7*%
X78750000Y-197450000D02*
G75*
G02*
X72350000Y-197450000I-3200000J0D01*
G01*
X72350000Y-197450000D02*
G75*
G02*
X78750000Y-197450000I3200000J0D01*
G01*
%TO.C,H2*%
X232300000Y-103100000D02*
G75*
G02*
X225900000Y-103100000I-3200000J0D01*
G01*
X225900000Y-103100000D02*
G75*
G02*
X232300000Y-103100000I3200000J0D01*
G01*
%TO.C,H3*%
X513650000Y-87150000D02*
G75*
G02*
X507250000Y-87150000I-3200000J0D01*
G01*
X507250000Y-87150000D02*
G75*
G02*
X513650000Y-87150000I3200000J0D01*
G01*
%TO.C,H8*%
X386050000Y-197650000D02*
G75*
G02*
X379650000Y-197650000I-3200000J0D01*
G01*
X379650000Y-197650000D02*
G75*
G02*
X386050000Y-197650000I3200000J0D01*
G01*
%TO.C,H6*%
X352550000Y-102450000D02*
G75*
G02*
X346150000Y-102450000I-3200000J0D01*
G01*
X346150000Y-102450000D02*
G75*
G02*
X352550000Y-102450000I3200000J0D01*
G01*
%TO.C,H1*%
X78950000Y-88150000D02*
G75*
G02*
X72550000Y-88150000I-3200000J0D01*
G01*
X72550000Y-88150000D02*
G75*
G02*
X78950000Y-88150000I3200000J0D01*
G01*
D12*
%TO.C,J2*%
X464360009Y-199156948D02*
X464995008Y-199156949D01*
X464995008Y-199156949D02*
X464995009Y-198521948D01*
%TD*%
M02*
