M48
; DRILL file {KiCad 8.0.1-8.0.1-1~ubuntu22.04.1} date 2024-03-21T20:32:24+0100
; FORMAT={-:-/ absolute / inch / decimal}
; #@! TF.CreationDate,2024-03-21T20:32:24+01:00
; #@! TF.GenerationSoftware,Kicad,Pcbnew,8.0.1-8.0.1-1~ubuntu22.04.1
; #@! TF.FileFunction,NonPlated,1,4,NPTH
FMAT,2
INCH
; #@! TA.AperFunction,NonPlated,NPTH,ComponentDrill
T1C0.0256
; #@! TA.AperFunction,NonPlated,NPTH,ComponentDrill
T2C0.0390
; #@! TA.AperFunction,NonPlated,NPTH,ComponentDrill
T3C0.1260
; #@! TA.AperFunction,NonPlated,NPTH,ComponentDrill
T4C0.1575
%
G90
G05
T1
X14.5535Y-3.4449
X14.7811Y-3.4449
T2
X18.1343Y-7.7488
X18.1343Y-7.8288
X18.3343Y-7.7888
T3
X2.9744Y-7.7736
X2.9823Y-3.4705
X7.5374Y-7.7835
X9.0197Y-4.0591
X13.7539Y-4.0335
X15.0728Y-7.7815
X20.0827Y-7.8287
X20.0965Y-3.4311
T4
X3.2199Y-4.7768
X3.2199Y-5.5268
X3.2199Y-6.2768
X3.2199Y-7.0268
X3.5953Y-7.7768
X3.9699Y-4.7768
X3.9699Y-5.5268
X3.9699Y-6.2768
X3.9699Y-7.0268
X4.7199Y-4.7768
X4.7199Y-5.5268
X4.7199Y-6.2768
X4.7199Y-7.0268
X4.7199Y-7.7768
X5.4699Y-4.7768
X5.4699Y-5.9028
X5.4699Y-7.4008
X6.9709Y-3.639
X6.9709Y-4.7866
X7.0693Y-7.7866
X7.1579Y-5.5366
X7.2524Y-6.2866
X7.4394Y-7.0366
X7.7209Y-4.7866
X8.0083Y-7.7866
X8.0949Y-5.5366
X8.2839Y-6.2866
X8.465Y-3.637
X8.4709Y-4.7866
X8.6598Y-7.0366
X8.8449Y-5.5366
X8.9453Y-7.7866
X9.0339Y-6.2866
X9.215Y-3.637
X9.2189Y-4.7866
X9.4098Y-7.0366
X9.5949Y-5.5366
X9.7839Y-6.2866
X9.965Y-3.637
X9.9689Y-4.7866
X10.1598Y-7.0366
X10.3449Y-5.5366
X10.5339Y-6.2866
X10.715Y-3.637
X10.7189Y-4.7866
X10.9098Y-7.0366
X11.0949Y-5.5366
X11.2839Y-6.2866
X11.4689Y-4.7866
X11.6598Y-7.0366
X11.7563Y-7.7866
X11.8394Y-3.6323
X11.8449Y-5.5366
X12.0339Y-6.2866
X12.2189Y-4.7866
X12.4098Y-7.0366
X12.5894Y-3.6323
X12.5949Y-5.5366
X12.7839Y-6.2866
X12.9689Y-4.7866
X13.1579Y-7.0366
X13.3394Y-3.6323
X13.3449Y-5.5366
X13.5339Y-6.2866
X13.7189Y-4.7866
X13.9079Y-7.0366
X14.0894Y-3.6323
X14.0949Y-5.5366
X14.2839Y-6.2866
X14.4689Y-4.7866
X14.5693Y-7.7866
X14.6579Y-7.0366
X14.8469Y-5.5366
X15.0339Y-6.2866
X15.2169Y-3.6311
X15.2189Y-4.7866
X15.4079Y-7.0366
X15.5063Y-7.7866
X15.5969Y-5.5366
X15.7839Y-6.2866
X15.9669Y-3.6311
X15.9689Y-4.7866
X16.3449Y-5.5366
X16.4433Y-7.7866
X16.7169Y-3.6311
X16.8154Y-7.0366
X17.0024Y-6.2866
X17.0939Y-4.7866
X17.2819Y-5.5366
X17.3787Y-7.7858
X17.4669Y-3.6311
X18.9728Y-7.7846
X18.9762Y-3.637
X18.9762Y-4.7787
X18.9762Y-5.5287
X19.7209Y-7.0346
X19.7209Y-7.7846
X19.7242Y-3.637
X19.7262Y-4.7787
X19.7262Y-5.5287
X20.4709Y-7.7846
X20.4762Y-3.637
X20.4762Y-4.7787
X20.4762Y-5.5287
M30
