%TF.GenerationSoftware,KiCad,Pcbnew,8.0.1-8.0.1-1~ubuntu22.04.1*%
%TF.CreationDate,2024-03-21T20:32:24+01:00*%
%TF.ProjectId,keyboard_pcb,6b657962-6f61-4726-945f-7063622e6b69,rev?*%
%TF.SameCoordinates,Original*%
%TF.FileFunction,Soldermask,Bot*%
%TF.FilePolarity,Negative*%
%FSLAX46Y46*%
G04 Gerber Fmt 4.6, Leading zero omitted, Abs format (unit mm)*
G04 Created by KiCad (PCBNEW 8.0.1-8.0.1-1~ubuntu22.04.1) date 2024-03-21 20:32:24*
%MOMM*%
%LPD*%
G01*
G04 APERTURE LIST*
G04 Aperture macros list*
%AMRoundRect*
0 Rectangle with rounded corners*
0 $1 Rounding radius*
0 $2 $3 $4 $5 $6 $7 $8 $9 X,Y pos of 4 corners*
0 Add a 4 corners polygon primitive as box body*
4,1,4,$2,$3,$4,$5,$6,$7,$8,$9,$2,$3,0*
0 Add four circle primitives for the rounded corners*
1,1,$1+$1,$2,$3*
1,1,$1+$1,$4,$5*
1,1,$1+$1,$6,$7*
1,1,$1+$1,$8,$9*
0 Add four rect primitives between the rounded corners*
20,1,$1+$1,$2,$3,$4,$5,0*
20,1,$1+$1,$4,$5,$6,$7,0*
20,1,$1+$1,$6,$7,$8,$9,0*
20,1,$1+$1,$8,$9,$2,$3,0*%
%AMFreePoly0*
4,1,105,-0.260967,0.724697,-0.232245,0.721872,-0.203068,0.717483,-0.173492,0.711545,-0.143571,0.704073,-0.113362,0.695082,-0.082919,0.684587,-0.052301,0.672604,-0.021561,0.659148,0.009245,0.644233,0.040060,0.627876,0.070830,0.610092,0.101499,0.590896,0.132009,0.570302,0.162308,0.548327,0.192337,0.524986,0.222043,0.500294,0.251369,0.474265,0.280258,0.446916,0.308657,0.418262,
0.336508,0.388319,0.389102,0.326126,0.436588,0.262201,0.478873,0.197015,0.515870,0.131040,0.547489,0.064749,0.573639,-0.001388,0.594232,-0.066897,0.609178,-0.131307,0.618387,-0.194147,0.621771,-0.254945,0.619238,-0.313228,0.610701,-0.368525,0.604151,-0.394906,0.596067,-0.420365,0.586437,-0.444840,0.575250,-0.468274,0.562494,-0.490607,0.548158,-0.511781,0.532232,-0.531737,
0.514703,-0.550415,0.495790,-0.567556,0.475753,-0.582950,0.454648,-0.596610,0.432531,-0.608554,0.409458,-0.618795,0.385484,-0.627351,0.360664,-0.634235,0.335054,-0.639462,0.308711,-0.643049,0.281690,-0.645010,0.254046,-0.645360,0.225836,-0.644116,0.197113,-0.641292,0.167937,-0.636902,0.138360,-0.630965,0.108439,-0.623492,0.078230,-0.614501,0.047788,-0.604006,0.017169,-0.592022,
-0.013570,-0.578566,-0.044375,-0.563652,-0.075190,-0.547294,-0.105960,-0.529510,-0.136628,-0.510313,-0.167139,-0.489720,-0.197437,-0.467744,-0.227466,-0.444403,-0.257171,-0.419710,-0.286496,-0.393682,-0.315386,-0.366332,-0.343783,-0.337678,-0.371634,-0.307733,-0.424229,-0.245541,-0.471714,-0.181616,-0.513999,-0.116431,-0.550996,-0.050455,-0.582614,0.015835,-0.608765,0.081971,-0.629358,0.147480,
-0.644305,0.211891,-0.653514,0.274730,-0.656898,0.335528,-0.654366,0.393811,-0.645829,0.449108,-0.639280,0.475488,-0.631197,0.500946,-0.621567,0.525421,-0.610379,0.548855,-0.597624,0.571188,-0.583289,0.592361,-0.567363,0.612317,-0.549835,0.630994,-0.530922,0.648135,-0.510885,0.663528,-0.489780,0.677190,-0.467663,0.689133,-0.444589,0.699375,-0.420615,0.707930,-0.395795,0.714814,
-0.370186,0.720042,-0.343843,0.723628,-0.316822,0.725590,-0.289177,0.725941,-0.260967,0.724697,-0.260967,0.724697,$1*%
%AMFreePoly1*
4,1,109,-0.120943,0.465097,-0.092639,0.463144,-0.063966,0.460033,-0.034965,0.455748,-0.005679,0.450273,0.023853,0.443593,0.053584,0.435693,0.083475,0.426558,0.142163,0.405052,0.198240,0.379779,0.251459,0.351051,0.301576,0.319179,0.348346,0.284477,0.391523,0.247258,0.430862,0.207832,0.466116,0.166513,0.497041,0.123611,0.523391,0.079440,0.534775,0.056977,0.544922,0.034314,
0.553803,0.011489,0.561386,-0.011458,0.567643,-0.034489,0.572539,-0.057563,0.576049,-0.080642,0.578136,-0.103687,0.578775,-0.126659,0.577932,-0.149519,0.575577,-0.172228,0.571679,-0.194746,0.566277,-0.216773,0.559454,-0.238026,0.551253,-0.258489,0.541715,-0.278145,0.530884,-0.296981,0.518799,-0.314980,0.505505,-0.332128,0.491042,-0.348408,0.475454,-0.363807,0.458781,-0.378307,
0.441066,-0.391894,0.422351,-0.404553,0.402678,-0.416268,0.382089,-0.427023,0.360625,-0.436804,0.338330,-0.445595,0.315245,-0.453381,0.291412,-0.460146,0.266874,-0.465875,0.241671,-0.470553,0.215847,-0.474164,0.189442,-0.476693,0.162500,-0.478125,0.135062,-0.478444,0.107171,-0.477634,0.078868,-0.475682,0.050195,-0.472571,0.021194,-0.468285,-0.008092,-0.462810,-0.037622,-0.456129,
-0.067353,-0.448229,-0.097244,-0.439093,-0.155931,-0.417587,-0.212008,-0.392314,-0.265228,-0.363586,-0.315345,-0.331714,-0.362115,-0.297013,-0.405292,-0.259793,-0.444630,-0.220367,-0.479885,-0.179048,-0.510810,-0.136146,-0.537160,-0.091976,-0.548543,-0.069512,-0.558691,-0.046849,-0.567571,-0.024024,-0.575155,-0.001077,-0.581411,0.021954,-0.586309,0.045027,-0.589817,0.068106,-0.591905,0.091152,
-0.592543,0.114124,-0.591701,0.136984,-0.589346,0.159693,-0.585448,0.182211,-0.580047,0.204239,-0.573225,0.225491,-0.565024,0.245954,-0.555487,0.265611,-0.544656,0.284446,-0.532572,0.302446,-0.519279,0.319593,-0.504816,0.335874,-0.489228,0.351272,-0.472555,0.365772,-0.454840,0.379359,-0.436126,0.392017,-0.416452,0.403732,-0.395863,0.414487,-0.374400,0.424268,-0.352105,0.433059,
-0.329020,0.440844,-0.305187,0.447609,-0.280648,0.453339,-0.255445,0.458016,-0.229620,0.461627,-0.203216,0.464156,-0.176273,0.465587,-0.148834,0.465906,-0.120943,0.465097,-0.120943,0.465097,$1*%
%AMFreePoly2*
4,1,105,-0.108773,0.810528,-0.083340,0.806701,-0.057932,0.800986,-0.032592,0.793423,-0.007360,0.784056,0.042605,0.760083,0.091630,0.729404,0.139380,0.692360,0.185519,0.649292,0.229712,0.600541,0.271626,0.546446,0.310924,0.487349,0.347272,0.423590,0.380334,0.355508,0.409776,0.283446,0.435264,0.207743,0.456461,0.128739,0.465245,0.088585,0.472666,0.048699,0.478746,0.009138,
0.483502,-0.030045,0.486952,-0.068795,0.489116,-0.107055,0.490014,-0.144771,0.489664,-0.181888,0.488084,-0.218350,0.485294,-0.254103,0.481311,-0.289090,0.476156,-0.323258,0.469848,-0.356550,0.462405,-0.388912,0.453845,-0.420289,0.444189,-0.450624,0.433454,-0.479864,0.421660,-0.507952,0.408826,-0.534834,0.394969,-0.560454,0.380110,-0.584758,0.364267,-0.607690,0.347460,-0.629195,
0.329706,-0.649218,0.311024,-0.667703,0.291435,-0.684596,0.270957,-0.699841,0.249608,-0.713384,0.227407,-0.725168,0.204374,-0.735140,0.180526,-0.743241,0.155884,-0.749420,0.130767,-0.753576,0.105507,-0.755671,0.080148,-0.755749,0.054731,-0.753854,0.029297,-0.750027,0.003890,-0.744311,-0.021450,-0.736749,-0.046680,-0.727383,-0.096646,-0.703409,-0.145670,-0.672729,-0.193419,-0.635686,
-0.239559,-0.592618,-0.283752,-0.543867,-0.325665,-0.489774,-0.364964,-0.430676,-0.401312,-0.366918,-0.434375,-0.298837,-0.463818,-0.226776,-0.489305,-0.151074,-0.510503,-0.072072,-0.519287,-0.031917,-0.526708,0.007970,-0.532787,0.047532,-0.537542,0.086716,-0.540993,0.125466,-0.543157,0.163726,-0.544055,0.201442,-0.543704,0.238560,-0.542123,0.275023,-0.539333,0.310775,-0.535351,0.345763,
-0.530196,0.379931,-0.523888,0.413223,-0.516444,0.445586,-0.507885,0.476962,-0.498228,0.507298,-0.487494,0.536537,-0.475700,0.564626,-0.462866,0.591507,-0.449009,0.617128,-0.434151,0.641432,-0.418307,0.664364,-0.401501,0.685870,-0.383747,0.705892,-0.365067,0.724377,-0.345477,0.741270,-0.324999,0.756515,-0.303651,0.770058,-0.281451,0.781841,-0.258418,0.791812,-0.234572,0.799915,
-0.209929,0.806093,-0.184811,0.810248,-0.159552,0.812344,-0.134192,0.812423,-0.108773,0.810528,-0.108773,0.810528,$1*%
%AMFreePoly3*
4,1,229,-0.124885,1.507140,-0.078913,1.504105,-0.032954,1.499530,0.012933,1.493443,0.058692,1.485869,0.104266,1.476835,0.149599,1.466367,0.157427,1.464199,0.164961,1.461647,0.172196,1.458725,0.179130,1.455448,0.185758,1.451830,0.192077,1.447882,0.198083,1.443622,0.203771,1.439062,0.209139,1.434217,0.214181,1.429098,0.218896,1.423723,0.223278,1.418103,0.227323,1.412254,
0.231029,1.406189,0.234390,1.399922,0.237403,1.393467,0.240066,1.386839,0.242372,1.380050,0.244321,1.373115,0.245904,1.366049,0.247122,1.358864,0.247969,1.351575,0.248440,1.344197,0.248534,1.336742,0.248245,1.329225,0.247571,1.321660,0.246507,1.314061,0.245048,1.306441,0.243192,1.298817,0.240935,1.291199,0.238272,1.283603,0.235200,1.276043,0.217817,1.235369,
0.200955,1.194420,0.184662,1.153192,0.168986,1.111683,0.153973,1.069891,0.139671,1.027811,0.126127,0.985442,0.113391,0.942780,0.104229,0.908801,0.095140,0.870846,0.086460,0.830187,0.078529,0.788097,0.071685,0.745848,0.066267,0.704714,0.064197,0.684960,0.062612,0.665963,0.061551,0.647880,0.061059,0.630870,0.061218,0.595080,0.062500,0.559288,0.064848,0.523504,
0.068200,0.487733,0.072496,0.451985,0.077675,0.416269,0.083679,0.380592,0.090447,0.344964,0.106034,0.273883,0.123955,0.203091,0.143730,0.132656,0.164878,0.062642,0.167109,0.054778,0.168935,0.046874,0.170361,0.038943,0.171396,0.030996,0.172046,0.023044,0.172318,0.015096,0.172219,0.007166,0.171755,-0.000739,0.170934,-0.008606,0.169762,-0.016423,0.168246,-0.024182,
0.166394,-0.031870,0.164210,-0.039477,0.161703,-0.046992,0.158881,-0.054404,0.155749,-0.061702,0.152314,-0.068877,0.148582,-0.075915,0.144562,-0.082808,0.140260,-0.089543,0.135683,-0.096111,0.130837,-0.102501,0.125729,-0.108701,0.120367,-0.114700,0.114757,-0.120488,0.108906,-0.126055,0.102820,-0.131387,0.096507,-0.136477,0.089974,-0.141313,0.083227,-0.145883,0.076274,-0.150177,
0.069120,-0.154184,0.062883,-0.157295,0.056503,-0.160070,0.049994,-0.162510,0.043366,-0.164619,0.036631,-0.166398,0.029802,-0.167848,0.022889,-0.168972,0.015904,-0.169773,0.008861,-0.170251,0.001771,-0.170410,-0.005357,-0.170251,-0.012508,-0.169777,-0.019671,-0.168989,-0.026834,-0.167889,-0.033987,-0.166480,-0.041116,-0.164764,-0.048210,-0.162742,-0.055258,-0.160417,-0.062247,-0.157791,
-0.069166,-0.154865,-0.076002,-0.151643,-0.082744,-0.148126,-0.089381,-0.144316,-0.095901,-0.140215,-0.102291,-0.135825,-0.108539,-0.131149,-0.114635,-0.126187,-0.120566,-0.120944,-0.126320,-0.115419,-0.131886,-0.109617,-0.137252,-0.103537,-0.142406,-0.097184,-0.190847,-0.035984,-0.240644,0.024161,-0.292037,0.082737,-0.345261,0.139228,-0.372633,0.166531,-0.400553,0.193121,-0.429050,0.218931,
-0.458153,0.243900,-0.487891,0.267961,-0.518295,0.291049,-0.549395,0.313103,-0.581219,0.334057,-0.595739,0.342897,-0.611474,0.351836,-0.628266,0.360829,-0.645958,0.369825,-0.683408,0.387640,-0.722565,0.404900,-0.762170,0.421224,-0.800961,0.436229,-0.837679,0.449536,-0.871063,0.460761,-0.909104,0.472686,-0.947288,0.484072,-0.985595,0.494926,-1.024005,0.505259,-1.062500,0.515079,
-1.101059,0.524398,-1.139662,0.533222,-1.178291,0.541563,-1.186233,0.543429,-1.193966,0.545647,-1.201482,0.548204,-1.208770,0.551092,-1.215823,0.554297,-1.222631,0.557810,-1.229185,0.561620,-1.235475,0.565714,-1.241494,0.570083,-1.247231,0.574716,-1.252678,0.579600,-1.257824,0.584726,-1.262662,0.590083,-1.267184,0.595659,-1.271377,0.601443,-1.275235,0.607424,-1.278748,0.613592,
-1.281906,0.619936,-1.284702,0.626443,-1.287125,0.633104,-1.289166,0.639907,-1.290817,0.646841,-1.292068,0.653896,-1.292911,0.661060,-1.293336,0.668322,-1.293335,0.675672,-1.292896,0.683098,-1.292012,0.690590,-1.290675,0.698135,-1.288874,0.705724,-1.286602,0.713346,-1.283846,0.720989,-1.266224,0.764046,-1.247341,0.806484,-1.227204,0.848243,-1.205817,0.889260,-1.183185,0.929473,
-1.159314,0.968821,-1.134208,1.007241,-1.107875,1.044672,-1.080317,1.081052,-1.051541,1.116320,-1.021551,1.150414,-0.990354,1.183271,-0.957953,1.214831,-0.924355,1.245032,-0.889564,1.273810,-0.853585,1.301105,-0.824574,1.320968,-0.791478,1.341588,-0.755472,1.362353,-0.717731,1.382655,-0.679430,1.401884,-0.641746,1.419431,-0.605852,1.434687,-0.572924,1.447042,-0.529927,1.460848,
-0.486378,1.472851,-0.442332,1.483078,-0.397847,1.491554,-0.352979,1.498307,-0.307785,1.503363,-0.262322,1.506747,-0.216647,1.508487,-0.170815,1.508610,-0.124885,1.507140,-0.124885,1.507140,$1*%
%AMFreePoly4*
4,1,109,0.073306,0.600233,0.094891,0.598437,0.116410,0.595106,0.137827,0.590212,0.159106,0.583730,0.180209,0.575636,0.200854,0.566018,0.220778,0.555020,0.239963,0.542687,0.258395,0.529070,0.276061,0.514212,0.292946,0.498165,0.309035,0.480973,0.324314,0.462686,0.338768,0.443352,0.352384,0.423015,0.365145,0.401726,0.377039,0.379531,0.398165,0.332615,0.415645,0.282646,
0.429364,0.230007,0.439206,0.175075,0.445055,0.118234,0.446796,0.059863,0.444313,0.000343,0.437491,-0.059948,0.426212,-0.120626,0.410363,-0.181313,0.400804,-0.211186,0.390325,-0.240223,0.378962,-0.268398,0.366752,-0.295686,0.353732,-0.322060,0.339938,-0.347495,0.325405,-0.371964,0.310172,-0.395443,0.294275,-0.417903,0.277750,-0.439321,0.260632,-0.459669,0.242961,-0.478922,
0.224770,-0.497056,0.206098,-0.514040,0.186980,-0.529853,0.167454,-0.544466,0.147555,-0.557855,0.127320,-0.569993,0.106787,-0.580855,0.085989,-0.590413,0.064965,-0.598644,0.043752,-0.605520,0.022387,-0.611015,0.000903,-0.615104,-0.020660,-0.617761,-0.042268,-0.618960,-0.063882,-0.618674,-0.085467,-0.616879,-0.106987,-0.613547,-0.128403,-0.608653,-0.149682,-0.602172,-0.170785,-0.594077,
-0.191431,-0.584460,-0.211354,-0.573461,-0.230539,-0.561129,-0.248972,-0.547511,-0.266637,-0.532654,-0.283521,-0.516607,-0.299610,-0.499415,-0.314889,-0.481128,-0.329343,-0.461792,-0.342959,-0.441457,-0.355720,-0.420167,-0.367614,-0.397972,-0.388738,-0.351055,-0.406218,-0.301086,-0.419937,-0.248446,-0.429778,-0.193515,-0.435627,-0.136673,-0.437367,-0.078301,-0.434884,-0.018779,-0.428061,0.041512,
-0.416783,0.102190,-0.400934,0.162878,-0.391376,0.192751,-0.380896,0.221787,-0.369533,0.249963,-0.357323,0.277250,-0.344303,0.303624,-0.330508,0.329058,-0.315977,0.353527,-0.300744,0.377005,-0.284846,0.399466,-0.268322,0.420883,-0.251204,0.441231,-0.233533,0.460484,-0.215343,0.478616,-0.196671,0.495601,-0.177554,0.511413,-0.158027,0.526026,-0.138128,0.539416,-0.117895,0.551553,
-0.097360,0.562414,-0.076563,0.571973,-0.055540,0.580203,-0.034327,0.587079,-0.012961,0.592573,0.008521,0.596663,0.030085,0.599319,0.051692,0.600519,0.073306,0.600233,0.073306,0.600233,$1*%
%AMFreePoly5*
4,1,171,-0.011504,0.557490,0.006287,0.556904,0.023296,0.555805,0.039361,0.554201,0.054318,0.552102,0.078650,0.547773,0.102885,0.542789,0.127031,0.537215,0.151100,0.531114,0.199041,0.517583,0.246784,0.502700,0.389601,0.454998,0.437328,0.439763,0.444535,0.437353,0.451582,0.434615,0.458463,0.431563,0.465169,0.428204,0.471693,0.424548,0.478027,0.420606,0.484162,0.416386,
0.490092,0.411900,0.501304,0.402165,0.511599,0.391480,0.520916,0.379923,0.529192,0.367573,0.536365,0.354509,0.539518,0.347733,0.542372,0.340808,0.544921,0.333743,0.547152,0.326549,0.549063,0.319235,0.550642,0.311812,0.551884,0.304287,0.552780,0.296674,0.553322,0.288979,0.553503,0.281214,0.553315,0.273388,0.552750,0.265511,0.551800,0.257592,0.550457,0.249643,
0.537824,0.186105,0.524254,0.122722,0.509361,0.059744,0.492759,-0.002579,0.474059,-0.063998,0.463802,-0.094289,0.452876,-0.124261,0.441233,-0.153881,0.428823,-0.183119,0.415601,-0.211943,0.401516,-0.240321,0.393637,-0.254887,0.384762,-0.270068,0.375002,-0.285748,0.364465,-0.301814,0.353265,-0.318151,0.341508,-0.334646,0.316770,-0.367651,0.291132,-0.399914,0.265475,-0.430523,
0.240682,-0.458563,0.217632,-0.483122,0.187799,-0.513241,0.157440,-0.542778,0.126590,-0.571754,0.095282,-0.600181,0.063547,-0.628078,0.031421,-0.655461,-0.001066,-0.682342,-0.033856,-0.708713,-0.040044,-0.713359,-0.046407,-0.717620,-0.052929,-0.721498,-0.059594,-0.724994,-0.066389,-0.728110,-0.073298,-0.730849,-0.080304,-0.733211,-0.087394,-0.735200,-0.094552,-0.736814,-0.101762,-0.738058,
-0.109009,-0.738933,-0.116279,-0.739440,-0.123556,-0.739582,-0.130825,-0.739359,-0.138070,-0.738774,-0.145277,-0.737828,-0.152430,-0.736523,-0.159513,-0.734860,-0.166513,-0.732843,-0.173413,-0.730471,-0.180198,-0.727748,-0.186853,-0.724674,-0.193363,-0.721252,-0.199712,-0.717482,-0.205886,-0.713367,-0.211870,-0.708909,-0.217647,-0.704109,-0.223202,-0.698969,-0.228522,-0.693491,-0.233589,-0.687675,
-0.238390,-0.681526,-0.243382,-0.674367,-0.243850,-0.673684,-0.244767,-0.672305,-0.246562,-0.669567,-0.264733,-0.640676,-0.284065,-0.608075,-0.303977,-0.572880,-0.323885,-0.536207,-0.343207,-0.499174,-0.361361,-0.462897,-0.377765,-0.428494,-0.391834,-0.397079,-0.415771,-0.338562,-0.437500,-0.278902,-0.447400,-0.248700,-0.456585,-0.218278,-0.465001,-0.187659,-0.472594,-0.156865,-0.479309,-0.125919,
-0.485092,-0.094843,-0.489889,-0.063658,-0.493645,-0.032388,-0.496307,-0.001053,-0.497820,0.030322,-0.498129,0.061718,-0.497181,0.093110,-0.495910,0.109887,-0.493768,0.127657,-0.490802,0.146241,-0.487053,0.165467,-0.482571,0.185156,-0.477399,0.205134,-0.471578,0.225224,-0.465156,0.245251,-0.458179,0.265038,-0.450688,0.284409,-0.442733,0.303189,-0.434355,0.321201,-0.425600,0.338270,
-0.416512,0.354219,-0.407136,0.368872,-0.397518,0.382055,-0.388679,0.392992,-0.379547,0.403664,-0.370133,0.414064,-0.360444,0.424184,-0.350491,0.434016,-0.340285,0.443552,-0.329833,0.452782,-0.319147,0.461703,-0.308236,0.470303,-0.297109,0.478575,-0.285777,0.486511,-0.274248,0.494104,-0.262533,0.501345,-0.250642,0.508226,-0.238583,0.514740,-0.226368,0.520879,-0.211963,0.527220,
-0.196378,0.532930,-0.179774,0.538020,-0.162315,0.542498,-0.144165,0.546375,-0.125487,0.549661,-0.106446,0.552364,-0.087204,0.554495,-0.067925,0.556064,-0.048773,0.557079,-0.029911,0.557551,-0.011504,0.557490,-0.011504,0.557490,$1*%
%AMFreePoly6*
4,1,173,0.025502,0.550466,0.044361,0.549847,0.063506,0.548682,0.082774,0.546963,0.102002,0.544682,0.121025,0.541830,0.139680,0.538399,0.157803,0.534380,0.175232,0.529766,0.191801,0.524547,0.207348,0.518715,0.221708,0.512262,0.233883,0.506028,0.245897,0.499420,0.257742,0.492445,0.269409,0.485113,0.280886,0.477431,0.292165,0.469406,0.303236,0.461046,0.314089,0.452362,
0.324715,0.443360,0.335103,0.434047,0.345245,0.424432,0.355130,0.414522,0.364749,0.404327,0.374092,0.393854,0.383150,0.383110,0.391913,0.372105,0.401441,0.358848,0.410717,0.344122,0.419697,0.328102,0.428337,0.310966,0.436593,0.292889,0.444423,0.274048,0.451782,0.254618,0.458626,0.234777,0.464912,0.214701,0.470596,0.194566,0.475635,0.174548,0.479986,0.154824,
0.483603,0.135570,0.486444,0.116962,0.488465,0.099176,0.489622,0.082390,0.490358,0.050991,0.489837,0.019599,0.488112,-0.011764,0.485239,-0.043077,0.481271,-0.074317,0.476263,-0.105463,0.470269,-0.136493,0.463345,-0.167386,0.455543,-0.198120,0.446919,-0.228672,0.437529,-0.259021,0.427423,-0.289146,0.405290,-0.348634,0.380957,-0.406963,0.366674,-0.438267,0.350038,-0.472543,
0.331640,-0.508677,0.312068,-0.545558,0.291913,-0.582074,0.271764,-0.617113,0.252212,-0.649562,0.233847,-0.678310,0.232035,-0.681034,0.231107,-0.682406,0.230634,-0.683086,0.230154,-0.683757,0.225592,-0.690206,0.220751,-0.696318,0.215644,-0.702093,0.210288,-0.707529,0.204698,-0.712625,0.198889,-0.717380,0.192876,-0.721791,0.186675,-0.725858,0.180300,-0.729578,0.173767,-0.732949,
0.167091,-0.735971,0.160288,-0.738642,0.153372,-0.740958,0.146359,-0.742923,0.139264,-0.744529,0.132103,-0.745778,0.124890,-0.746668,0.117641,-0.747197,0.110371,-0.747363,0.103095,-0.747165,0.095827,-0.746601,0.088587,-0.745670,0.081385,-0.744369,0.074238,-0.742698,0.067162,-0.740655,0.060172,-0.738238,0.053282,-0.735446,0.046508,-0.732276,0.039866,-0.728729,0.033370,-0.724799,
0.027037,-0.720489,0.020903,-0.715824,-0.011731,-0.689169,-0.044034,-0.662033,-0.075975,-0.634402,-0.107519,-0.606258,-0.138634,-0.577587,-0.169287,-0.548371,-0.199445,-0.518596,-0.229074,-0.488246,-0.251956,-0.463508,-0.276558,-0.435275,-0.302005,-0.404467,-0.327424,-0.372005,-0.351938,-0.338808,-0.363582,-0.322222,-0.374672,-0.305797,-0.385098,-0.289649,-0.394752,-0.273893,-0.403523,-0.258644,
-0.411302,-0.244016,-0.425196,-0.215529,-0.438224,-0.186603,-0.450435,-0.157269,-0.461878,-0.127559,-0.472601,-0.097503,-0.482653,-0.067132,-0.500937,-0.005569,-0.517119,0.056882,-0.531586,0.119975,-0.544728,0.183462,-0.556932,0.247096,-0.558220,0.255056,-0.559116,0.262982,-0.559628,0.270863,-0.559763,0.278691,-0.559529,0.286455,-0.558934,0.294145,-0.557987,0.301752,-0.556694,0.309266,
-0.555064,0.316677,-0.553104,0.323976,-0.550822,0.331152,-0.548227,0.338197,-0.545326,0.345099,-0.542127,0.351850,-0.534866,0.364859,-0.526507,0.377144,-0.517112,0.388627,-0.506745,0.399232,-0.501216,0.404180,-0.495469,0.408878,-0.489509,0.413318,-0.483345,0.417489,-0.476986,0.421382,-0.470438,0.424987,-0.463710,0.428293,-0.456809,0.431292,-0.449744,0.433974,-0.442522,0.436328,
-0.394692,0.451190,-0.251552,0.497777,-0.203710,0.512287,-0.155680,0.525444,-0.131572,0.531357,-0.107389,0.536742,-0.083123,0.541535,-0.058763,0.545676,-0.043793,0.547657,-0.027717,0.549136,-0.010700,0.550102,0.007094,0.550549,0.025502,0.550466,0.025502,0.550466,$1*%
G04 Aperture macros list end*
%ADD10C,0.000000*%
%ADD11C,3.200000*%
%ADD12C,4.000000*%
%ADD13C,2.200000*%
%ADD14R,2.000000X2.000000*%
%ADD15C,2.000000*%
%ADD16R,3.200000X2.000000*%
%ADD17RoundRect,0.125000X-0.125000X0.125000X-0.125000X-0.125000X0.125000X-0.125000X0.125000X0.125000X0*%
%ADD18RoundRect,0.225000X-0.225000X-0.250000X0.225000X-0.250000X0.225000X0.250000X-0.225000X0.250000X0*%
%ADD19RoundRect,0.200000X0.275000X-0.200000X0.275000X0.200000X-0.275000X0.200000X-0.275000X-0.200000X0*%
%ADD20R,2.000000X1.500000*%
%ADD21R,2.000000X3.800000*%
%ADD22RoundRect,0.225000X0.225000X0.250000X-0.225000X0.250000X-0.225000X-0.250000X0.225000X-0.250000X0*%
%ADD23RoundRect,0.050000X0.387500X0.050000X-0.387500X0.050000X-0.387500X-0.050000X0.387500X-0.050000X0*%
%ADD24RoundRect,0.050000X0.050000X0.387500X-0.050000X0.387500X-0.050000X-0.387500X0.050000X-0.387500X0*%
%ADD25R,3.200000X3.200000*%
%ADD26RoundRect,0.125000X-0.125000X-0.125000X0.125000X-0.125000X0.125000X0.125000X-0.125000X0.125000X0*%
%ADD27R,0.750000X1.000000*%
%ADD28RoundRect,0.225000X0.250000X-0.225000X0.250000X0.225000X-0.250000X0.225000X-0.250000X-0.225000X0*%
%ADD29RoundRect,0.225000X-0.250000X0.225000X-0.250000X-0.225000X0.250000X-0.225000X0.250000X0.225000X0*%
%ADD30RoundRect,0.150000X0.650000X0.150000X-0.650000X0.150000X-0.650000X-0.150000X0.650000X-0.150000X0*%
%ADD31RoundRect,0.200000X-0.275000X0.200000X-0.275000X-0.200000X0.275000X-0.200000X0.275000X0.200000X0*%
%ADD32C,0.990600*%
%ADD33FreePoly0,180.000000*%
%ADD34FreePoly1,180.000000*%
%ADD35FreePoly2,180.000000*%
%ADD36FreePoly3,180.000000*%
%ADD37FreePoly4,180.000000*%
%ADD38FreePoly5,27.500000*%
%ADD39FreePoly6,27.500000*%
%ADD40C,0.650000*%
%ADD41R,0.600000X1.450000*%
%ADD42R,0.300000X1.450000*%
%ADD43O,1.000000X1.600000*%
%ADD44O,1.000000X2.100000*%
%ADD45RoundRect,0.150000X0.512500X0.150000X-0.512500X0.150000X-0.512500X-0.150000X0.512500X-0.150000X0*%
%ADD46RoundRect,0.200000X-0.200000X-0.275000X0.200000X-0.275000X0.200000X0.275000X-0.200000X0.275000X0*%
G04 APERTURE END LIST*
D10*
%TO.C,J2*%
G36*
X463038287Y-198062897D02*
G01*
X463063721Y-198066724D01*
X463089128Y-198072440D01*
X463114468Y-198080002D01*
X463139699Y-198089368D01*
X463189664Y-198113343D01*
X463238689Y-198144022D01*
X463286438Y-198181066D01*
X463332577Y-198224133D01*
X463376770Y-198272884D01*
X463418684Y-198326978D01*
X463457982Y-198386075D01*
X463494330Y-198449833D01*
X463527393Y-198517914D01*
X463556836Y-198589975D01*
X463582323Y-198665678D01*
X463603522Y-198744680D01*
X463612305Y-198784834D01*
X463619727Y-198824721D01*
X463625805Y-198864283D01*
X463630561Y-198903467D01*
X463634011Y-198942217D01*
X463636175Y-198980477D01*
X463637073Y-199018193D01*
X463636723Y-199055311D01*
X463635142Y-199091774D01*
X463632351Y-199127526D01*
X463628370Y-199162514D01*
X463623214Y-199196682D01*
X463616906Y-199229974D01*
X463609463Y-199262337D01*
X463600903Y-199293713D01*
X463591247Y-199324049D01*
X463580512Y-199353288D01*
X463568718Y-199381377D01*
X463555884Y-199408259D01*
X463542028Y-199433880D01*
X463527169Y-199458184D01*
X463511326Y-199481115D01*
X463494519Y-199502621D01*
X463476765Y-199522643D01*
X463458085Y-199541128D01*
X463438496Y-199558021D01*
X463418017Y-199573266D01*
X463396670Y-199586809D01*
X463374469Y-199598592D01*
X463351436Y-199608563D01*
X463327590Y-199616666D01*
X463302947Y-199622845D01*
X463277829Y-199626999D01*
X463252570Y-199629096D01*
X463227210Y-199629174D01*
X463201792Y-199627279D01*
X463176358Y-199623453D01*
X463150950Y-199617737D01*
X463125610Y-199610174D01*
X463100379Y-199600807D01*
X463050414Y-199576834D01*
X463001388Y-199546155D01*
X462953638Y-199509111D01*
X462907499Y-199466043D01*
X462863306Y-199417292D01*
X462821392Y-199363198D01*
X462782094Y-199304100D01*
X462745747Y-199240342D01*
X462712684Y-199172260D01*
X462683242Y-199100197D01*
X462657754Y-199024494D01*
X462636556Y-198945491D01*
X462627774Y-198905336D01*
X462620352Y-198865451D01*
X462614272Y-198825889D01*
X462609516Y-198786706D01*
X462606066Y-198747957D01*
X462603902Y-198709696D01*
X462603004Y-198671980D01*
X462603354Y-198634864D01*
X462604934Y-198598401D01*
X462607725Y-198562648D01*
X462611707Y-198527661D01*
X462616862Y-198493493D01*
X462623170Y-198460201D01*
X462630613Y-198427839D01*
X462639173Y-198396463D01*
X462648829Y-198366127D01*
X462659564Y-198336888D01*
X462671358Y-198308799D01*
X462684194Y-198281917D01*
X462698049Y-198256297D01*
X462712908Y-198231993D01*
X462728751Y-198209061D01*
X462745558Y-198187556D01*
X462763312Y-198167533D01*
X462781994Y-198149048D01*
X462801583Y-198132155D01*
X462822061Y-198116910D01*
X462843410Y-198103368D01*
X462865611Y-198091583D01*
X462888645Y-198081612D01*
X462912492Y-198073510D01*
X462937134Y-198067331D01*
X462962252Y-198063176D01*
X462987511Y-198061080D01*
X463012870Y-198061002D01*
X463038287Y-198062897D01*
G37*
G36*
X463922361Y-197600797D02*
G01*
X463951083Y-197603620D01*
X463980259Y-197608010D01*
X464009836Y-197613948D01*
X464039757Y-197621420D01*
X464069966Y-197630411D01*
X464100408Y-197640907D01*
X464131027Y-197652890D01*
X464161767Y-197666347D01*
X464192572Y-197681261D01*
X464223387Y-197697618D01*
X464254156Y-197715403D01*
X464284825Y-197734600D01*
X464315336Y-197755192D01*
X464345633Y-197777168D01*
X464375662Y-197800510D01*
X464405367Y-197825203D01*
X464434692Y-197851231D01*
X464463582Y-197878580D01*
X464491980Y-197907234D01*
X464519831Y-197937180D01*
X464572426Y-197999372D01*
X464619910Y-198063297D01*
X464662195Y-198128482D01*
X464699192Y-198194457D01*
X464730810Y-198260748D01*
X464756961Y-198326884D01*
X464777555Y-198392393D01*
X464792501Y-198456803D01*
X464801711Y-198519643D01*
X464805094Y-198580441D01*
X464802562Y-198638723D01*
X464794025Y-198694021D01*
X464787476Y-198720401D01*
X464779393Y-198745859D01*
X464769763Y-198770334D01*
X464758576Y-198793768D01*
X464745821Y-198816101D01*
X464731486Y-198837274D01*
X464715560Y-198857230D01*
X464698031Y-198875907D01*
X464679118Y-198893047D01*
X464659081Y-198908441D01*
X464637977Y-198922102D01*
X464615859Y-198934045D01*
X464592786Y-198944288D01*
X464568811Y-198952843D01*
X464543991Y-198959727D01*
X464518383Y-198964955D01*
X464492039Y-198968541D01*
X464465018Y-198970503D01*
X464437374Y-198970854D01*
X464409163Y-198969609D01*
X464380442Y-198966784D01*
X464351265Y-198962396D01*
X464321688Y-198956458D01*
X464291767Y-198948986D01*
X464261558Y-198939995D01*
X464231115Y-198929500D01*
X464200497Y-198917517D01*
X464169757Y-198904061D01*
X464138951Y-198889146D01*
X464108136Y-198872789D01*
X464077367Y-198855005D01*
X464046697Y-198835808D01*
X464016187Y-198815215D01*
X463985889Y-198793240D01*
X463955859Y-198769899D01*
X463926153Y-198745207D01*
X463896828Y-198719179D01*
X463867938Y-198691829D01*
X463839539Y-198663175D01*
X463811687Y-198633230D01*
X463811688Y-198633232D01*
X463759094Y-198571039D01*
X463711608Y-198507113D01*
X463669323Y-198441927D01*
X463632326Y-198375953D01*
X463600708Y-198309662D01*
X463574557Y-198243525D01*
X463553964Y-198178016D01*
X463539018Y-198113606D01*
X463529809Y-198050766D01*
X463526425Y-197989967D01*
X463528958Y-197931684D01*
X463537496Y-197876387D01*
X463544045Y-197850005D01*
X463552129Y-197824548D01*
X463561759Y-197800073D01*
X463572946Y-197776639D01*
X463585702Y-197754305D01*
X463600038Y-197733131D01*
X463615964Y-197713176D01*
X463633493Y-197694497D01*
X463652406Y-197677356D01*
X463672443Y-197661963D01*
X463693548Y-197648302D01*
X463715665Y-197636358D01*
X463738738Y-197626117D01*
X463762712Y-197617561D01*
X463787532Y-197610678D01*
X463813142Y-197605450D01*
X463839485Y-197601864D01*
X463866507Y-197599902D01*
X463894151Y-197599552D01*
X463922361Y-197600797D01*
G37*
G36*
X462017262Y-197979621D02*
G01*
X462038846Y-197981416D01*
X462060366Y-197984747D01*
X462081783Y-197989641D01*
X462103062Y-197996122D01*
X462124164Y-198004218D01*
X462144811Y-198013835D01*
X462164733Y-198024833D01*
X462183918Y-198037165D01*
X462202351Y-198050784D01*
X462220016Y-198065640D01*
X462236901Y-198081688D01*
X462252990Y-198098879D01*
X462268268Y-198117167D01*
X462282723Y-198136502D01*
X462296338Y-198156838D01*
X462309100Y-198178128D01*
X462320993Y-198200323D01*
X462342118Y-198247240D01*
X462359598Y-198297209D01*
X462373316Y-198349849D01*
X462383158Y-198404780D01*
X462389006Y-198461622D01*
X462390747Y-198519994D01*
X462388263Y-198579516D01*
X462381441Y-198639806D01*
X462370163Y-198700485D01*
X462354313Y-198761172D01*
X462344755Y-198791045D01*
X462334276Y-198820082D01*
X462322913Y-198848257D01*
X462310703Y-198875544D01*
X462297683Y-198901918D01*
X462283887Y-198927353D01*
X462269356Y-198951822D01*
X462254124Y-198975300D01*
X462238226Y-198997761D01*
X462221701Y-199019178D01*
X462204584Y-199039526D01*
X462186912Y-199058779D01*
X462168722Y-199076911D01*
X462150050Y-199093896D01*
X462130933Y-199109708D01*
X462111407Y-199124321D01*
X462091508Y-199137710D01*
X462071274Y-199149847D01*
X462050740Y-199160708D01*
X462029943Y-199170267D01*
X462008920Y-199178498D01*
X461987707Y-199185374D01*
X461966341Y-199190868D01*
X461944858Y-199194958D01*
X461923294Y-199197614D01*
X461901688Y-199198813D01*
X461880073Y-199198527D01*
X461858488Y-199196731D01*
X461836970Y-199193400D01*
X461815552Y-199188507D01*
X461794274Y-199182025D01*
X461773171Y-199173930D01*
X461752525Y-199164313D01*
X461732602Y-199153315D01*
X461713416Y-199140982D01*
X461694985Y-199127364D01*
X461677318Y-199112507D01*
X461660433Y-199096459D01*
X461644345Y-199079268D01*
X461629065Y-199060981D01*
X461614611Y-199041646D01*
X461600995Y-199021310D01*
X461588233Y-199000021D01*
X461576340Y-198977826D01*
X461555215Y-198930910D01*
X461537735Y-198880941D01*
X461524015Y-198828301D01*
X461514174Y-198773370D01*
X461508324Y-198716528D01*
X461506583Y-198658158D01*
X461509066Y-198598637D01*
X461515889Y-198538347D01*
X461527167Y-198477668D01*
X461543017Y-198416982D01*
X461552575Y-198387109D01*
X461563054Y-198358072D01*
X461574417Y-198329897D01*
X461586628Y-198302608D01*
X461599648Y-198276234D01*
X461613442Y-198250799D01*
X461627974Y-198226330D01*
X461643207Y-198202852D01*
X461659104Y-198180391D01*
X461675630Y-198158974D01*
X461692747Y-198138626D01*
X461710419Y-198119372D01*
X461728609Y-198101239D01*
X461747281Y-198084254D01*
X461766399Y-198068442D01*
X461785925Y-198053829D01*
X461805824Y-198040438D01*
X461826059Y-198028302D01*
X461846593Y-198017440D01*
X461867390Y-198007882D01*
X461888414Y-197999651D01*
X461909627Y-197992775D01*
X461930993Y-197987280D01*
X461952476Y-197983191D01*
X461974039Y-197980534D01*
X461995647Y-197979335D01*
X462017262Y-197979621D01*
G37*
G36*
X464498006Y-196717674D02*
G01*
X464526309Y-196719627D01*
X464554982Y-196722737D01*
X464583982Y-196727024D01*
X464613268Y-196732499D01*
X464642799Y-196739179D01*
X464672530Y-196747079D01*
X464702421Y-196756216D01*
X464761108Y-196777722D01*
X464817185Y-196802995D01*
X464870405Y-196831723D01*
X464920522Y-196863594D01*
X464967292Y-196898295D01*
X465010469Y-196935516D01*
X465049807Y-196974941D01*
X465085062Y-197016261D01*
X465115987Y-197059163D01*
X465142337Y-197103332D01*
X465153720Y-197125796D01*
X465163867Y-197148460D01*
X465172748Y-197171285D01*
X465180332Y-197194232D01*
X465186588Y-197217262D01*
X465191486Y-197240336D01*
X465194994Y-197263415D01*
X465197082Y-197286460D01*
X465197720Y-197309432D01*
X465196878Y-197332292D01*
X465194523Y-197355002D01*
X465190625Y-197377520D01*
X465185224Y-197399547D01*
X465178401Y-197420800D01*
X465170201Y-197441263D01*
X465160664Y-197460919D01*
X465149833Y-197479755D01*
X465137749Y-197497754D01*
X465124456Y-197514902D01*
X465109993Y-197531183D01*
X465094405Y-197546580D01*
X465077732Y-197561080D01*
X465060017Y-197574667D01*
X465041303Y-197587326D01*
X465021629Y-197599041D01*
X465001040Y-197609796D01*
X464979577Y-197619576D01*
X464957282Y-197628367D01*
X464934197Y-197636153D01*
X464910364Y-197642918D01*
X464885825Y-197648647D01*
X464860621Y-197653324D01*
X464834797Y-197656936D01*
X464808393Y-197659465D01*
X464781450Y-197660896D01*
X464754011Y-197661215D01*
X464726120Y-197660405D01*
X464697816Y-197658453D01*
X464669143Y-197655342D01*
X464640141Y-197651055D01*
X464610855Y-197645582D01*
X464581324Y-197638902D01*
X464551593Y-197631001D01*
X464521702Y-197621867D01*
X464463014Y-197600360D01*
X464406937Y-197575087D01*
X464353718Y-197546359D01*
X464303601Y-197514488D01*
X464256831Y-197479786D01*
X464213654Y-197442566D01*
X464174315Y-197403140D01*
X464139061Y-197361821D01*
X464108136Y-197318919D01*
X464081786Y-197274749D01*
X464070402Y-197252286D01*
X464060255Y-197229623D01*
X464051374Y-197206797D01*
X464043791Y-197183850D01*
X464037534Y-197160820D01*
X464032638Y-197137746D01*
X464029127Y-197114667D01*
X464027041Y-197091622D01*
X464026402Y-197068650D01*
X464027245Y-197045790D01*
X464029600Y-197023081D01*
X464033498Y-197000563D01*
X464038900Y-196978535D01*
X464045723Y-196957282D01*
X464053924Y-196936819D01*
X464063462Y-196917163D01*
X464074293Y-196898328D01*
X464086377Y-196880328D01*
X464099672Y-196863181D01*
X464114134Y-196846900D01*
X464129723Y-196831501D01*
X464146396Y-196817002D01*
X464164111Y-196803415D01*
X464182826Y-196790755D01*
X464202499Y-196779041D01*
X464223088Y-196768286D01*
X464244552Y-196758505D01*
X464266846Y-196749714D01*
X464289932Y-196741928D01*
X464313765Y-196735162D01*
X464338303Y-196729433D01*
X464363506Y-196724757D01*
X464389330Y-196721144D01*
X464415734Y-196718615D01*
X464442677Y-196717184D01*
X464470114Y-196716865D01*
X464498006Y-196717674D01*
G37*
%TD*%
D11*
%TO.C,H5*%
X510100000Y-198850000D03*
%TD*%
D12*
%TO.C,pad4*%
X81785000Y-159430000D03*
D13*
X84325000Y-154350000D03*
X77975000Y-156890000D03*
%TD*%
D12*
%TO.C,B1*%
X296160000Y-178730000D03*
D13*
X298700000Y-173650000D03*
X292350000Y-176190000D03*
%TD*%
D11*
%TO.C,H4*%
X191450000Y-197700000D03*
%TD*%
D12*
%TO.C,tab1*%
X181810000Y-140630000D03*
D13*
X184350000Y-135550000D03*
X178000000Y-138090000D03*
%TD*%
D12*
%TO.C,numK7*%
X310360000Y-121580000D03*
D13*
X312900000Y-116500000D03*
X306550000Y-119040000D03*
%TD*%
D12*
%TO.C,T1*%
X281810000Y-140630000D03*
D13*
X284350000Y-135550000D03*
X278000000Y-138090000D03*
%TD*%
D12*
%TO.C,space1*%
X298610000Y-197780000D03*
D13*
X301150000Y-192700000D03*
X294800000Y-195240000D03*
%TD*%
D12*
%TO.C,F8*%
X357870000Y-92260000D03*
D13*
X360410000Y-87180000D03*
X354060000Y-89720000D03*
%TD*%
D12*
%TO.C,F3*%
X253110000Y-92380000D03*
D13*
X255650000Y-87300000D03*
X249300000Y-89840000D03*
%TD*%
D12*
%TO.C,plus1*%
X405610000Y-121580000D03*
D13*
X408150000Y-116500000D03*
X401800000Y-119040000D03*
%TD*%
D12*
%TO.C,super_right1*%
X393860000Y-197780000D03*
D13*
X396400000Y-192700000D03*
X390050000Y-195240000D03*
%TD*%
D12*
%TO.C,pad9*%
X119885000Y-140380000D03*
D13*
X122425000Y-135300000D03*
X116075000Y-137840000D03*
%TD*%
D12*
%TO.C,keyN1*%
X315210000Y-178730000D03*
D13*
X317750000Y-173650000D03*
X311400000Y-176190000D03*
%TD*%
D12*
%TO.C,page_up1*%
X520095000Y-121380000D03*
D13*
X522635000Y-116300000D03*
X516285000Y-118840000D03*
%TD*%
D12*
%TO.C,keyP1*%
X377110000Y-140630000D03*
D13*
X379650000Y-135550000D03*
X373300000Y-138090000D03*
%TD*%
D12*
%TO.C,numK3*%
X234160000Y-121580000D03*
D13*
X236700000Y-116500000D03*
X230350000Y-119040000D03*
%TD*%
D12*
%TO.C,numK10_zero1*%
X367510000Y-121580000D03*
D13*
X370050000Y-116500000D03*
X363700000Y-119040000D03*
%TD*%
D12*
%TO.C,backspace1*%
X434185000Y-121580000D03*
D13*
X436725000Y-116500000D03*
X430375000Y-119040000D03*
%TD*%
D12*
%TO.C,home1*%
X501045000Y-121380000D03*
D13*
X503585000Y-116300000D03*
X497235000Y-118840000D03*
%TD*%
D12*
%TO.C,pad_minus1*%
X138935000Y-121330000D03*
D13*
X141475000Y-116250000D03*
X135125000Y-118790000D03*
%TD*%
D12*
%TO.C,shift1*%
X188960000Y-178730000D03*
D13*
X191500000Y-173650000D03*
X185150000Y-176190000D03*
%TD*%
D12*
%TO.C,numK5*%
X272260000Y-121580000D03*
D13*
X274800000Y-116500000D03*
X268450000Y-119040000D03*
%TD*%
D12*
%TO.C,W1*%
X224660000Y-140630000D03*
D13*
X227200000Y-135550000D03*
X220850000Y-138090000D03*
%TD*%
D12*
%TO.C,keyD1*%
X248510000Y-159680000D03*
D13*
X251050000Y-154600000D03*
X244700000Y-157140000D03*
%TD*%
D12*
%TO.C,L1*%
X362810000Y-159680000D03*
D13*
X365350000Y-154600000D03*
X359000000Y-157140000D03*
%TD*%
D12*
%TO.C,insert1*%
X481995000Y-121380000D03*
D13*
X484535000Y-116300000D03*
X478185000Y-118840000D03*
%TD*%
D12*
%TO.C,F11*%
X424610000Y-92230000D03*
D13*
X427150000Y-87150000D03*
X420800000Y-89690000D03*
%TD*%
D12*
%TO.C,F9*%
X386510000Y-92230000D03*
D13*
X389050000Y-87150000D03*
X382700000Y-89690000D03*
%TD*%
D12*
%TO.C,keyX1*%
X239010000Y-178730000D03*
D13*
X241550000Y-173650000D03*
X235200000Y-176190000D03*
%TD*%
D12*
%TO.C,control_left1*%
X179560000Y-197780000D03*
D13*
X182100000Y-192700000D03*
X175750000Y-195240000D03*
%TD*%
D12*
%TO.C,alt_left1*%
X227210000Y-197780000D03*
D13*
X229750000Y-192700000D03*
X223400000Y-195240000D03*
%TD*%
D12*
%TO.C,pad8*%
X100835000Y-140380000D03*
D13*
X103375000Y-135300000D03*
X97025000Y-137840000D03*
%TD*%
D12*
%TO.C,super_left1*%
X203410000Y-197780000D03*
D13*
X205950000Y-192700000D03*
X199600000Y-195240000D03*
%TD*%
D12*
%TO.C,keyJ2*%
X324710000Y-159680000D03*
D13*
X327250000Y-154600000D03*
X320900000Y-157140000D03*
%TD*%
D12*
%TO.C,F7*%
X338820000Y-92260000D03*
D13*
X341360000Y-87180000D03*
X335010000Y-89720000D03*
%TD*%
D12*
%TO.C,O1*%
X358010000Y-140630000D03*
D13*
X360550000Y-135550000D03*
X354200000Y-138090000D03*
%TD*%
D12*
%TO.C,backslash1*%
X438960000Y-140630000D03*
D13*
X441500000Y-135550000D03*
X435150000Y-138090000D03*
%TD*%
D12*
%TO.C,quote1*%
X400910000Y-159680000D03*
D13*
X403450000Y-154600000D03*
X397100000Y-157140000D03*
%TD*%
D12*
%TO.C,keyU5*%
X319910000Y-140630000D03*
D13*
X322450000Y-135550000D03*
X316100000Y-138090000D03*
%TD*%
D12*
%TO.C,A1*%
X210410000Y-159680000D03*
D13*
X212950000Y-154600000D03*
X206600000Y-157140000D03*
%TD*%
D12*
%TO.C,keyF1*%
X267560000Y-159680000D03*
D13*
X270100000Y-154600000D03*
X263750000Y-157140000D03*
%TD*%
D11*
%TO.C,H7*%
X75550000Y-197450000D03*
%TD*%
D12*
%TO.C,F4*%
X272160000Y-92380000D03*
D13*
X274700000Y-87300000D03*
X268350000Y-89840000D03*
%TD*%
D12*
%TO.C,down1*%
X500910000Y-197730000D03*
D13*
X503450000Y-192650000D03*
X497100000Y-195190000D03*
%TD*%
D12*
%TO.C,pad2*%
X100835000Y-178480000D03*
D13*
X103375000Y-173400000D03*
X97025000Y-175940000D03*
%TD*%
D11*
%TO.C,H2*%
X229100000Y-103100000D03*
%TD*%
D12*
%TO.C,caps1*%
X184210000Y-159680000D03*
D13*
X186750000Y-154600000D03*
X180400000Y-157140000D03*
%TD*%
D12*
%TO.C,keyM1*%
X334210000Y-178730000D03*
D13*
X336750000Y-173650000D03*
X330400000Y-176190000D03*
%TD*%
D12*
%TO.C,up1*%
X500910000Y-178680000D03*
D13*
X503450000Y-173600000D03*
X497100000Y-176140000D03*
%TD*%
D12*
%TO.C,sq_br_close1*%
X415160000Y-140630000D03*
D13*
X417700000Y-135550000D03*
X411350000Y-138090000D03*
%TD*%
D12*
%TO.C,pad_div1*%
X100835000Y-121330000D03*
D13*
X103375000Y-116250000D03*
X97025000Y-118790000D03*
%TD*%
D12*
%TO.C,scroll1*%
X500995000Y-92380000D03*
D13*
X503535000Y-87300000D03*
X497185000Y-89840000D03*
%TD*%
D12*
%TO.C,numK6*%
X291310000Y-121580000D03*
D13*
X293850000Y-116500000D03*
X287500000Y-119040000D03*
%TD*%
D12*
%TO.C,G1*%
X286610000Y-159680000D03*
D13*
X289150000Y-154600000D03*
X282800000Y-157140000D03*
%TD*%
D12*
%TO.C,right_shift1*%
X427110000Y-178730000D03*
D13*
X429650000Y-173650000D03*
X423300000Y-176190000D03*
%TD*%
D12*
%TO.C,pad3*%
X119885000Y-178480000D03*
D13*
X122425000Y-173400000D03*
X116075000Y-175940000D03*
%TD*%
D12*
%TO.C,pad6*%
X119885000Y-159430000D03*
D13*
X122425000Y-154350000D03*
X116075000Y-156890000D03*
%TD*%
D12*
%TO.C,ESC1*%
X177060000Y-92430000D03*
D13*
X179600000Y-87350000D03*
X173250000Y-89890000D03*
%TD*%
D12*
%TO.C,R1*%
X262760000Y-140630000D03*
D13*
X265300000Y-135550000D03*
X258950000Y-138090000D03*
%TD*%
D12*
%TO.C,end1*%
X501045000Y-140430000D03*
D13*
X503585000Y-135350000D03*
X497235000Y-137890000D03*
%TD*%
D12*
%TO.C,slash1*%
X391360000Y-178730000D03*
D13*
X393900000Y-173650000D03*
X387550000Y-176190000D03*
%TD*%
D12*
%TO.C,semicolon1*%
X381860000Y-159680000D03*
D13*
X384400000Y-154600000D03*
X378050000Y-157140000D03*
%TD*%
D12*
%TO.C,numK8*%
X329410000Y-121580000D03*
D13*
X331950000Y-116500000D03*
X325600000Y-119040000D03*
%TD*%
D12*
%TO.C,F10*%
X405560000Y-92230000D03*
D13*
X408100000Y-87150000D03*
X401750000Y-89690000D03*
%TD*%
D12*
%TO.C,right1*%
X519960000Y-197730000D03*
D13*
X522500000Y-192650000D03*
X516150000Y-195190000D03*
%TD*%
D12*
%TO.C,keyC1*%
X258060000Y-178730000D03*
D13*
X260600000Y-173650000D03*
X254250000Y-176190000D03*
%TD*%
D12*
%TO.C,V1*%
X277110000Y-178730000D03*
D13*
X279650000Y-173650000D03*
X273300000Y-176190000D03*
%TD*%
D12*
%TO.C,pad1*%
X81785000Y-178480000D03*
D13*
X84325000Y-173400000D03*
X77975000Y-175940000D03*
%TD*%
D12*
%TO.C,pause1*%
X520095000Y-92380000D03*
D13*
X522635000Y-87300000D03*
X516285000Y-89840000D03*
%TD*%
D12*
%TO.C,tilde1*%
X177060000Y-121580000D03*
D13*
X179600000Y-116500000D03*
X173250000Y-119040000D03*
%TD*%
D12*
%TO.C,pad_enter1*%
X138935000Y-187980000D03*
D13*
X133855000Y-185440000D03*
X136395000Y-191790000D03*
%TD*%
D12*
%TO.C,enter1*%
X431860000Y-159680000D03*
D13*
X434400000Y-154600000D03*
X428050000Y-157140000D03*
%TD*%
D12*
%TO.C,keyY1*%
X300860000Y-140630000D03*
D13*
X303400000Y-135550000D03*
X297050000Y-138090000D03*
%TD*%
D12*
%TO.C,pad5*%
X100835000Y-159430000D03*
D13*
X103375000Y-154350000D03*
X97025000Y-156890000D03*
%TD*%
D12*
%TO.C,pad_mult1*%
X119885000Y-121330000D03*
D13*
X122425000Y-116250000D03*
X116075000Y-118790000D03*
%TD*%
D12*
%TO.C,sq_br_open1*%
X396160000Y-140630000D03*
D13*
X398700000Y-135550000D03*
X392350000Y-138090000D03*
%TD*%
D12*
%TO.C,F2*%
X234060000Y-92380000D03*
D13*
X236600000Y-87300000D03*
X230250000Y-89840000D03*
%TD*%
D14*
%TO.C,SW1*%
X131520000Y-89680000D03*
D15*
X131520000Y-94680000D03*
X131520000Y-92180000D03*
D16*
X139020000Y-86580000D03*
X139020000Y-97780000D03*
D15*
X146020000Y-94680000D03*
X146020000Y-89680000D03*
%TD*%
D12*
%TO.C,comma1*%
X353260000Y-178730000D03*
D13*
X355800000Y-173650000D03*
X349450000Y-176190000D03*
%TD*%
D12*
%TO.C,dot1*%
X372310000Y-178730000D03*
D13*
X374850000Y-173650000D03*
X368500000Y-176190000D03*
%TD*%
D12*
%TO.C,keyE1*%
X243710000Y-140630000D03*
D13*
X246250000Y-135550000D03*
X239900000Y-138090000D03*
%TD*%
D12*
%TO.C,keyH1*%
X305660000Y-159680000D03*
D13*
X308200000Y-154600000D03*
X301850000Y-157140000D03*
%TD*%
D12*
%TO.C,pad7*%
X81785000Y-140380000D03*
D13*
X84325000Y-135300000D03*
X77975000Y-137840000D03*
%TD*%
D11*
%TO.C,H3*%
X510450000Y-87150000D03*
%TD*%
D12*
%TO.C,keyK1*%
X343760000Y-159680000D03*
D13*
X346300000Y-154600000D03*
X339950000Y-157140000D03*
%TD*%
D12*
%TO.C,left1*%
X481910000Y-197730000D03*
D13*
X484450000Y-192650000D03*
X478100000Y-195190000D03*
%TD*%
D12*
%TO.C,F12*%
X443660000Y-92230000D03*
D13*
X446200000Y-87150000D03*
X439850000Y-89690000D03*
%TD*%
D12*
%TO.C,Z1*%
X219960000Y-178730000D03*
D13*
X222500000Y-173650000D03*
X216150000Y-176190000D03*
%TD*%
D12*
%TO.C,F1*%
X215010000Y-92380000D03*
D13*
X217550000Y-87300000D03*
X211200000Y-89840000D03*
%TD*%
D12*
%TO.C,function_right1*%
X417660000Y-197780000D03*
D13*
X420200000Y-192700000D03*
X413850000Y-195240000D03*
%TD*%
D12*
%TO.C,numK2*%
X215160000Y-121580000D03*
D13*
X217700000Y-116500000D03*
X211350000Y-119040000D03*
%TD*%
D11*
%TO.C,H8*%
X382850000Y-197650000D03*
%TD*%
D12*
%TO.C,F5*%
X300720000Y-92260000D03*
D13*
X303260000Y-87180000D03*
X296910000Y-89720000D03*
%TD*%
D12*
%TO.C,I1*%
X338960000Y-140630000D03*
D13*
X341500000Y-135550000D03*
X335150000Y-138090000D03*
%TD*%
D12*
%TO.C,pad_plus1*%
X138935000Y-149930000D03*
D13*
X133855000Y-147390000D03*
X136395000Y-153740000D03*
%TD*%
D11*
%TO.C,H6*%
X349350000Y-102450000D03*
%TD*%
D12*
%TO.C,Q1*%
X205610000Y-140630000D03*
D13*
X208150000Y-135550000D03*
X201800000Y-138090000D03*
%TD*%
D12*
%TO.C,F6*%
X319770000Y-92260000D03*
D13*
X322310000Y-87180000D03*
X315960000Y-89720000D03*
%TD*%
D12*
%TO.C,S1*%
X229460000Y-159680000D03*
D13*
X232000000Y-154600000D03*
X225650000Y-157140000D03*
%TD*%
D12*
%TO.C,delete1*%
X481995000Y-140430000D03*
D13*
X484535000Y-135350000D03*
X478185000Y-137890000D03*
%TD*%
D12*
%TO.C,control_right1*%
X441420000Y-197760000D03*
D13*
X443960000Y-192680000D03*
X437610000Y-195220000D03*
%TD*%
D12*
%TO.C,pad_numlock1*%
X81785000Y-121330000D03*
D13*
X84325000Y-116250000D03*
X77975000Y-118790000D03*
%TD*%
D12*
%TO.C,page_down1*%
X520095000Y-140430000D03*
D13*
X522635000Y-135350000D03*
X516285000Y-137890000D03*
%TD*%
D12*
%TO.C,print1*%
X481995000Y-92380000D03*
D13*
X484535000Y-87300000D03*
X478185000Y-89840000D03*
%TD*%
D12*
%TO.C,numK9*%
X348460000Y-121580000D03*
D13*
X351000000Y-116500000D03*
X344650000Y-119040000D03*
%TD*%
D12*
%TO.C,minus1*%
X386560000Y-121580000D03*
D13*
X389100000Y-116500000D03*
X382750000Y-119040000D03*
%TD*%
D12*
%TO.C,numK1*%
X196110000Y-121580000D03*
D13*
X198650000Y-116500000D03*
X192300000Y-119040000D03*
%TD*%
D12*
%TO.C,pad_comma1*%
X119885000Y-197530000D03*
D13*
X122425000Y-192450000D03*
X116075000Y-194990000D03*
%TD*%
D12*
%TO.C,pad0*%
X91320000Y-197530000D03*
D13*
X93860000Y-192450000D03*
X87510000Y-194990000D03*
%TD*%
D11*
%TO.C,H1*%
X75750000Y-88150000D03*
%TD*%
D12*
%TO.C,alt_right1*%
X370060000Y-197780000D03*
D13*
X372600000Y-192700000D03*
X366250000Y-195240000D03*
%TD*%
D12*
%TO.C,numK4*%
X253210000Y-121580000D03*
D13*
X255750000Y-116500000D03*
X249400000Y-119040000D03*
%TD*%
D17*
%TO.C,D_E92*%
X363860000Y-113530000D03*
X363860000Y-115730000D03*
%TD*%
D18*
%TO.C,C29*%
X100045000Y-182330000D03*
X101595000Y-182330000D03*
%TD*%
%TO.C,C46*%
X500260000Y-96330000D03*
X501810000Y-96330000D03*
%TD*%
D17*
%TO.C,D_E27*%
X220860000Y-132580000D03*
X220860000Y-134780000D03*
%TD*%
%TO.C,D_E20*%
X201760000Y-132480000D03*
X201760000Y-134680000D03*
%TD*%
D18*
%TO.C,C106*%
X295385000Y-182780000D03*
X296935000Y-182780000D03*
%TD*%
%TO.C,C9*%
X455060000Y-178755000D03*
X456610000Y-178755000D03*
%TD*%
D17*
%TO.C,D_E37*%
X249410000Y-113580000D03*
X249410000Y-115780000D03*
%TD*%
D18*
%TO.C,C85*%
X142745000Y-187405000D03*
X144295000Y-187405000D03*
%TD*%
D19*
%TO.C,R8*%
X478800000Y-156725000D03*
X478800000Y-155075000D03*
%TD*%
D18*
%TO.C,C117*%
X195335000Y-125580000D03*
X196885000Y-125580000D03*
%TD*%
%TO.C,C66*%
X395385000Y-144480000D03*
X396935000Y-144480000D03*
%TD*%
D17*
%TO.C,D_E71*%
X382760000Y-113380000D03*
X382760000Y-115580000D03*
%TD*%
%TO.C,D_E95*%
X478060000Y-189630000D03*
X478060000Y-191830000D03*
%TD*%
D18*
%TO.C,C27*%
X214210000Y-96280000D03*
X215760000Y-96280000D03*
%TD*%
D20*
%TO.C,U1*%
X466785000Y-109205000D03*
X466785000Y-106905000D03*
D21*
X473085000Y-106905000D03*
D20*
X466785000Y-104605000D03*
%TD*%
D17*
%TO.C,D_E63*%
X478210000Y-84130000D03*
X478210000Y-86330000D03*
%TD*%
%TO.C,D_E84*%
X435110000Y-132480000D03*
X435110000Y-134680000D03*
%TD*%
D22*
%TO.C,C10*%
X474825000Y-178050000D03*
X473275000Y-178050000D03*
%TD*%
D17*
%TO.C,D_E51*%
X423360000Y-170680000D03*
X423360000Y-172880000D03*
%TD*%
D18*
%TO.C,C59*%
X318960000Y-96305000D03*
X320510000Y-96305000D03*
%TD*%
D19*
%TO.C,R5*%
X486010000Y-158555000D03*
X486010000Y-156905000D03*
%TD*%
D17*
%TO.C,D_E59*%
X382660000Y-84180000D03*
X382660000Y-86380000D03*
%TD*%
D18*
%TO.C,C32*%
X519310000Y-96255000D03*
X520860000Y-96255000D03*
%TD*%
%TO.C,C78*%
X333435000Y-182630000D03*
X334985000Y-182630000D03*
%TD*%
%TO.C,C121*%
X304860000Y-163580000D03*
X306410000Y-163580000D03*
%TD*%
%TO.C,C56*%
X119070000Y-125105000D03*
X120620000Y-125105000D03*
%TD*%
%TO.C,C98*%
X84645000Y-91505000D03*
X86195000Y-91505000D03*
%TD*%
D17*
%TO.C,D_E107*%
X97070000Y-151180000D03*
X97070000Y-153380000D03*
%TD*%
D18*
%TO.C,C6*%
X455175000Y-174050000D03*
X456725000Y-174050000D03*
%TD*%
%TO.C,C25*%
X393060000Y-201630000D03*
X394610000Y-201630000D03*
%TD*%
%TO.C,C107*%
X323860000Y-163605000D03*
X325410000Y-163605000D03*
%TD*%
%TO.C,C58*%
X100070000Y-144205000D03*
X101620000Y-144205000D03*
%TD*%
%TO.C,C111*%
X500135000Y-182605000D03*
X501685000Y-182605000D03*
%TD*%
%TO.C,C124*%
X416860000Y-201630000D03*
X418410000Y-201630000D03*
%TD*%
D17*
%TO.C,D_E111*%
X97070000Y-170380000D03*
X97070000Y-172580000D03*
%TD*%
%TO.C,D_E42*%
X389960000Y-189630000D03*
X389960000Y-191830000D03*
%TD*%
D18*
%TO.C,C54*%
X500310000Y-125480000D03*
X501860000Y-125480000D03*
%TD*%
%TO.C,C39*%
X297860000Y-201730000D03*
X299410000Y-201730000D03*
%TD*%
D23*
%TO.C,U4*%
X467910000Y-174630000D03*
X467910000Y-175030000D03*
X467910000Y-175430000D03*
X467910000Y-175830000D03*
X467910000Y-176230000D03*
X467910000Y-176630000D03*
X467910000Y-177030000D03*
X467910000Y-177430000D03*
X467910000Y-177830000D03*
X467910000Y-178230000D03*
X467910000Y-178630000D03*
X467910000Y-179030000D03*
X467910000Y-179430000D03*
X467910000Y-179830000D03*
D24*
X467072500Y-180667500D03*
X466672500Y-180667500D03*
X466272500Y-180667500D03*
X465872500Y-180667500D03*
X465472500Y-180667500D03*
X465072500Y-180667500D03*
X464672500Y-180667500D03*
X464272500Y-180667500D03*
X463872500Y-180667500D03*
X463472500Y-180667500D03*
X463072500Y-180667500D03*
X462672500Y-180667500D03*
X462272500Y-180667500D03*
X461872500Y-180667500D03*
D23*
X461035000Y-179830000D03*
X461035000Y-179430000D03*
X461035000Y-179030000D03*
X461035000Y-178630000D03*
X461035000Y-178230000D03*
X461035000Y-177830000D03*
X461035000Y-177430000D03*
X461035000Y-177030000D03*
X461035000Y-176630000D03*
X461035000Y-176230000D03*
X461035000Y-175830000D03*
X461035000Y-175430000D03*
X461035000Y-175030000D03*
X461035000Y-174630000D03*
D24*
X461872500Y-173792500D03*
X462272500Y-173792500D03*
X462672500Y-173792500D03*
X463072500Y-173792500D03*
X463472500Y-173792500D03*
X463872500Y-173792500D03*
X464272500Y-173792500D03*
X464672500Y-173792500D03*
X465072500Y-173792500D03*
X465472500Y-173792500D03*
X465872500Y-173792500D03*
X466272500Y-173792500D03*
X466672500Y-173792500D03*
X467072500Y-173792500D03*
D25*
X464472500Y-177230000D03*
%TD*%
D18*
%TO.C,C71*%
X119045000Y-163455000D03*
X120595000Y-163455000D03*
%TD*%
D26*
%TO.C,D_E113*%
X131020000Y-191930000D03*
X133220000Y-191930000D03*
%TD*%
D18*
%TO.C,C23*%
X300060000Y-144555000D03*
X301610000Y-144555000D03*
%TD*%
D17*
%TO.C,D_E33*%
X244710000Y-151630000D03*
X244710000Y-153830000D03*
%TD*%
D18*
%TO.C,C74*%
X442910000Y-96305000D03*
X444460000Y-96305000D03*
%TD*%
D17*
%TO.C,D_E75*%
X287560000Y-113530000D03*
X287560000Y-115730000D03*
%TD*%
%TO.C,D_E101*%
X116020000Y-113280000D03*
X116020000Y-115480000D03*
%TD*%
D18*
%TO.C,C97*%
X481085000Y-201730000D03*
X482635000Y-201730000D03*
%TD*%
%TO.C,C99*%
X100020000Y-91530000D03*
X101570000Y-91530000D03*
%TD*%
D17*
%TO.C,D_E48*%
X349410000Y-170630000D03*
X349410000Y-172830000D03*
%TD*%
D18*
%TO.C,C103*%
X214410000Y-125555000D03*
X215960000Y-125555000D03*
%TD*%
D17*
%TO.C,D_E26*%
X225610000Y-151580000D03*
X225610000Y-153780000D03*
%TD*%
%TO.C,D_E18*%
X211210000Y-84480000D03*
X211210000Y-86680000D03*
%TD*%
D18*
%TO.C,C83*%
X500160000Y-201705000D03*
X501710000Y-201705000D03*
%TD*%
%TO.C,C101*%
X252335000Y-96180000D03*
X253885000Y-96180000D03*
%TD*%
%TO.C,C65*%
X242910000Y-144555000D03*
X244460000Y-144555000D03*
%TD*%
%TO.C,C33*%
X309585000Y-125455000D03*
X311135000Y-125455000D03*
%TD*%
D17*
%TO.C,D_E104*%
X97020000Y-132330000D03*
X97020000Y-134530000D03*
%TD*%
%TO.C,D_E21*%
X206660000Y-151680000D03*
X206660000Y-153880000D03*
%TD*%
%TO.C,D_E41*%
X366360000Y-189880000D03*
X366360000Y-192080000D03*
%TD*%
%TO.C,D_E83*%
X411260000Y-132580000D03*
X411260000Y-134780000D03*
%TD*%
D18*
%TO.C,C82*%
X381110000Y-163580000D03*
X382660000Y-163580000D03*
%TD*%
D17*
%TO.C,D_E69*%
X430310000Y-113530000D03*
X430310000Y-115730000D03*
%TD*%
D18*
%TO.C,C57*%
X81070000Y-163305000D03*
X82620000Y-163305000D03*
%TD*%
D17*
%TO.C,D_E52*%
X282760000Y-151630000D03*
X282760000Y-153830000D03*
%TD*%
D18*
%TO.C,C90*%
X204860000Y-144505000D03*
X206410000Y-144505000D03*
%TD*%
D17*
%TO.C,D_E72*%
X339960000Y-151580000D03*
X339960000Y-153780000D03*
%TD*%
D18*
%TO.C,C112*%
X115060000Y-91580000D03*
X116610000Y-91580000D03*
%TD*%
D17*
%TO.C,D_E89*%
X397110000Y-151880000D03*
X397110000Y-154080000D03*
%TD*%
D18*
%TO.C,C61*%
X271535000Y-125555000D03*
X273085000Y-125555000D03*
%TD*%
D17*
%TO.C,D_E22*%
X216260000Y-170330000D03*
X216260000Y-172530000D03*
%TD*%
D27*
%TO.C,SW_A13*%
X482260000Y-161155000D03*
X482260000Y-167155000D03*
X486010000Y-161155000D03*
X486010000Y-167155000D03*
%TD*%
D18*
%TO.C,C53*%
X369285000Y-201605000D03*
X370835000Y-201605000D03*
%TD*%
D17*
%TO.C,D_E46*%
X311360000Y-170580000D03*
X311360000Y-172780000D03*
%TD*%
D28*
%TO.C,C5*%
X464085000Y-168530000D03*
X464085000Y-166980000D03*
%TD*%
D18*
%TO.C,C31*%
X357060000Y-96305000D03*
X358610000Y-96305000D03*
%TD*%
%TO.C,C64*%
X352535000Y-182705000D03*
X354085000Y-182705000D03*
%TD*%
D17*
%TO.C,D_E76*%
X306710000Y-113530000D03*
X306710000Y-115730000D03*
%TD*%
D18*
%TO.C,C122*%
X319135000Y-144555000D03*
X320685000Y-144555000D03*
%TD*%
D29*
%TO.C,C7*%
X463765000Y-185720000D03*
X463765000Y-187270000D03*
%TD*%
D18*
%TO.C,C51*%
X261960000Y-144605000D03*
X263510000Y-144605000D03*
%TD*%
%TO.C,C115*%
X233285000Y-96280000D03*
X234835000Y-96280000D03*
%TD*%
%TO.C,C126*%
X519260000Y-144355000D03*
X520810000Y-144355000D03*
%TD*%
%TO.C,C34*%
X219210000Y-182680000D03*
X220760000Y-182680000D03*
%TD*%
%TO.C,C72*%
X119095000Y-182530000D03*
X120645000Y-182530000D03*
%TD*%
%TO.C,C108*%
X338160000Y-144430000D03*
X339710000Y-144430000D03*
%TD*%
D17*
%TO.C,D_E73*%
X344610000Y-113380000D03*
X344610000Y-115580000D03*
%TD*%
%TO.C,D_E110*%
X116070000Y-170780000D03*
X116070000Y-172980000D03*
%TD*%
%TO.C,D_E61*%
X420860000Y-84180000D03*
X420860000Y-86380000D03*
%TD*%
D18*
%TO.C,C102*%
X404785000Y-96355000D03*
X406335000Y-96355000D03*
%TD*%
D17*
%TO.C,D_E39*%
X263660000Y-151630000D03*
X263660000Y-153830000D03*
%TD*%
D18*
%TO.C,C77*%
X257310000Y-182755000D03*
X258860000Y-182755000D03*
%TD*%
D17*
%TO.C,D_E36*%
X268360000Y-84380000D03*
X268360000Y-86580000D03*
%TD*%
D18*
%TO.C,C116*%
X385710000Y-96380000D03*
X387260000Y-96380000D03*
%TD*%
%TO.C,C69*%
X519185000Y-201630000D03*
X520735000Y-201630000D03*
%TD*%
%TO.C,C44*%
X100070000Y-163180000D03*
X101620000Y-163180000D03*
%TD*%
D22*
%TO.C,C1*%
X464560000Y-109255000D03*
X463010000Y-109255000D03*
%TD*%
D18*
%TO.C,C86*%
X142545000Y-149580000D03*
X144095000Y-149580000D03*
%TD*%
D30*
%TO.C,U3*%
X476110000Y-156825000D03*
X476110000Y-158095000D03*
X476110000Y-159365000D03*
X476110000Y-160635000D03*
X468910000Y-160635000D03*
X468910000Y-159365000D03*
X468910000Y-158095000D03*
X468910000Y-156825000D03*
%TD*%
D17*
%TO.C,D_E97*%
X497110000Y-189680000D03*
X497110000Y-191880000D03*
%TD*%
D18*
%TO.C,C94*%
X357260000Y-144455000D03*
X358810000Y-144455000D03*
%TD*%
D31*
%TO.C,R6*%
X457300000Y-162525000D03*
X457300000Y-164175000D03*
%TD*%
D17*
%TO.C,D_E108*%
X116170000Y-151280000D03*
X116170000Y-153480000D03*
%TD*%
D18*
%TO.C,C104*%
X180885000Y-144505000D03*
X182435000Y-144505000D03*
%TD*%
%TO.C,C87*%
X271385000Y-96255000D03*
X272935000Y-96255000D03*
%TD*%
D17*
%TO.C,D_E85*%
X478160000Y-132230000D03*
X478160000Y-134430000D03*
%TD*%
D18*
%TO.C,C79*%
X223860000Y-144580000D03*
X225410000Y-144580000D03*
%TD*%
D26*
%TO.C,D_E109*%
X131020000Y-153830000D03*
X133220000Y-153830000D03*
%TD*%
D17*
%TO.C,D_E19*%
X192210000Y-113530000D03*
X192210000Y-115730000D03*
%TD*%
%TO.C,D_E17*%
X175760000Y-189780000D03*
X175760000Y-191980000D03*
%TD*%
%TO.C,D_E43*%
X413860000Y-189630000D03*
X413860000Y-191830000D03*
%TD*%
D18*
%TO.C,C18*%
X176285000Y-125605000D03*
X177835000Y-125605000D03*
%TD*%
D17*
%TO.C,D_E80*%
X354160000Y-132630000D03*
X354160000Y-134830000D03*
%TD*%
D18*
%TO.C,C55*%
X80895000Y-125180000D03*
X82445000Y-125180000D03*
%TD*%
%TO.C,C119*%
X178710000Y-201555000D03*
X180260000Y-201555000D03*
%TD*%
%TO.C,C42*%
X138095000Y-125180000D03*
X139645000Y-125180000D03*
%TD*%
D17*
%TO.C,D_E28*%
X211360000Y-113430000D03*
X211360000Y-115630000D03*
%TD*%
D18*
%TO.C,C89*%
X233335000Y-125555000D03*
X234885000Y-125555000D03*
%TD*%
D22*
%TO.C,C12*%
X479175000Y-174250000D03*
X477625000Y-174250000D03*
%TD*%
D29*
%TO.C,C14*%
X465550000Y-166975000D03*
X465550000Y-168525000D03*
%TD*%
D18*
%TO.C,C96*%
X362060000Y-163630000D03*
X363610000Y-163630000D03*
%TD*%
D31*
%TO.C,R3*%
X369950000Y-94005000D03*
X369950000Y-95655000D03*
%TD*%
D17*
%TO.C,D_E94*%
X301910000Y-151430000D03*
X301910000Y-153630000D03*
%TD*%
D32*
%TO.C,J2*%
X460610001Y-198852421D03*
X460610000Y-196820421D03*
X465690001Y-197836421D03*
D33*
X464148196Y-198244913D03*
D34*
X464605177Y-197195309D03*
D35*
X463093018Y-198816751D03*
D36*
X462512775Y-196424364D03*
D37*
X461953379Y-198598295D03*
D38*
X461824556Y-197008105D03*
D39*
X463385695Y-196195427D03*
%TD*%
D17*
%TO.C,D_E90*%
X377960000Y-151680000D03*
X377960000Y-153880000D03*
%TD*%
%TO.C,D_E67*%
X497260000Y-113180000D03*
X497260000Y-115380000D03*
%TD*%
D18*
%TO.C,C47*%
X290585000Y-125580000D03*
X292135000Y-125580000D03*
%TD*%
D17*
%TO.C,D_E81*%
X373260000Y-132580000D03*
X373260000Y-134780000D03*
%TD*%
D18*
%TO.C,C60*%
X481260000Y-96280000D03*
X482810000Y-96280000D03*
%TD*%
%TO.C,C48*%
X188210000Y-182630000D03*
X189760000Y-182630000D03*
%TD*%
D17*
%TO.C,D_E54*%
X268410000Y-113430000D03*
X268410000Y-115630000D03*
%TD*%
%TO.C,D_E91*%
X359160000Y-151780000D03*
X359160000Y-153980000D03*
%TD*%
%TO.C,D_E102*%
X135120000Y-113330000D03*
X135120000Y-115530000D03*
%TD*%
D18*
%TO.C,C38*%
X366760000Y-125530000D03*
X368310000Y-125530000D03*
%TD*%
D28*
%TO.C,C11*%
X465250000Y-187275000D03*
X465250000Y-185725000D03*
%TD*%
D17*
%TO.C,D_E44*%
X437610000Y-189630000D03*
X437610000Y-191830000D03*
%TD*%
%TO.C,D_E29*%
X230260000Y-84230000D03*
X230260000Y-86430000D03*
%TD*%
D18*
%TO.C,C49*%
X247760000Y-163555000D03*
X249310000Y-163555000D03*
%TD*%
D17*
%TO.C,D_E50*%
X387310000Y-170530000D03*
X387310000Y-172730000D03*
%TD*%
%TO.C,D_E24*%
X223460000Y-189780000D03*
X223460000Y-191980000D03*
%TD*%
%TO.C,D_E23*%
X199560000Y-189480000D03*
X199560000Y-191680000D03*
%TD*%
D31*
%TO.C,R2*%
X458800000Y-162525000D03*
X458800000Y-164175000D03*
%TD*%
D17*
%TO.C,D_E79*%
X335060000Y-132480000D03*
X335060000Y-134680000D03*
%TD*%
D27*
%TO.C,SW_A12*%
X486075000Y-178450000D03*
X486075000Y-172450000D03*
X482325000Y-178450000D03*
X482325000Y-172450000D03*
%TD*%
D18*
%TO.C,C88*%
X423835000Y-96305000D03*
X425385000Y-96305000D03*
%TD*%
D40*
%TO.C,J1*%
X369660000Y-87500000D03*
X375440000Y-87500000D03*
D41*
X369300000Y-88945000D03*
X370100000Y-88945000D03*
D42*
X371300000Y-88945000D03*
X372300000Y-88945000D03*
X372800000Y-88945000D03*
X373800000Y-88945000D03*
D41*
X375000000Y-88945000D03*
X375800000Y-88945000D03*
X375800000Y-88945000D03*
X375000000Y-88945000D03*
D42*
X374300000Y-88945000D03*
X373300000Y-88945000D03*
X371800000Y-88945000D03*
X370800000Y-88945000D03*
D41*
X370100000Y-88945000D03*
X369300000Y-88945000D03*
D43*
X368230000Y-83850000D03*
D44*
X368230000Y-88030000D03*
D43*
X376870000Y-83850000D03*
D44*
X376870000Y-88030000D03*
%TD*%
D18*
%TO.C,C125*%
X500235000Y-144330000D03*
X501785000Y-144330000D03*
%TD*%
%TO.C,C92*%
X314385000Y-182655000D03*
X315935000Y-182655000D03*
%TD*%
%TO.C,C67*%
X426335000Y-182680000D03*
X427885000Y-182680000D03*
%TD*%
%TO.C,C62*%
X209635000Y-163530000D03*
X211185000Y-163530000D03*
%TD*%
D17*
%TO.C,D_E70*%
X401910000Y-113530000D03*
X401910000Y-115730000D03*
%TD*%
%TO.C,D_E105*%
X77920000Y-132280000D03*
X77920000Y-134480000D03*
%TD*%
D18*
%TO.C,C105*%
X202635000Y-201755000D03*
X204185000Y-201755000D03*
%TD*%
D17*
%TO.C,D_E56*%
X315960000Y-84130000D03*
X315960000Y-86330000D03*
%TD*%
D18*
%TO.C,C50*%
X371510000Y-182655000D03*
X373060000Y-182655000D03*
%TD*%
%TO.C,C81*%
X431110000Y-163555000D03*
X432660000Y-163555000D03*
%TD*%
%TO.C,C93*%
X342960000Y-163630000D03*
X344510000Y-163630000D03*
%TD*%
%TO.C,C52*%
X414360000Y-144405000D03*
X415910000Y-144405000D03*
%TD*%
D17*
%TO.C,D_E68*%
X478210000Y-113230000D03*
X478210000Y-115430000D03*
%TD*%
D18*
%TO.C,C109*%
X433435000Y-125555000D03*
X434985000Y-125555000D03*
%TD*%
%TO.C,C24*%
X385760000Y-125530000D03*
X387310000Y-125530000D03*
%TD*%
%TO.C,C110*%
X440660000Y-201655000D03*
X442210000Y-201655000D03*
%TD*%
%TO.C,C28*%
X80920000Y-144305000D03*
X82470000Y-144305000D03*
%TD*%
D17*
%TO.C,D_E34*%
X254310000Y-170880000D03*
X254310000Y-173080000D03*
%TD*%
%TO.C,D_E106*%
X77970000Y-151280000D03*
X77970000Y-153480000D03*
%TD*%
D18*
%TO.C,C22*%
X400110000Y-163580000D03*
X401660000Y-163580000D03*
%TD*%
D17*
%TO.C,D_E88*%
X428160000Y-151580000D03*
X428160000Y-153780000D03*
%TD*%
%TO.C,D_E77*%
X297060000Y-132630000D03*
X297060000Y-134830000D03*
%TD*%
%TO.C,D_E64*%
X497160000Y-84230000D03*
X497160000Y-86430000D03*
%TD*%
D18*
%TO.C,C20*%
X238185000Y-182730000D03*
X239735000Y-182730000D03*
%TD*%
%TO.C,C45*%
X338035000Y-96305000D03*
X339585000Y-96305000D03*
%TD*%
%TO.C,C3*%
X176260000Y-96355000D03*
X177810000Y-96355000D03*
%TD*%
D17*
%TO.C,D_E40*%
X273310000Y-170630000D03*
X273310000Y-172830000D03*
%TD*%
D18*
%TO.C,C123*%
X404785000Y-125580000D03*
X406335000Y-125580000D03*
%TD*%
D17*
%TO.C,D_E30*%
X249360000Y-84280000D03*
X249360000Y-86480000D03*
%TD*%
%TO.C,D_E62*%
X439610000Y-84080000D03*
X439610000Y-86280000D03*
%TD*%
D18*
%TO.C,C19*%
X328585000Y-125555000D03*
X330135000Y-125555000D03*
%TD*%
D28*
%TO.C,C4*%
X468500000Y-168525000D03*
X468500000Y-166975000D03*
%TD*%
D18*
%TO.C,C68*%
X481210000Y-125455000D03*
X482760000Y-125455000D03*
%TD*%
%TO.C,C35*%
X266785000Y-163555000D03*
X268335000Y-163555000D03*
%TD*%
%TO.C,C118*%
X347710000Y-125455000D03*
X349260000Y-125455000D03*
%TD*%
%TO.C,C21*%
X285810000Y-163580000D03*
X287360000Y-163580000D03*
%TD*%
%TO.C,C43*%
X81020000Y-182480000D03*
X82570000Y-182480000D03*
%TD*%
D17*
%TO.C,D_E87*%
X516260000Y-132480000D03*
X516260000Y-134680000D03*
%TD*%
D18*
%TO.C,C95*%
X438235000Y-144555000D03*
X439785000Y-144555000D03*
%TD*%
D17*
%TO.C,D_E58*%
X354060000Y-84230000D03*
X354060000Y-86430000D03*
%TD*%
D18*
%TO.C,C91*%
X226435000Y-201605000D03*
X227985000Y-201605000D03*
%TD*%
D17*
%TO.C,D_E55*%
X296960000Y-84230000D03*
X296960000Y-86430000D03*
%TD*%
D18*
%TO.C,C76*%
X183435000Y-163555000D03*
X184985000Y-163555000D03*
%TD*%
%TO.C,C63*%
X228760000Y-163605000D03*
X230310000Y-163605000D03*
%TD*%
D17*
%TO.C,D_E78*%
X316110000Y-132530000D03*
X316110000Y-134730000D03*
%TD*%
%TO.C,D_E96*%
X497160000Y-170830000D03*
X497160000Y-173030000D03*
%TD*%
%TO.C,D_E114*%
X87470000Y-189480000D03*
X87470000Y-191680000D03*
%TD*%
D45*
%TO.C,U2*%
X374022500Y-101155000D03*
X374022500Y-102105000D03*
X374022500Y-103055000D03*
X371747500Y-103055000D03*
X371747500Y-102105000D03*
X371747500Y-101155000D03*
%TD*%
D28*
%TO.C,C2*%
X462110000Y-104205000D03*
X462110000Y-102655000D03*
%TD*%
D17*
%TO.C,D_E31*%
X230350000Y-112600000D03*
X230350000Y-114800000D03*
%TD*%
%TO.C,D_E16*%
X185160000Y-170680000D03*
X185160000Y-172880000D03*
%TD*%
%TO.C,D_E60*%
X401710000Y-84130000D03*
X401710000Y-86330000D03*
%TD*%
D18*
%TO.C,C80*%
X376335000Y-144480000D03*
X377885000Y-144480000D03*
%TD*%
D17*
%TO.C,D_E53*%
X277860000Y-132480000D03*
X277860000Y-134680000D03*
%TD*%
%TO.C,D_E100*%
X97070000Y-113280000D03*
X97070000Y-115480000D03*
%TD*%
%TO.C,D_E35*%
X294860000Y-189680000D03*
X294860000Y-191880000D03*
%TD*%
D18*
%TO.C,C70*%
X119095000Y-144280000D03*
X120645000Y-144280000D03*
%TD*%
%TO.C,C36*%
X390610000Y-182705000D03*
X392160000Y-182705000D03*
%TD*%
D17*
%TO.C,D_E115*%
X116070000Y-189630000D03*
X116070000Y-191830000D03*
%TD*%
%TO.C,D_E66*%
X516310000Y-113230000D03*
X516310000Y-115430000D03*
%TD*%
D18*
%TO.C,C30*%
X90545000Y-201380000D03*
X92095000Y-201380000D03*
%TD*%
D22*
%TO.C,C8*%
X465525000Y-156800000D03*
X463975000Y-156800000D03*
%TD*%
D18*
%TO.C,C26*%
X481210000Y-144430000D03*
X482760000Y-144430000D03*
%TD*%
D17*
%TO.C,D_E14*%
X178010000Y-132530000D03*
X178010000Y-134730000D03*
%TD*%
%TO.C,D_E25*%
X235260000Y-170680000D03*
X235260000Y-172880000D03*
%TD*%
%TO.C,D_E93*%
X320860000Y-151280000D03*
X320860000Y-153480000D03*
%TD*%
%TO.C,D_E45*%
X292360000Y-170630000D03*
X292360000Y-172830000D03*
%TD*%
D29*
%TO.C,C13*%
X467050000Y-166975000D03*
X467050000Y-168525000D03*
%TD*%
D18*
%TO.C,C73*%
X299935000Y-96330000D03*
X301485000Y-96330000D03*
%TD*%
D17*
%TO.C,D_E15*%
X180360000Y-151580000D03*
X180360000Y-153780000D03*
%TD*%
D22*
%TO.C,C15*%
X474825000Y-174650000D03*
X473275000Y-174650000D03*
%TD*%
D17*
%TO.C,D_E99*%
X77870000Y-113230000D03*
X77870000Y-115430000D03*
%TD*%
D29*
%TO.C,C16*%
X460960000Y-166980000D03*
X460960000Y-168530000D03*
%TD*%
D17*
%TO.C,D_E12*%
X173260000Y-84480000D03*
X173260000Y-86680000D03*
%TD*%
%TO.C,D_E49*%
X368710000Y-170530000D03*
X368710000Y-172730000D03*
%TD*%
%TO.C,D_E103*%
X116170000Y-132330000D03*
X116170000Y-134530000D03*
%TD*%
%TO.C,D_E112*%
X77920000Y-170480000D03*
X77920000Y-172680000D03*
%TD*%
D18*
%TO.C,C120*%
X276335000Y-182705000D03*
X277885000Y-182705000D03*
%TD*%
D17*
%TO.C,D_E32*%
X239910000Y-132580000D03*
X239910000Y-134780000D03*
%TD*%
D18*
%TO.C,C37*%
X281010000Y-144530000D03*
X282560000Y-144530000D03*
%TD*%
D29*
%TO.C,C17*%
X462485000Y-166980000D03*
X462485000Y-168530000D03*
%TD*%
D17*
%TO.C,D_E74*%
X325560000Y-113630000D03*
X325560000Y-115830000D03*
%TD*%
D18*
%TO.C,C41*%
X100020000Y-125130000D03*
X101570000Y-125130000D03*
%TD*%
D17*
%TO.C,D_E13*%
X173260000Y-113580000D03*
X173260000Y-115780000D03*
%TD*%
D31*
%TO.C,R4*%
X374550000Y-94025000D03*
X374550000Y-95675000D03*
%TD*%
D18*
%TO.C,C75*%
X252485000Y-125530000D03*
X254035000Y-125530000D03*
%TD*%
D17*
%TO.C,D_E57*%
X335010000Y-84080000D03*
X335010000Y-86280000D03*
%TD*%
%TO.C,D_E38*%
X259060000Y-132930000D03*
X259060000Y-135130000D03*
%TD*%
D46*
%TO.C,R7*%
X477525000Y-176050000D03*
X479175000Y-176050000D03*
%TD*%
D18*
%TO.C,C84*%
X119095000Y-201355000D03*
X120645000Y-201355000D03*
%TD*%
D17*
%TO.C,D_E65*%
X516260000Y-84030000D03*
X516260000Y-86230000D03*
%TD*%
%TO.C,D_E47*%
X330410000Y-170580000D03*
X330410000Y-172780000D03*
%TD*%
%TO.C,D_E98*%
X516160000Y-189630000D03*
X516160000Y-191830000D03*
%TD*%
%TO.C,D_E82*%
X392360000Y-132430000D03*
X392360000Y-134630000D03*
%TD*%
%TO.C,D_E86*%
X497210000Y-132330000D03*
X497210000Y-134530000D03*
%TD*%
D18*
%TO.C,C40*%
X519335000Y-125580000D03*
X520885000Y-125580000D03*
%TD*%
M02*
