%TF.GenerationSoftware,KiCad,Pcbnew,8.0.1-8.0.1-1~ubuntu22.04.1*%
%TF.CreationDate,2024-03-21T20:32:24+01:00*%
%TF.ProjectId,keyboard_pcb,6b657962-6f61-4726-945f-7063622e6b69,rev?*%
%TF.SameCoordinates,Original*%
%TF.FileFunction,Soldermask,Top*%
%TF.FilePolarity,Negative*%
%FSLAX46Y46*%
G04 Gerber Fmt 4.6, Leading zero omitted, Abs format (unit mm)*
G04 Created by KiCad (PCBNEW 8.0.1-8.0.1-1~ubuntu22.04.1) date 2024-03-21 20:32:24*
%MOMM*%
%LPD*%
G01*
G04 APERTURE LIST*
%ADD10C,3.200000*%
%ADD11C,4.000000*%
%ADD12C,2.200000*%
%ADD13R,0.700000X0.700000*%
%ADD14R,2.000000X2.000000*%
%ADD15C,2.000000*%
%ADD16R,3.200000X2.000000*%
%ADD17C,0.990600*%
%ADD18C,0.650000*%
%ADD19O,1.000000X1.600000*%
%ADD20O,1.000000X2.100000*%
G04 APERTURE END LIST*
D10*
%TO.C,H5*%
X510100000Y-198850000D03*
%TD*%
D11*
%TO.C,pad4*%
X81785000Y-159430000D03*
D12*
X84325000Y-154350000D03*
X77975000Y-156890000D03*
%TD*%
D13*
%TO.C,D97*%
X380945000Y-163580000D03*
X380945000Y-164680000D03*
X382775000Y-164680000D03*
X382775000Y-163580000D03*
%TD*%
%TO.C,D101*%
X202495000Y-201680000D03*
X202495000Y-202780000D03*
X204325000Y-202780000D03*
X204325000Y-201680000D03*
%TD*%
%TO.C,D78*%
X376195000Y-144530000D03*
X376195000Y-145630000D03*
X378025000Y-145630000D03*
X378025000Y-144530000D03*
%TD*%
%TO.C,D26*%
X323695000Y-163580000D03*
X323695000Y-164680000D03*
X325525000Y-164680000D03*
X325525000Y-163580000D03*
%TD*%
D11*
%TO.C,B1*%
X296160000Y-178730000D03*
D12*
X298700000Y-173650000D03*
X292350000Y-176190000D03*
%TD*%
D10*
%TO.C,H4*%
X191450000Y-197700000D03*
%TD*%
D11*
%TO.C,tab1*%
X181810000Y-140630000D03*
D12*
X184350000Y-135550000D03*
X178000000Y-138090000D03*
%TD*%
D13*
%TO.C,D87*%
X395245000Y-144530000D03*
X395245000Y-145630000D03*
X397075000Y-145630000D03*
X397075000Y-144530000D03*
%TD*%
%TO.C,D68*%
X118955000Y-201430000D03*
X118955000Y-202530000D03*
X120785000Y-202530000D03*
X120785000Y-201430000D03*
%TD*%
D11*
%TO.C,numK7*%
X310360000Y-121580000D03*
D12*
X312900000Y-116500000D03*
X306550000Y-119040000D03*
%TD*%
D11*
%TO.C,T1*%
X281810000Y-140630000D03*
D12*
X284350000Y-135550000D03*
X278000000Y-138090000D03*
%TD*%
D11*
%TO.C,space1*%
X298610000Y-197780000D03*
D12*
X301150000Y-192700000D03*
X294800000Y-195240000D03*
%TD*%
D13*
%TO.C,D104*%
X369145000Y-201680000D03*
X369145000Y-202780000D03*
X370975000Y-202780000D03*
X370975000Y-201680000D03*
%TD*%
%TO.C,D32*%
X80855000Y-182480000D03*
X80855000Y-183580000D03*
X82685000Y-183580000D03*
X82685000Y-182480000D03*
%TD*%
D11*
%TO.C,F8*%
X357870000Y-92260000D03*
D12*
X360410000Y-87180000D03*
X354060000Y-89720000D03*
%TD*%
D13*
%TO.C,D106*%
X416745000Y-201680000D03*
X416745000Y-202780000D03*
X418575000Y-202780000D03*
X418575000Y-201680000D03*
%TD*%
%TO.C,D3*%
X433295000Y-125580000D03*
X433295000Y-126680000D03*
X435125000Y-126680000D03*
X435125000Y-125580000D03*
%TD*%
D11*
%TO.C,F3*%
X253110000Y-92380000D03*
D12*
X255650000Y-87300000D03*
X249300000Y-89840000D03*
%TD*%
D13*
%TO.C,D7*%
X438045000Y-144530000D03*
X438045000Y-145630000D03*
X439875000Y-145630000D03*
X439875000Y-144530000D03*
%TD*%
D11*
%TO.C,plus1*%
X405610000Y-121580000D03*
D12*
X408150000Y-116500000D03*
X401800000Y-119040000D03*
%TD*%
D13*
%TO.C,D79*%
X430945000Y-163580000D03*
X430945000Y-164680000D03*
X432775000Y-164680000D03*
X432775000Y-163580000D03*
%TD*%
D11*
%TO.C,super_right1*%
X393860000Y-197780000D03*
D12*
X396400000Y-192700000D03*
X390050000Y-195240000D03*
%TD*%
D11*
%TO.C,pad9*%
X119885000Y-140380000D03*
D12*
X122425000Y-135300000D03*
X116075000Y-137840000D03*
%TD*%
D11*
%TO.C,keyN1*%
X315210000Y-178730000D03*
D12*
X317750000Y-173650000D03*
X311400000Y-176190000D03*
%TD*%
D13*
%TO.C,D93*%
X233245000Y-125580000D03*
X233245000Y-126680000D03*
X235075000Y-126680000D03*
X235075000Y-125580000D03*
%TD*%
%TO.C,D48*%
X328495000Y-125580000D03*
X328495000Y-126680000D03*
X330325000Y-126680000D03*
X330325000Y-125580000D03*
%TD*%
D11*
%TO.C,page_up1*%
X520095000Y-121380000D03*
D12*
X522635000Y-116300000D03*
X516285000Y-118840000D03*
%TD*%
D11*
%TO.C,keyP1*%
X377110000Y-140630000D03*
D12*
X379650000Y-135550000D03*
X373300000Y-138090000D03*
%TD*%
D13*
%TO.C,D56*%
X500095000Y-96330000D03*
X500095000Y-97430000D03*
X501925000Y-97430000D03*
X501925000Y-96330000D03*
%TD*%
%TO.C,D5*%
X118955000Y-163380000D03*
X118955000Y-164480000D03*
X120785000Y-164480000D03*
X120785000Y-163380000D03*
%TD*%
D11*
%TO.C,numK3*%
X234160000Y-121580000D03*
D12*
X236700000Y-116500000D03*
X230350000Y-119040000D03*
%TD*%
D11*
%TO.C,numK10_zero1*%
X367510000Y-121580000D03*
D12*
X370050000Y-116500000D03*
X363700000Y-119040000D03*
%TD*%
D11*
%TO.C,backspace1*%
X434185000Y-121580000D03*
D12*
X436725000Y-116500000D03*
X430375000Y-119040000D03*
%TD*%
D11*
%TO.C,home1*%
X501045000Y-121380000D03*
D12*
X503585000Y-116300000D03*
X497235000Y-118840000D03*
%TD*%
D11*
%TO.C,pad_minus1*%
X138935000Y-121330000D03*
D12*
X141475000Y-116250000D03*
X135125000Y-118790000D03*
%TD*%
D11*
%TO.C,shift1*%
X188960000Y-178730000D03*
D12*
X191500000Y-173650000D03*
X185150000Y-176190000D03*
%TD*%
D11*
%TO.C,numK5*%
X272260000Y-121580000D03*
D12*
X274800000Y-116500000D03*
X268450000Y-119040000D03*
%TD*%
D13*
%TO.C,D92*%
X481095000Y-125580000D03*
X481095000Y-126680000D03*
X482925000Y-126680000D03*
X482925000Y-125580000D03*
%TD*%
%TO.C,D27*%
X257145000Y-182680000D03*
X257145000Y-183780000D03*
X258975000Y-183780000D03*
X258975000Y-182680000D03*
%TD*%
%TO.C,D28*%
X176145000Y-96330000D03*
X176145000Y-97430000D03*
X177975000Y-97430000D03*
X177975000Y-96330000D03*
%TD*%
D11*
%TO.C,W1*%
X224660000Y-140630000D03*
D12*
X227200000Y-135550000D03*
X220850000Y-138090000D03*
%TD*%
D13*
%TO.C,D95*%
X204695000Y-144530000D03*
X204695000Y-145630000D03*
X206525000Y-145630000D03*
X206525000Y-144530000D03*
%TD*%
D11*
%TO.C,keyD1*%
X248510000Y-159680000D03*
D12*
X251050000Y-154600000D03*
X244700000Y-157140000D03*
%TD*%
D13*
%TO.C,D75*%
X271345000Y-125580000D03*
X271345000Y-126680000D03*
X273175000Y-126680000D03*
X273175000Y-125580000D03*
%TD*%
%TO.C,D96*%
X414245000Y-144530000D03*
X414245000Y-145630000D03*
X416075000Y-145630000D03*
X416075000Y-144530000D03*
%TD*%
D11*
%TO.C,L1*%
X362810000Y-159680000D03*
D12*
X365350000Y-154600000D03*
X359000000Y-157140000D03*
%TD*%
D13*
%TO.C,D44*%
X285695000Y-163580000D03*
X285695000Y-164680000D03*
X287525000Y-164680000D03*
X287525000Y-163580000D03*
%TD*%
D11*
%TO.C,insert1*%
X481995000Y-121380000D03*
D12*
X484535000Y-116300000D03*
X478185000Y-118840000D03*
%TD*%
D11*
%TO.C,F11*%
X424610000Y-92230000D03*
D12*
X427150000Y-87150000D03*
X420800000Y-89690000D03*
%TD*%
D11*
%TO.C,F9*%
X386510000Y-92230000D03*
D12*
X389050000Y-87150000D03*
X382700000Y-89690000D03*
%TD*%
D13*
%TO.C,D86*%
X180895000Y-144530000D03*
X180895000Y-145630000D03*
X182725000Y-145630000D03*
X182725000Y-144530000D03*
%TD*%
%TO.C,D81*%
X371395000Y-182680000D03*
X371395000Y-183780000D03*
X373225000Y-183780000D03*
X373225000Y-182680000D03*
%TD*%
%TO.C,D50*%
X118955000Y-182480000D03*
X118955000Y-183580000D03*
X120785000Y-183580000D03*
X120785000Y-182480000D03*
%TD*%
%TO.C,D84*%
X252295000Y-125580000D03*
X252295000Y-126680000D03*
X254125000Y-126680000D03*
X254125000Y-125580000D03*
%TD*%
D11*
%TO.C,keyX1*%
X239010000Y-178730000D03*
D12*
X241550000Y-173650000D03*
X235200000Y-176190000D03*
%TD*%
D13*
%TO.C,D6*%
X223745000Y-144530000D03*
X223745000Y-145630000D03*
X225575000Y-145630000D03*
X225575000Y-144530000D03*
%TD*%
D11*
%TO.C,control_left1*%
X179560000Y-197780000D03*
D12*
X182100000Y-192700000D03*
X175750000Y-195240000D03*
%TD*%
D13*
%TO.C,D11*%
X385595000Y-96330000D03*
X385595000Y-97430000D03*
X387425000Y-97430000D03*
X387425000Y-96330000D03*
%TD*%
D11*
%TO.C,alt_left1*%
X227210000Y-197780000D03*
D12*
X229750000Y-192700000D03*
X223400000Y-195240000D03*
%TD*%
D13*
%TO.C,D45*%
X295245000Y-182680000D03*
X295245000Y-183780000D03*
X297075000Y-183780000D03*
X297075000Y-182680000D03*
%TD*%
%TO.C,D76*%
X99905000Y-144330000D03*
X99905000Y-145430000D03*
X101735000Y-145430000D03*
X101735000Y-144330000D03*
%TD*%
D11*
%TO.C,pad8*%
X100835000Y-140380000D03*
D12*
X103375000Y-135300000D03*
X97025000Y-137840000D03*
%TD*%
D11*
%TO.C,super_left1*%
X203410000Y-197780000D03*
D12*
X205950000Y-192700000D03*
X199600000Y-195240000D03*
%TD*%
D13*
%TO.C,D67*%
X80855000Y-144330000D03*
X80855000Y-145430000D03*
X82685000Y-145430000D03*
X82685000Y-144330000D03*
%TD*%
D11*
%TO.C,keyJ2*%
X324710000Y-159680000D03*
D12*
X327250000Y-154600000D03*
X320900000Y-157140000D03*
%TD*%
D11*
%TO.C,F7*%
X338820000Y-92260000D03*
D12*
X341360000Y-87180000D03*
X335010000Y-89720000D03*
%TD*%
D13*
%TO.C,D13*%
X347545000Y-125580000D03*
X347545000Y-126680000D03*
X349375000Y-126680000D03*
X349375000Y-125580000D03*
%TD*%
%TO.C,D89*%
X183295000Y-163580000D03*
X183295000Y-164680000D03*
X185125000Y-164680000D03*
X185125000Y-163580000D03*
%TD*%
%TO.C,D23*%
X80955000Y-163380000D03*
X80955000Y-164480000D03*
X82785000Y-164480000D03*
X82785000Y-163380000D03*
%TD*%
D11*
%TO.C,O1*%
X358010000Y-140630000D03*
D12*
X360550000Y-135550000D03*
X354200000Y-138090000D03*
%TD*%
D11*
%TO.C,backslash1*%
X438960000Y-140630000D03*
D12*
X441500000Y-135550000D03*
X435150000Y-138090000D03*
%TD*%
D13*
%TO.C,D42*%
X299945000Y-144530000D03*
X299945000Y-145630000D03*
X301775000Y-145630000D03*
X301775000Y-144530000D03*
%TD*%
%TO.C,D52*%
X519045000Y-201680000D03*
X519045000Y-202780000D03*
X520875000Y-202780000D03*
X520875000Y-201680000D03*
%TD*%
D11*
%TO.C,quote1*%
X400910000Y-159680000D03*
D12*
X403450000Y-154600000D03*
X397100000Y-157140000D03*
%TD*%
D11*
%TO.C,keyU5*%
X319910000Y-140630000D03*
D12*
X322450000Y-135550000D03*
X316100000Y-138090000D03*
%TD*%
D13*
%TO.C,D64*%
X271245000Y-96330000D03*
X271245000Y-97430000D03*
X273075000Y-97430000D03*
X273075000Y-96330000D03*
%TD*%
%TO.C,D31*%
X137955000Y-125230000D03*
X137955000Y-126330000D03*
X139785000Y-126330000D03*
X139785000Y-125230000D03*
%TD*%
%TO.C,D105*%
X392945000Y-201680000D03*
X392945000Y-202780000D03*
X394775000Y-202780000D03*
X394775000Y-201680000D03*
%TD*%
%TO.C,D15*%
X242795000Y-144530000D03*
X242795000Y-145630000D03*
X244625000Y-145630000D03*
X244625000Y-144530000D03*
%TD*%
D11*
%TO.C,A1*%
X210410000Y-159680000D03*
D12*
X212950000Y-154600000D03*
X206600000Y-157140000D03*
%TD*%
D13*
%TO.C,D22*%
X176145000Y-125580000D03*
X176145000Y-126680000D03*
X177975000Y-126680000D03*
X177975000Y-125580000D03*
%TD*%
%TO.C,D85*%
X118955000Y-144330000D03*
X118955000Y-145430000D03*
X120785000Y-145430000D03*
X120785000Y-144330000D03*
%TD*%
D11*
%TO.C,keyF1*%
X267560000Y-159680000D03*
D12*
X270100000Y-154600000D03*
X263750000Y-157140000D03*
%TD*%
D13*
%TO.C,D40*%
X118905000Y-125230000D03*
X118905000Y-126330000D03*
X120735000Y-126330000D03*
X120735000Y-125230000D03*
%TD*%
%TO.C,D38*%
X442795000Y-96330000D03*
X442795000Y-97430000D03*
X444625000Y-97430000D03*
X444625000Y-96330000D03*
%TD*%
D10*
%TO.C,H7*%
X75550000Y-197450000D03*
%TD*%
D11*
%TO.C,F4*%
X272160000Y-92380000D03*
D12*
X274700000Y-87300000D03*
X268350000Y-89840000D03*
%TD*%
D13*
%TO.C,D73*%
X299795000Y-96330000D03*
X299795000Y-97430000D03*
X301625000Y-97430000D03*
X301625000Y-96330000D03*
%TD*%
%TO.C,D77*%
X90405000Y-201480000D03*
X90405000Y-202580000D03*
X92235000Y-202580000D03*
X92235000Y-201480000D03*
%TD*%
%TO.C,D43*%
X499995000Y-182680000D03*
X499995000Y-183780000D03*
X501825000Y-183780000D03*
X501825000Y-182680000D03*
%TD*%
%TO.C,D63*%
X333295000Y-182680000D03*
X333295000Y-183780000D03*
X335125000Y-183780000D03*
X335125000Y-182680000D03*
%TD*%
D11*
%TO.C,down1*%
X500910000Y-197730000D03*
D12*
X503450000Y-192650000D03*
X497100000Y-195190000D03*
%TD*%
D11*
%TO.C,pad2*%
X100835000Y-178480000D03*
D12*
X103375000Y-173400000D03*
X97025000Y-175940000D03*
%TD*%
D13*
%TO.C,D36*%
X276195000Y-182680000D03*
X276195000Y-183780000D03*
X278025000Y-183780000D03*
X278025000Y-182680000D03*
%TD*%
D10*
%TO.C,H2*%
X229100000Y-103100000D03*
%TD*%
D11*
%TO.C,caps1*%
X184210000Y-159680000D03*
D12*
X186750000Y-154600000D03*
X180400000Y-157140000D03*
%TD*%
D13*
%TO.C,D98*%
X188045000Y-182680000D03*
X188045000Y-183780000D03*
X189875000Y-183780000D03*
X189875000Y-182680000D03*
%TD*%
%TO.C,D29*%
X423695000Y-96330000D03*
X423695000Y-97430000D03*
X425525000Y-97430000D03*
X425525000Y-96330000D03*
%TD*%
D11*
%TO.C,keyM1*%
X334210000Y-178730000D03*
D12*
X336750000Y-173650000D03*
X330400000Y-176190000D03*
%TD*%
D11*
%TO.C,up1*%
X500910000Y-178680000D03*
D12*
X503450000Y-173600000D03*
X497100000Y-176140000D03*
%TD*%
D13*
%TO.C,D70*%
X480995000Y-201680000D03*
X480995000Y-202780000D03*
X482825000Y-202780000D03*
X482825000Y-201680000D03*
%TD*%
D11*
%TO.C,sq_br_close1*%
X415160000Y-140630000D03*
D12*
X417700000Y-135550000D03*
X411350000Y-138090000D03*
%TD*%
D13*
%TO.C,D20*%
X404645000Y-96330000D03*
X404645000Y-97430000D03*
X406475000Y-97430000D03*
X406475000Y-96330000D03*
%TD*%
D11*
%TO.C,pad_div1*%
X100835000Y-121330000D03*
D12*
X103375000Y-116250000D03*
X97025000Y-118790000D03*
%TD*%
D13*
%TO.C,D14*%
X99905000Y-163380000D03*
X99905000Y-164480000D03*
X101735000Y-164480000D03*
X101735000Y-163380000D03*
%TD*%
D11*
%TO.C,scroll1*%
X500995000Y-92380000D03*
D12*
X503535000Y-87300000D03*
X497185000Y-89840000D03*
%TD*%
D13*
%TO.C,D59*%
X142605000Y-187430000D03*
X142605000Y-188530000D03*
X144435000Y-188530000D03*
X144435000Y-187430000D03*
%TD*%
D11*
%TO.C,numK6*%
X291310000Y-121580000D03*
D12*
X293850000Y-116500000D03*
X287500000Y-119040000D03*
%TD*%
D13*
%TO.C,D24*%
X261845000Y-144530000D03*
X261845000Y-145630000D03*
X263675000Y-145630000D03*
X263675000Y-144530000D03*
%TD*%
D11*
%TO.C,G1*%
X286610000Y-159680000D03*
D12*
X289150000Y-154600000D03*
X282800000Y-157140000D03*
%TD*%
D13*
%TO.C,D1*%
X84555000Y-91630000D03*
X84555000Y-92730000D03*
X86385000Y-92730000D03*
X86385000Y-91630000D03*
%TD*%
%TO.C,D53*%
X266645000Y-163580000D03*
X266645000Y-164680000D03*
X268475000Y-164680000D03*
X268475000Y-163580000D03*
%TD*%
D11*
%TO.C,right_shift1*%
X427110000Y-178730000D03*
D12*
X429650000Y-173650000D03*
X423300000Y-176190000D03*
%TD*%
D11*
%TO.C,pad3*%
X119885000Y-178480000D03*
D12*
X122425000Y-173400000D03*
X116075000Y-175940000D03*
%TD*%
D11*
%TO.C,pad6*%
X119885000Y-159430000D03*
D12*
X122425000Y-154350000D03*
X116075000Y-156890000D03*
%TD*%
D11*
%TO.C,ESC1*%
X177060000Y-92430000D03*
D12*
X179600000Y-87350000D03*
X173250000Y-89890000D03*
%TD*%
D11*
%TO.C,R1*%
X262760000Y-140630000D03*
D12*
X265300000Y-135550000D03*
X258950000Y-138090000D03*
%TD*%
D13*
%TO.C,D82*%
X318845000Y-96330000D03*
X318845000Y-97430000D03*
X320675000Y-97430000D03*
X320675000Y-96330000D03*
%TD*%
D11*
%TO.C,end1*%
X501045000Y-140430000D03*
D12*
X503585000Y-135350000D03*
X497235000Y-137890000D03*
%TD*%
D11*
%TO.C,slash1*%
X391360000Y-178730000D03*
D12*
X393900000Y-173650000D03*
X387550000Y-176190000D03*
%TD*%
D11*
%TO.C,semicolon1*%
X381860000Y-159680000D03*
D12*
X384400000Y-154600000D03*
X378050000Y-157140000D03*
%TD*%
D11*
%TO.C,numK8*%
X329410000Y-121580000D03*
D12*
X331950000Y-116500000D03*
X325600000Y-119040000D03*
%TD*%
D13*
%TO.C,D4*%
X214245000Y-125580000D03*
X214245000Y-126680000D03*
X216075000Y-126680000D03*
X216075000Y-125580000D03*
%TD*%
%TO.C,D99*%
X426195000Y-182680000D03*
X426195000Y-183780000D03*
X428025000Y-183780000D03*
X428025000Y-182680000D03*
%TD*%
D11*
%TO.C,F10*%
X405560000Y-92230000D03*
D12*
X408100000Y-87150000D03*
X401750000Y-89690000D03*
%TD*%
D13*
%TO.C,D51*%
X318995000Y-144530000D03*
X318995000Y-145630000D03*
X320825000Y-145630000D03*
X320825000Y-144530000D03*
%TD*%
%TO.C,D12*%
X404695000Y-125580000D03*
X404695000Y-126680000D03*
X406525000Y-126680000D03*
X406525000Y-125580000D03*
%TD*%
%TO.C,D62*%
X247595000Y-163580000D03*
X247595000Y-164680000D03*
X249425000Y-164680000D03*
X249425000Y-163580000D03*
%TD*%
%TO.C,D10*%
X99855000Y-91630000D03*
X99855000Y-92730000D03*
X101685000Y-92730000D03*
X101685000Y-91630000D03*
%TD*%
%TO.C,D54*%
X314295000Y-182680000D03*
X314295000Y-183780000D03*
X316125000Y-183780000D03*
X316125000Y-182680000D03*
%TD*%
%TO.C,D61*%
X499995000Y-201680000D03*
X499995000Y-202780000D03*
X501825000Y-202780000D03*
X501825000Y-201680000D03*
%TD*%
D11*
%TO.C,right1*%
X519960000Y-197730000D03*
D12*
X522500000Y-192650000D03*
X516150000Y-195190000D03*
%TD*%
D11*
%TO.C,keyC1*%
X258060000Y-178730000D03*
D12*
X260600000Y-173650000D03*
X254250000Y-176190000D03*
%TD*%
D11*
%TO.C,V1*%
X277110000Y-178730000D03*
D12*
X279650000Y-173650000D03*
X273300000Y-176190000D03*
%TD*%
D13*
%TO.C,D41*%
X99905000Y-182380000D03*
X99905000Y-183480000D03*
X101735000Y-183480000D03*
X101735000Y-182380000D03*
%TD*%
D11*
%TO.C,pad1*%
X81785000Y-178480000D03*
D12*
X84325000Y-173400000D03*
X77975000Y-175940000D03*
%TD*%
D13*
%TO.C,D107*%
X440495000Y-201680000D03*
X440495000Y-202780000D03*
X442325000Y-202780000D03*
X442325000Y-201680000D03*
%TD*%
D11*
%TO.C,pause1*%
X520095000Y-92380000D03*
D12*
X522635000Y-87300000D03*
X516285000Y-89840000D03*
%TD*%
D13*
%TO.C,D2*%
X356945000Y-96330000D03*
X356945000Y-97430000D03*
X358775000Y-97430000D03*
X358775000Y-96330000D03*
%TD*%
D11*
%TO.C,tilde1*%
X177060000Y-121580000D03*
D12*
X179600000Y-116500000D03*
X173250000Y-119040000D03*
%TD*%
D13*
%TO.C,D100*%
X178645000Y-201680000D03*
X178645000Y-202780000D03*
X180475000Y-202780000D03*
X180475000Y-201680000D03*
%TD*%
%TO.C,D8*%
X361895000Y-163580000D03*
X361895000Y-164680000D03*
X363725000Y-164680000D03*
X363725000Y-163580000D03*
%TD*%
D11*
%TO.C,pad_enter1*%
X138935000Y-187980000D03*
D12*
X133855000Y-185440000D03*
X136395000Y-191790000D03*
%TD*%
D11*
%TO.C,enter1*%
X431860000Y-159680000D03*
D12*
X434400000Y-154600000D03*
X428050000Y-157140000D03*
%TD*%
D11*
%TO.C,keyY1*%
X300860000Y-140630000D03*
D12*
X303400000Y-135550000D03*
X297050000Y-138090000D03*
%TD*%
D11*
%TO.C,pad5*%
X100835000Y-159430000D03*
D12*
X103375000Y-154350000D03*
X97025000Y-156890000D03*
%TD*%
D11*
%TO.C,pad_mult1*%
X119885000Y-121330000D03*
D12*
X122425000Y-116250000D03*
X116075000Y-118790000D03*
%TD*%
D13*
%TO.C,D18*%
X238095000Y-182680000D03*
X238095000Y-183780000D03*
X239925000Y-183780000D03*
X239925000Y-182680000D03*
%TD*%
%TO.C,D74*%
X519195000Y-125580000D03*
X519195000Y-126680000D03*
X521025000Y-126680000D03*
X521025000Y-125580000D03*
%TD*%
D11*
%TO.C,sq_br_open1*%
X396160000Y-140630000D03*
D12*
X398700000Y-135550000D03*
X392350000Y-138090000D03*
%TD*%
D11*
%TO.C,F2*%
X234060000Y-92380000D03*
D12*
X236600000Y-87300000D03*
X230250000Y-89840000D03*
%TD*%
D14*
%TO.C,SW1*%
X131520000Y-89680000D03*
D15*
X131520000Y-94680000D03*
X131520000Y-92180000D03*
D16*
X139020000Y-86580000D03*
X139020000Y-97780000D03*
D15*
X146020000Y-94680000D03*
X146020000Y-89680000D03*
%TD*%
D11*
%TO.C,comma1*%
X353260000Y-178730000D03*
D12*
X355800000Y-173650000D03*
X349450000Y-176190000D03*
%TD*%
D13*
%TO.C,D94*%
X142505000Y-149630000D03*
X142505000Y-150730000D03*
X144335000Y-150730000D03*
X144335000Y-149630000D03*
%TD*%
D11*
%TO.C,dot1*%
X372310000Y-178730000D03*
D12*
X374850000Y-173650000D03*
X368500000Y-176190000D03*
%TD*%
D11*
%TO.C,keyE1*%
X243710000Y-140630000D03*
D12*
X246250000Y-135550000D03*
X239900000Y-138090000D03*
%TD*%
D11*
%TO.C,keyH1*%
X305660000Y-159680000D03*
D12*
X308200000Y-154600000D03*
X301850000Y-157140000D03*
%TD*%
D11*
%TO.C,pad7*%
X81785000Y-140380000D03*
D12*
X84325000Y-135300000D03*
X77975000Y-137840000D03*
%TD*%
D13*
%TO.C,D102*%
X226295000Y-201680000D03*
X226295000Y-202780000D03*
X228125000Y-202780000D03*
X228125000Y-201680000D03*
%TD*%
D10*
%TO.C,H3*%
X510450000Y-87150000D03*
%TD*%
D13*
%TO.C,D90*%
X390445000Y-182680000D03*
X390445000Y-183780000D03*
X392275000Y-183780000D03*
X392275000Y-182680000D03*
%TD*%
%TO.C,D57*%
X309445000Y-125580000D03*
X309445000Y-126680000D03*
X311275000Y-126680000D03*
X311275000Y-125580000D03*
%TD*%
%TO.C,D66*%
X290395000Y-125580000D03*
X290395000Y-126680000D03*
X292225000Y-126680000D03*
X292225000Y-125580000D03*
%TD*%
%TO.C,D33*%
X280895000Y-144530000D03*
X280895000Y-145630000D03*
X282725000Y-145630000D03*
X282725000Y-144530000D03*
%TD*%
%TO.C,D65*%
X519195000Y-96330000D03*
X519195000Y-97430000D03*
X521025000Y-97430000D03*
X521025000Y-96330000D03*
%TD*%
D11*
%TO.C,keyK1*%
X343760000Y-159680000D03*
D12*
X346300000Y-154600000D03*
X339950000Y-157140000D03*
%TD*%
D11*
%TO.C,left1*%
X481910000Y-197730000D03*
D12*
X484450000Y-192650000D03*
X478100000Y-195190000D03*
%TD*%
D11*
%TO.C,F12*%
X443660000Y-92230000D03*
D12*
X446200000Y-87150000D03*
X439850000Y-89690000D03*
%TD*%
D13*
%TO.C,D80*%
X209495000Y-163580000D03*
X209495000Y-164680000D03*
X211325000Y-164680000D03*
X211325000Y-163580000D03*
%TD*%
D11*
%TO.C,Z1*%
X219960000Y-178730000D03*
D12*
X222500000Y-173650000D03*
X216150000Y-176190000D03*
%TD*%
D11*
%TO.C,F1*%
X215010000Y-92380000D03*
D12*
X217550000Y-87300000D03*
X211200000Y-89840000D03*
%TD*%
D11*
%TO.C,function_right1*%
X417660000Y-197780000D03*
D12*
X420200000Y-192700000D03*
X413850000Y-195240000D03*
%TD*%
D13*
%TO.C,D55*%
X252195000Y-96330000D03*
X252195000Y-97430000D03*
X254025000Y-97430000D03*
X254025000Y-96330000D03*
%TD*%
%TO.C,D16*%
X481095000Y-144380000D03*
X481095000Y-145480000D03*
X482925000Y-145480000D03*
X482925000Y-144380000D03*
%TD*%
%TO.C,D69*%
X357095000Y-144530000D03*
X357095000Y-145630000D03*
X358925000Y-145630000D03*
X358925000Y-144530000D03*
%TD*%
D11*
%TO.C,numK2*%
X215160000Y-121580000D03*
D12*
X217700000Y-116500000D03*
X211350000Y-119040000D03*
%TD*%
D13*
%TO.C,D60*%
X338045000Y-144530000D03*
X338045000Y-145630000D03*
X339875000Y-145630000D03*
X339875000Y-144530000D03*
%TD*%
D10*
%TO.C,H8*%
X382850000Y-197650000D03*
%TD*%
D13*
%TO.C,D49*%
X99855000Y-125230000D03*
X99855000Y-126330000D03*
X101685000Y-126330000D03*
X101685000Y-125230000D03*
%TD*%
%TO.C,D103*%
X297695000Y-201680000D03*
X297695000Y-202780000D03*
X299525000Y-202780000D03*
X299525000Y-201680000D03*
%TD*%
D11*
%TO.C,F5*%
X300720000Y-92260000D03*
D12*
X303260000Y-87180000D03*
X296910000Y-89720000D03*
%TD*%
D11*
%TO.C,I1*%
X338960000Y-140630000D03*
D12*
X341500000Y-135550000D03*
X335150000Y-138090000D03*
%TD*%
D11*
%TO.C,pad_plus1*%
X138935000Y-149930000D03*
D12*
X133855000Y-147390000D03*
X136395000Y-153740000D03*
%TD*%
D13*
%TO.C,D83*%
X500145000Y-125580000D03*
X500145000Y-126680000D03*
X501975000Y-126680000D03*
X501975000Y-125580000D03*
%TD*%
%TO.C,D35*%
X304745000Y-163580000D03*
X304745000Y-164680000D03*
X306575000Y-164680000D03*
X306575000Y-163580000D03*
%TD*%
D10*
%TO.C,H6*%
X349350000Y-102450000D03*
%TD*%
D11*
%TO.C,Q1*%
X205610000Y-140630000D03*
D12*
X208150000Y-135550000D03*
X201800000Y-138090000D03*
%TD*%
D13*
%TO.C,D72*%
X352345000Y-182680000D03*
X352345000Y-183780000D03*
X354175000Y-183780000D03*
X354175000Y-182680000D03*
%TD*%
%TO.C,D71*%
X228545000Y-163580000D03*
X228545000Y-164680000D03*
X230375000Y-164680000D03*
X230375000Y-163580000D03*
%TD*%
D11*
%TO.C,F6*%
X319770000Y-92260000D03*
D12*
X322310000Y-87180000D03*
X315960000Y-89720000D03*
%TD*%
D11*
%TO.C,S1*%
X229460000Y-159680000D03*
D12*
X232000000Y-154600000D03*
X225650000Y-157140000D03*
%TD*%
D13*
%TO.C,D88*%
X399995000Y-163580000D03*
X399995000Y-164680000D03*
X401825000Y-164680000D03*
X401825000Y-163580000D03*
%TD*%
D11*
%TO.C,delete1*%
X481995000Y-140430000D03*
D12*
X484535000Y-135350000D03*
X478185000Y-137890000D03*
%TD*%
D13*
%TO.C,D58*%
X80805000Y-125230000D03*
X80805000Y-126330000D03*
X82635000Y-126330000D03*
X82635000Y-125230000D03*
%TD*%
D11*
%TO.C,control_right1*%
X441420000Y-197760000D03*
D12*
X443960000Y-192680000D03*
X437610000Y-195220000D03*
%TD*%
D11*
%TO.C,pad_numlock1*%
X81785000Y-121330000D03*
D12*
X84325000Y-116250000D03*
X77975000Y-118790000D03*
%TD*%
D13*
%TO.C,D39*%
X195195000Y-125580000D03*
X195195000Y-126680000D03*
X197025000Y-126680000D03*
X197025000Y-125580000D03*
%TD*%
D11*
%TO.C,page_down1*%
X520095000Y-140430000D03*
D12*
X522635000Y-135350000D03*
X516285000Y-137890000D03*
%TD*%
D13*
%TO.C,D19*%
X115105000Y-91630000D03*
X115105000Y-92730000D03*
X116935000Y-92730000D03*
X116935000Y-91630000D03*
%TD*%
%TO.C,D37*%
X214095000Y-96330000D03*
X214095000Y-97430000D03*
X215925000Y-97430000D03*
X215925000Y-96330000D03*
%TD*%
D11*
%TO.C,print1*%
X481995000Y-92380000D03*
D12*
X484535000Y-87300000D03*
X478185000Y-89840000D03*
%TD*%
D11*
%TO.C,numK9*%
X348460000Y-121580000D03*
D12*
X351000000Y-116500000D03*
X344650000Y-119040000D03*
%TD*%
D13*
%TO.C,D46*%
X233145000Y-96330000D03*
X233145000Y-97430000D03*
X234975000Y-97430000D03*
X234975000Y-96330000D03*
%TD*%
%TO.C,D30*%
X366595000Y-125580000D03*
X366595000Y-126680000D03*
X368425000Y-126680000D03*
X368425000Y-125580000D03*
%TD*%
D11*
%TO.C,minus1*%
X386560000Y-121580000D03*
D12*
X389100000Y-116500000D03*
X382750000Y-119040000D03*
%TD*%
D11*
%TO.C,numK1*%
X196110000Y-121580000D03*
D12*
X198650000Y-116500000D03*
X192300000Y-119040000D03*
%TD*%
D13*
%TO.C,D21*%
X385645000Y-125580000D03*
X385645000Y-126680000D03*
X387475000Y-126680000D03*
X387475000Y-125580000D03*
%TD*%
D11*
%TO.C,pad_comma1*%
X119885000Y-197530000D03*
D12*
X122425000Y-192450000D03*
X116075000Y-194990000D03*
%TD*%
D11*
%TO.C,pad0*%
X91320000Y-197530000D03*
D12*
X93860000Y-192450000D03*
X87510000Y-194990000D03*
%TD*%
D13*
%TO.C,D17*%
X342845000Y-163580000D03*
X342845000Y-164680000D03*
X344675000Y-164680000D03*
X344675000Y-163580000D03*
%TD*%
D10*
%TO.C,H1*%
X75750000Y-88150000D03*
%TD*%
D13*
%TO.C,D25*%
X500145000Y-144380000D03*
X500145000Y-145480000D03*
X501975000Y-145480000D03*
X501975000Y-144380000D03*
%TD*%
%TO.C,D91*%
X337895000Y-96330000D03*
X337895000Y-97430000D03*
X339725000Y-97430000D03*
X339725000Y-96330000D03*
%TD*%
%TO.C,D34*%
X519195000Y-144380000D03*
X519195000Y-145480000D03*
X521025000Y-145480000D03*
X521025000Y-144380000D03*
%TD*%
%TO.C,D9*%
X219045000Y-182680000D03*
X219045000Y-183780000D03*
X220875000Y-183780000D03*
X220875000Y-182680000D03*
%TD*%
D11*
%TO.C,alt_right1*%
X370060000Y-197780000D03*
D12*
X372600000Y-192700000D03*
X366250000Y-195240000D03*
%TD*%
D13*
%TO.C,D47*%
X481095000Y-96330000D03*
X481095000Y-97430000D03*
X482925000Y-97430000D03*
X482925000Y-96330000D03*
%TD*%
D11*
%TO.C,numK4*%
X253210000Y-121580000D03*
D12*
X255750000Y-116500000D03*
X249400000Y-119040000D03*
%TD*%
D17*
%TO.C,J2*%
X460610001Y-198852421D03*
X460610000Y-196820421D03*
X465690001Y-197836421D03*
%TD*%
D18*
%TO.C,J1*%
X369660000Y-87500000D03*
X375440000Y-87500000D03*
D19*
X368230000Y-83850000D03*
D20*
X368230000Y-88030000D03*
D19*
X376870000Y-83850000D03*
D20*
X376870000Y-88030000D03*
%TD*%
M02*
