M48
; DRILL file {KiCad 8.0.1-8.0.1-1~ubuntu22.04.1} date 2024-03-21T20:32:24+0100
; FORMAT={-:-/ absolute / inch / decimal}
; #@! TF.CreationDate,2024-03-21T20:32:24+01:00
; #@! TF.GenerationSoftware,Kicad,Pcbnew,8.0.1-8.0.1-1~ubuntu22.04.1
; #@! TF.FileFunction,Plated,1,4,PTH
FMAT,2
INCH
; #@! TA.AperFunction,Plated,PTH,ViaDrill
T1C0.0118
; #@! TA.AperFunction,Plated,PTH,ComponentDrill
T2C0.0236
; #@! TA.AperFunction,Plated,PTH,ComponentDrill
T3C0.0394
; #@! TA.AperFunction,Plated,PTH,ComponentDrill
T4C0.0591
%
G90
G05
T1
X2.8386Y-5.1988
X2.8819Y-5.1634
X2.996Y-6.6516
X3.0453Y-6.6516
X3.0886Y-6.4311
X3.0886Y-7.1831
X3.0906Y-5.6811
X3.1122Y-4.9311
X3.1142Y-7.126
X3.2303Y-3.6083
X3.25Y-5.0256
X3.2835Y-4.8642
X3.2933Y-5.7205
X3.2953Y-5.1496
X3.2972Y-5.9035
X3.3071Y-7.1654
X3.311Y-7.2146
X3.313Y-6.5138
X3.3189Y-6.4232
X3.3401Y-5.9035
X3.3484Y-5.1496
X3.3917Y-6.3425
X3.3917Y-7.185
X3.4016Y-4.8819
X3.4016Y-6.3996
X3.4626Y-7.9311
X3.563Y-7.878
X3.5984Y-5.1181
X3.5984Y-5.187
X3.6142Y-3.8071
X3.6417Y-3.5315
X3.6496Y-8.0787
X3.7106Y-8.0886
X3.7224Y-7.8917
X3.7559Y-8.002
X3.7598Y-7.876
X3.7854Y-6.8268
X3.7972Y-4.8484
X3.8327Y-7.1811
X3.8346Y-5.6811
X3.8346Y-6.4272
X3.8465Y-6.8248
X3.8524Y-3.6063
X3.8524Y-4.9291
X3.9114Y-5.8346
X3.9764Y-6.5315
X4.0492Y-5.6831
X4.0492Y-7.2244
X4.0531Y-7.1831
X4.063Y-5.0276
X4.0965Y-3.5354
X4.0984Y-4.8583
X4.0984Y-5.6161
X4.1063Y-6.4035
X4.1102Y-6.3524
X4.126Y-7.1516
X4.128Y-3.8071
X4.1496Y-5.6575
X4.1811Y-6.5394
X4.185Y-6.3819
X4.2146Y-5.1496
X4.2756Y-3.5295
X4.2795Y-3.8327
X4.2835Y-5.1496
X4.3425Y-5.876
X4.3425Y-6.6811
X4.3445Y-6.5984
X4.3574Y-5.9381
X4.4587Y-3.6102
X4.4843Y-4.8189
X4.5374Y-5.624
X4.5453Y-5.3287
X4.5697Y-6.6949
X4.5807Y-7.185
X4.5846Y-7.9291
X4.5866Y-6.5984
X4.5886Y-5.685
X4.5906Y-6.4331
X4.6063Y-5.3287
X4.6102Y-4.9291
X4.685Y-3.5531
X4.687Y-3.6319
X4.6929Y-5.8189
X4.7224Y-7.8819
X4.7697Y-7.8858
X4.7913Y-5.7913
X4.7972Y-5.0492
X4.8346Y-6.9075
X4.8445Y-7.9606
X4.8543Y-7.878
X4.8543Y-8.0807
X4.8602Y-5.5866
X4.8602Y-5.6358
X4.8642Y-7.1614
X4.8681Y-6.3346
X4.8976Y-4.8563
X4.8976Y-6.5118
X4.9035Y-5.2098
X4.9055Y-7.0906
X4.9055Y-7.9882
X4.9154Y-5.685
X4.9291Y-6.9783
X4.939Y-6.3661
X4.9449Y-5.2461
X4.9488Y-5.9164
X4.9626Y-5.1496
X4.9783Y-7.0886
X4.9911Y-5.9557
X5.0315Y-5.1496
X5.0709Y-5.624
X5.0827Y-3.7224
X5.0854Y-6.6831
X5.0866Y-6.5591
X5.1122Y-7.2806
X5.1122Y-7.321
X5.128Y-6.689
X5.1319Y-5.624
X5.1417Y-6.622
X5.1437Y-6.5531
X5.2579Y-4.7913
X5.3012Y-3.7028
X5.3248Y-3.5787
X5.3642Y-4.9311
X5.437Y-6.689
X5.4685Y-6.561
X5.4902Y-6.6382
X5.5039Y-6.6028
X5.5157Y-4.063
X5.5157Y-7.5433
X5.5354Y-6.5959
X5.565Y-6.5492
X5.5669Y-5.1083
X5.5807Y-6.6732
X5.5984Y-6.5748
X5.6063Y-5.7894
X5.6122Y-7.2795
X5.6201Y-4.8996
X5.6791Y-7.4783
X5.6831Y-6.6352
X5.689Y-7.1949
X5.6969Y-6.6654
X5.7264Y-6.0413
X5.7421Y-5.8701
X5.7913Y-5.8071
X5.8077Y-5.2378
X5.8169Y-7.3524
X5.8248Y-5.2717
X5.8262Y-5.128
X5.8386Y-5.1831
X5.872Y-5.1859
X5.8819Y-5.2283
X5.9001Y-5.1314
X5.9035Y-5.1634
X5.9114Y-5.2461
X5.9626Y-5.1855
X6.4528Y-4.498
X6.4606Y-4.3563
X6.4646Y-4.4409
X6.4941Y-5.0571
X6.4961Y-5.1811
X6.5098Y-5.0866
X6.5374Y-5.1491
X6.5374Y-5.2087
X6.5399Y-4.5566
X6.5512Y-5.1083
X6.5598Y-6.6122
X6.561Y-6.7047
X6.5768Y-4.4213
X6.5984Y-7.3248
X6.5984Y-7.4179
X6.6142Y-5.9724
X6.6186Y-5.7362
X6.6201Y-4.4783
X6.622Y-5.2008
X6.6476Y-4.4311
X6.6476Y-4.5256
X6.6507Y-5.056
X6.6548Y-5.9338
X6.6811Y-5.7736
X6.6934Y-5.1122
X6.6988Y-5.1693
X6.7185Y-5.7461
X6.7283Y-5.9069
X6.7972Y-3.9882
X6.7992Y-3.7638
X6.8228Y-6.5787
X6.8425Y-7.8169
X6.8504Y-4.9429
X6.878Y-3.7933
X6.8878Y-3.7362
X6.8898Y-6.0098
X6.9173Y-7.3406
X6.9197Y-7.4331
X6.935Y-7.9409
X6.9528Y-5.2008
X6.9606Y-5.0866
X7.0079Y-3.8976
X7.0197Y-3.7402
X7.0315Y-4.2249
X7.0433Y-5.6909
X7.0551Y-3.9173
X7.0709Y-4.3622
X7.0866Y-3.9862
X7.122Y-5.0492
X7.1319Y-6.439
X7.187Y-5.8327
X7.1909Y-8.1122
X7.2087Y-3.7638
X7.2224Y-4.9882
X7.2264Y-5.6358
X7.2283Y-7.3517
X7.2297Y-7.435
X7.2323Y-5.9961
X7.2559Y-3.8642
X7.2657Y-7.8996
X7.2953Y-4.9882
X7.3071Y-5.6909
X7.3209Y-7.1929
X7.3386Y-7.124
X7.3563Y-5.8706
X7.3563Y-5.9606
X7.3898Y-6.3957
X7.3917Y-7.1358
X7.3957Y-6.5591
X7.4606Y-6.5827
X7.4646Y-5.128
X7.4646Y-5.1949
X7.4961Y-4.8445
X7.5177Y-4.374
X7.5394Y-6.626
X7.5394Y-6.6909
X7.5492Y-7.0512
X7.5591Y-7.2126
X7.5846Y-4.4016
X7.5965Y-4.9429
X7.6142Y-7.1713
X7.6161Y-4.3878
X7.6299Y-4.4489
X7.689Y-6.7362
X7.7205Y-6.5413
X7.8051Y-4.8957
X7.811Y-7.8701
X7.8445Y-5.8681
X7.8445Y-6.6673
X7.8676Y-6.0025
X7.874Y-7.9429
X7.878Y-5.0512
X7.8799Y-6.6634
X7.8878Y-5.2047
X7.8996Y-4.9055
X7.9252Y-5.1476
X7.9252Y-6.5787
X7.9705Y-7.3189
X7.9774Y-6.6402
X7.9843Y-5.6909
X7.9941Y-6.6816
X7.998Y-6.6122
X8.0177Y-6.5807
X8.1004Y-5.878
X8.1122Y-8.0374
X8.1358Y-7.8484
X8.1362Y-5.939
X8.1673Y-6.4409
X8.187Y-7.0413
X8.2028Y-5.7146
X8.2067Y-5.6083
X8.2126Y-3.689
X8.2264Y-5.6654
X8.2972Y-4.5886
X8.3051Y-3.6555
X8.3169Y-3.9626
X8.3209Y-3.7224
X8.3386Y-4.9449
X8.3425Y-4.872
X8.3484Y-4.5886
X8.3602Y-4.3858
X8.3661Y-3.7933
X8.3799Y-4.4567
X8.4547Y-5.0295
X8.4626Y-5.0965
X8.4941Y-6.6299
X8.5034Y-5.7815
X8.5079Y-7.0945
X8.5438Y-5.8783
X8.5438Y-5.935
X8.5453Y-7.1909
X8.5472Y-5.7776
X8.5492Y-5.0374
X8.5492Y-7.2933
X8.5531Y-4.9449
X8.561Y-4.874
X8.565Y-4.3602
X8.565Y-4.4489
X8.5709Y-6.7067
X8.6102Y-3.685
X8.6122Y-4.9291
X8.6142Y-6.5748
X8.6378Y-3.7717
X8.6752Y-3.9547
X8.7126Y-7.876
X8.7264Y-5.6909
X8.7697Y-7.1634
X8.7776Y-7.313
X8.7795Y-7.3465
X8.7953Y-7.4129
X8.8051Y-7.9409
X8.813Y-5.1791
X8.8445Y-4.3583
X8.8445Y-4.4587
X8.8445Y-7.1732
X8.8661Y-7.1083
X8.8839Y-6.4823
X8.9016Y-5.128
X8.9016Y-5.1772
X8.9134Y-6.4035
X8.9252Y-5.0866
X8.9291Y-5.624
X8.9296Y-5.2402
X8.9508Y-6.4823
X8.9685Y-5.7244
X8.9764Y-5.624
X8.9783Y-5.2402
X8.998Y-8.0472
X9.0256Y-4.8602
X9.0276Y-5.6772
X9.0492Y-3.7106
X9.0748Y-5.0453
X9.0945Y-4.9469
X9.1181Y-7.8307
X9.122Y-3.7933
X9.1339Y-5.8642
X9.1339Y-5.9331
X9.187Y-6.4016
X9.187Y-6.4587
X9.1949Y-7.0846
X9.2146Y-5.128
X9.2146Y-5.186
X9.2272Y-6.6815
X9.2815Y-3.9232
X9.2854Y-5.0551
X9.2933Y-7.1929
X9.3051Y-6.6816
X9.3071Y-3.7539
X9.3425Y-3.7146
X9.3504Y-4.9134
X9.3858Y-3.7953
X9.3858Y-4.8504
X9.4075Y-6.6412
X9.4075Y-6.7028
X9.4252Y-7.315
X9.4862Y-5.6909
X9.502Y-7.1909
X9.5276Y-7.1004
X9.5453Y-7.1654
X9.5945Y-7.2244
X9.628Y-5.065
X9.6299Y-5.8799
X9.6299Y-5.937
X9.6457Y-6.439
X9.6594Y-5.7224
X9.6732Y-5.1476
X9.6747Y-5.2205
X9.6772Y-4.6068
X9.6772Y-5.6811
X9.7008Y-4.5531
X9.7151Y-5.1476
X9.7244Y-5.2205
X9.7362Y-4.6083
X9.7382Y-5.6417
X9.7461Y-5.7205
X9.7618Y-3.7165
X9.7677Y-4.8406
X9.7795Y-7.4149
X9.7835Y-7.3465
X9.8209Y-3.6398
X9.8307Y-3.9173
X9.8386Y-4.9429
X9.8602Y-3.7913
X9.874Y-4.6102
X9.9311Y-6.4035
X9.9311Y-6.4449
X9.9331Y-6.8602
X9.9488Y-5.0591
X10.0039Y-3.939
X10.0118Y-6.6816
X10.0236Y-6.6319
X10.0315Y-5.1024
X10.0394Y-7.1909
X10.0447Y-4.3622
X10.0447Y-4.3996
X10.0447Y-4.4429
X10.065Y-4.9016
X10.065Y-6.8602
X10.0852Y-4.3622
X10.0852Y-4.3937
X10.0852Y-4.437
X10.1122Y-3.748
X10.1437Y-4.8996
X10.179Y-5.3622
X10.1988Y-5.1274
X10.1988Y-5.1679
X10.2205Y-5.3622
X10.2382Y-5.6909
X10.2441Y-6.0866
X10.3012Y-7.1654
X10.3425Y-4.3902
X10.3425Y-4.4459
X10.3799Y-5.8912
X10.3799Y-5.9316
X10.3917Y-6.3445
X10.4094Y-6.439
X10.4213Y-5.7224
X10.435Y-5.6752
X10.4449Y-6.0866
X10.4646Y-5.6437
X10.4665Y-3.3327
X10.5Y-5.1083
X10.5118Y-5.7028
X10.5433Y-3.6988
X10.5768Y-4.8504
X10.6004Y-4.9409
X10.6122Y-7.3406
X10.622Y-3.7913
X10.6358Y-7.3642
X10.6614Y-7.4035
X10.6732Y-6.3957
X10.6772Y-3.3327
X10.6866Y-7.3607
X10.687Y-3.9429
X10.6949Y-6.3012
X10.7283Y-5.8878
X10.7283Y-5.9665
X10.7323Y-7.3406
X10.7638Y-7.3995
X10.7697Y-7.124
X10.7736Y-7.2992
X10.7953Y-7.1909
X10.8169Y-5.0925
X10.8209Y-3.7185
X10.8524Y-3.7736
X10.8976Y-4.9193
X10.8996Y-3.8012
X10.9094Y-6.6378
X10.9094Y-6.7362
X10.9567Y-6.6412
X10.9567Y-6.6865
X10.9941Y-5.6909
X11.027Y-5.9651
X11.0554Y-5.9363
X11.0945Y-4.5138
X11.0945Y-4.5563
X11.1457Y-6.4409
X11.1476Y-7.1673
X11.1634Y-5.2402
X11.1634Y-6.3583
X11.1831Y-5.7146
X11.1939Y-5.127
X11.1949Y-5.1713
X11.2165Y-5.6791
X11.2244Y-5.2382
X11.2381Y-7.364
X11.2815Y-7.3681
X11.2835Y-5.7028
X11.2913Y-4.8425
X11.313Y-7.3947
X11.3524Y-4.9429
X11.376Y-7.3681
X11.3917Y-6.5177
X11.3917Y-7.3957
X11.4055Y-7.3483
X11.4291Y-6.4134
X11.4469Y-6.313
X11.5335Y-5.063
X11.5374Y-7.8366
X11.5394Y-7.1201
X11.5394Y-7.1909
X11.563Y-4.872
X11.5728Y-4.3701
X11.5974Y-4.3937
X11.6043Y-7.3091
X11.6063Y-4.3307
X11.6122Y-4.935
X11.626Y-7.939
X11.6378Y-3.9114
X11.6442Y-4.3833
X11.6713Y-5.3484
X11.6752Y-5.0945
X11.687Y-7.3366
X11.687Y-7.4685
X11.6929Y-3.7008
X11.7185Y-5.3504
X11.7244Y-7.1535
X11.7382Y-5.6929
X11.7421Y-3.7933
X11.7441Y-3.7106
X11.7756Y-7.1496
X11.7933Y-7.3012
X11.7992Y-3.9213
X11.8051Y-4.3543
X11.8051Y-4.4311
X11.8307Y-7.0807
X11.8386Y-7.2165
X11.8406Y-6.4606
X11.8583Y-3.9016
X11.8799Y-6.3504
X11.8957Y-8.0512
X11.9055Y-3.7323
X11.9114Y-5.6417
X11.9154Y-6.437
X11.9173Y-5.7106
X11.9409Y-7.8484
X11.9823Y-5.6496
X11.9882Y-3.7913
X11.9941Y-7.3976
X11.9961Y-7.315
X12.0295Y-5.7126
X12.0335Y-7.2798
X12.0413Y-3.6831
X12.0531Y-6.5295
X12.0728Y-4.4311
X12.0748Y-4.3681
X12.0866Y-6.378
X12.0925Y-4.9449
X12.1201Y-6.6412
X12.1201Y-6.7028
X12.1614Y-5.065
X12.1713Y-6.6412
X12.1713Y-6.7008
X12.2185Y-7.2539
X12.2224Y-5.8898
X12.2224Y-5.9449
X12.2697Y-6.6398
X12.2815Y-5.9449
X12.2815Y-6.6945
X12.2815Y-7.1929
X12.2854Y-5.8912
X12.4075Y-4.9075
X12.4192Y-3.4331
X12.437Y-5.0866
X12.437Y-5.1274
X12.4429Y-5.1732
X12.4567Y-5.6122
X12.4665Y-3.435
X12.4764Y-7.1437
X12.4823Y-7.3091
X12.4882Y-5.689
X12.4961Y-3.7933
X12.5374Y-7.1949
X12.5453Y-6.6181
X12.5453Y-6.7126
X12.5728Y-7.2185
X12.5866Y-7.122
X12.5965Y-6.0965
X12.626Y-4.6398
X12.6299Y-4.5886
X12.6594Y-6.4409
X12.6693Y-6.0965
X12.6732Y-5.1476
X12.6949Y-3.748
X12.6949Y-5.8622
X12.6969Y-5.9316
X12.7047Y-6.5197
X12.7185Y-5.6535
X12.7205Y-5.1476
X12.7362Y-3.7953
X12.7461Y-5.7087
X12.7638Y-3.7126
X12.7638Y-4.8799
X12.7736Y-4.6083
X12.7933Y-5.6575
X12.8391Y-4.6083
X12.8406Y-4.9409
X12.8858Y-6.4232
X12.9252Y-6.2835
X12.9266Y-4.3189
X12.937Y-6.6816
X12.937Y-7.0906
X12.939Y-4.3839
X12.9881Y-6.8425
X12.9921Y-4.3661
X13.0105Y-4.3174
X13.0177Y-7.2579
X13.0295Y-6.8386
X13.0335Y-4.3701
X13.0354Y-7.1929
X13.0787Y-6.6909
X13.0945Y-4.9114
X13.1102Y-5.0512
X13.1594Y-5.8602
X13.1594Y-5.9587
X13.185Y-5.626
X13.1929Y-5.1319
X13.1929Y-5.1791
X13.2264Y-7.3051
X13.2303Y-3.7933
X13.2343Y-5.689
X13.2894Y-4.3883
X13.2957Y-5.1324
X13.3031Y-7.1004
X13.3051Y-5.6358
X13.3425Y-7.1634
X13.3622Y-5.1319
X13.3659Y-4.4352
X13.4055Y-6.439
X13.4291Y-5.6339
X13.4606Y-3.7953
X13.4705Y-5.7126
X13.4862Y-3.6713
X13.4941Y-4.9429
X13.5335Y-7.3169
X13.5335Y-7.4247
X13.5354Y-5.6811
X13.5433Y-3.7579
X13.5925Y-4.9449
X13.6811Y-6.5394
X13.6929Y-7.1004
X13.7047Y-6.435
X13.7165Y-5.9508
X13.7205Y-5.8465
X13.7854Y-7.1909
X13.8091Y-5.0492
X13.813Y-7.3071
X13.8819Y-5.1319
X13.9154Y-5.3346
X13.9173Y-4.9154
X13.9192Y-3.439
X13.9291Y-5.6201
X13.9705Y-3.439
X13.9783Y-5.6909
X13.9843Y-5.3366
X13.9902Y-5.628
X13.9921Y-3.7933
X14.0354Y-6.9941
X14.0531Y-5.8681
X14.0551Y-5.9567
X14.0743Y-4.7638
X14.0965Y-7.1654
X14.1136Y-6.0925
X14.126Y-5.1358
X14.1555Y-6.4409
X14.1654Y-6.0925
X14.1791Y-5.6398
X14.2008Y-3.7854
X14.2402Y-5.7146
X14.2559Y-3.6831
X14.2579Y-3.2653
X14.2579Y-5.6535
X14.2657Y-3.8012
X14.2776Y-4.8996
X14.2913Y-7.813
X14.3012Y-8.0354
X14.3287Y-4.9449
X14.3386Y-4.3976
X14.3602Y-5.0354
X14.4016Y-3.4114
X14.4016Y-4.3912
X14.4154Y-5.9316
X14.439Y-7.9409
X14.4567Y-3.7598
X14.4567Y-5.0374
X14.4606Y-6.5217
X14.4685Y-5.8878
X14.4685Y-6.4469
X14.4724Y-4.0571
X14.4803Y-6.8346
X14.4985Y-5.8184
X14.5217Y-3.8169
X14.5394Y-7.1909
X14.5453Y-6.8346
X14.5571Y-5.8858
X14.5571Y-8.0453
X14.5689Y-3.5906
X14.5787Y-4.0197
X14.5984Y-7.2972
X14.6142Y-4.8937
X14.6299Y-3.624
X14.6339Y-5.0354
X14.6485Y-6.3819
X14.6594Y-5.8681
X14.6594Y-5.9528
X14.6732Y-7.8839
X14.6752Y-6.3465
X14.6772Y-3.5768
X14.7047Y-3.3942
X14.7183Y-6.6361
X14.7185Y-6.7047
X14.7323Y-5.689
X14.7579Y-6.6299
X14.7579Y-6.7008
X14.7697Y-3.5866
X14.7854Y-4.0197
X14.7894Y-5.6299
X14.8327Y-3.8051
X14.8465Y-3.7185
X14.8524Y-4.0571
X14.8622Y-5.1693
X14.8642Y-5.0827
X14.8917Y-5.8819
X14.8937Y-3.374
X14.9016Y-4.2677
X14.9016Y-4.4316
X14.9193Y-6.4409
X14.935Y-5.9469
X14.937Y-7.3327
X14.9626Y-5.6339
X14.9646Y-5.7374
X14.9724Y-6.7205
X14.9783Y-5.0256
X14.9919Y-7.3504
X15.0098Y-5.7008
X15.0256Y-4.872
X15.0413Y-3.4311
X15.0531Y-7.3287
X15.065Y-5.6417
X15.0669Y-7.4213
X15.0689Y-4.3819
X15.0689Y-4.435
X15.0886Y-4.9429
X15.0992Y-3.7925
X15.1024Y-3.4311
X15.1161Y-7.0354
X15.1358Y-7.4297
X15.1555Y-6.4311
X15.1673Y-7.4488
X15.1811Y-6.5413
X15.1956Y-5.9535
X15.2224Y-5.8912
X15.2244Y-8.0531
X15.2264Y-5.5079
X15.2264Y-5.5827
X15.2736Y-5.937
X15.2795Y-7.1929
X15.2923Y-5.4488
X15.2928Y-5.5054
X15.2933Y-5.815
X15.3031Y-7.2776
X15.3287Y-5.0591
X15.3386Y-4.874
X15.3425Y-5.6535
X15.3543Y-3.7441
X15.3583Y-6.1634
X15.374Y-7.939
X15.4094Y-6.685
X15.4114Y-5.8819
X15.4114Y-6.1063
X15.4114Y-6.6398
X15.4232Y-5.3465
X15.4291Y-5.0472
X15.4409Y-3.7756
X15.4528Y-6.2106
X15.4547Y-6.5157
X15.4665Y-5.6909
X15.4685Y-5.3465
X15.4896Y-6.1004
X15.5Y-6.595
X15.5039Y-3.4075
X15.5039Y-6.7165
X15.5118Y-7.1496
X15.5315Y-6.1004
X15.5335Y-5.626
X15.5354Y-6.6339
X15.5497Y-5.1147
X15.5571Y-3.4587
X15.5571Y-5.0787
X15.5591Y-8.0276
X15.563Y-4.2933
X15.5669Y-7.2165
X15.5689Y-4.4488
X15.5689Y-4.561
X15.5689Y-5.1909
X15.5689Y-7.0335
X15.5709Y-4.626
X15.5768Y-4.8189
X15.5787Y-4.8858
X15.5866Y-5.1476
X15.5984Y-3.4109
X15.5984Y-3.4724
X15.6004Y-7.8484
X15.6024Y-4.2913
X15.6024Y-4.4488
X15.6063Y-4.5591
X15.6063Y-4.622
X15.628Y-7.1496
X15.6299Y-5.1491
X15.6358Y-5.0787
X15.6358Y-5.1142
X15.6614Y-6.439
X15.6909Y-5.6339
X15.7283Y-7.4297
X15.7539Y-5.626
X15.7604Y-7.4611
X15.7697Y-4.5906
X15.7854Y-5.6929
X15.7933Y-3.4311
X15.8051Y-7.3189
X15.8371Y-3.4311
X15.8484Y-4.9429
X15.8524Y-4.5906
X15.8602Y-3.7933
X15.8622Y-6.5453
X15.874Y-4.878
X15.8976Y-6.6378
X15.9035Y-6.4724
X16.0118Y-7.1083
X16.0276Y-7.4862
X16.0709Y-5.0433
X16.1063Y-3.7303
X16.1142Y-7.4862
X16.124Y-6.6432
X16.124Y-6.7106
X16.1398Y-4.9016
X16.1575Y-3.9547
X16.1575Y-6.6358
X16.1575Y-6.6836
X16.1634Y-5.122
X16.1772Y-7.3051
X16.1909Y-5.187
X16.1909Y-5.622
X16.2028Y-3.7598
X16.2067Y-5.687
X16.2126Y-7.4488
X16.2146Y-5.0472
X16.25Y-7.4488
X16.252Y-7.3071
X16.2559Y-6.6929
X16.2598Y-7.5886
X16.2697Y-6.6274
X16.313Y-7.939
X16.3268Y-7.5866
X16.4012Y-7.4603
X16.4016Y-7.3506
X16.4213Y-5.626
X16.4409Y-4.7776
X16.4902Y-7.3031
X16.4921Y-5.6909
X16.502Y-4.5906
X16.5039Y-5.5728
X16.5118Y-5.0531
X16.5157Y-6.4429
X16.5354Y-6.1024
X16.5984Y-3.7933
X16.6161Y-7.8957
X16.622Y-8.0531
X16.6819Y-4.3905
X16.6909Y-4.2421
X16.6929Y-5.122
X16.6949Y-5.1614
X16.6969Y-5.3406
X16.7067Y-7.1929
X16.7131Y-4.2677
X16.7165Y-3.9646
X16.7205Y-4.3642
X16.7407Y-4.3957
X16.75Y-4.2776
X16.756Y-5.122
X16.7697Y-6.6378
X16.7697Y-6.6909
X16.7736Y-5.1496
X16.872Y-3.7362
X16.878Y-6.439
X16.935Y-4.8504
X16.939Y-5.622
X16.9409Y-5.2835
X16.9705Y-4.9429
X16.9724Y-7.2126
X17.0039Y-7.3189
X17.063Y-3.4272
X17.0846Y-5.6083
X17.0906Y-7.5039
X17.0925Y-6.5453
X17.1063Y-3.3445
X17.128Y-3.4272
X17.1358Y-5.0669
X17.1363Y-3.3745
X17.1378Y-5.8307
X17.1614Y-5.3366
X17.1654Y-5.6929
X17.1732Y-6.435
X17.2008Y-7.5866
X17.2205Y-5.2205
X17.2402Y-5.3799
X17.2441Y-7.9409
X17.249Y-7.5866
X17.252Y-6.5492
X17.2697Y-4.8465
X17.2697Y-6.6268
X17.2795Y-3.4291
X17.2849Y-6.0281
X17.2933Y-5.2795
X17.315Y-6.6268
X17.3169Y-5.9961
X17.3371Y-3.4291
X17.3465Y-8.065
X17.3524Y-3.7933
X17.3819Y-5.1201
X17.3819Y-5.187
X17.4154Y-5.6457
X17.4154Y-7.1358
X17.4409Y-4.6949
X17.4547Y-5.685
X17.4587Y-5.5827
X17.4587Y-7.8661
X17.4764Y-4.0591
X17.4783Y-7.4783
X17.5Y-4.9862
X17.502Y-8.0217
X17.5045Y-7.2076
X17.5079Y-7.9311
X17.5413Y-7.3524
X17.565Y-3.7559
X17.5748Y-7.1102
X17.6043Y-3.7756
X17.6043Y-7.1339
X17.6181Y-5.1378
X17.622Y-5.1772
X17.6274Y-5.33
X17.6319Y-6.5605
X17.6417Y-7.0669
X17.6476Y-6.5256
X17.6535Y-3.8031
X17.6555Y-3.6496
X17.6575Y-7.2323
X17.6673Y-7.2835
X17.6679Y-5.2362
X17.6752Y-5.1358
X17.6752Y-5.1752
X17.6811Y-7.1894
X17.6929Y-7.876
X17.6969Y-5.3287
X17.7441Y-7.2505
X17.7717Y-6.3346
X17.7913Y-6.5079
X17.7953Y-6.9429
X17.811Y-6.6476
X17.8228Y-6.9724
X17.8248Y-7.0079
X17.872Y-7.0197
X17.8858Y-6.2264
X17.8937Y-6.9469
X17.8976Y-6.9961
X17.9094Y-6.6535
X17.9213Y-6.9724
X17.935Y-7.7323
X17.9567Y-7.2835
X17.9882Y-7.0827
X18.0079Y-6.5197
X18.0157Y-7.0472
X18.0217Y-3.7146
X18.0236Y-5.3287
X18.0295Y-5.1614
X18.0295Y-6.8996
X18.0299Y-5.124
X18.0299Y-6.1102
X18.0472Y-7.0989
X18.0571Y-7.1319
X18.0571Y-7.9094
X18.063Y-6.5177
X18.0832Y-5.124
X18.0846Y-5.1614
X18.0866Y-7.1516
X18.0906Y-5.3287
X18.1024Y-7.7894
X18.1516Y-7.4409
X18.1528Y-7.1675
X18.1614Y-5.1102
X18.1634Y-5.3583
X18.1654Y-7.5177
X18.1713Y-7.8701
X18.1718Y-7.4154
X18.1927Y-7.0335
X18.1929Y-3.9291
X18.202Y-7.4555
X18.202Y-7.5123
X18.211Y-7.1811
X18.2244Y-6.4587
X18.2244Y-6.7362
X18.2343Y-4.2067
X18.2421Y-6.4055
X18.2441Y-4.4016
X18.2579Y-6.7362
X18.2598Y-6.2697
X18.2677Y-7.4409
X18.2776Y-4.1673
X18.2874Y-7.5123
X18.2992Y-6.4626
X18.2992Y-6.5059
X18.3003Y-6.6643
X18.3012Y-6.0965
X18.3024Y-7.2264
X18.3051Y-7.0689
X18.311Y-6.3622
X18.3248Y-7.2657
X18.3366Y-6.8858
X18.337Y-7.1929
X18.3445Y-7.0709
X18.3563Y-7.4409
X18.3583Y-7.2224
X18.3681Y-6.435
X18.3701Y-5.7579
X18.372Y-6.8917
X18.376Y-4.9882
X18.376Y-6.9764
X18.376Y-7.063
X18.378Y-7.0138
X18.3799Y-7.5236
X18.3839Y-7.939
X18.3858Y-6.4862
X18.3942Y-6.6703
X18.3957Y-7.4213
X18.4154Y-3.4567
X18.4508Y-7.1811
X18.4665Y-4.9882
X18.4665Y-5.7579
X18.4665Y-7.257
X18.4749Y-7.4178
X18.4783Y-6.9652
X18.4803Y-6.8905
X18.4882Y-4.1791
X18.5079Y-7.1255
X18.5098Y-6.9075
X18.5118Y-5.1412
X18.5157Y-4.2953
X18.5192Y-6.981
X18.5197Y-5.3287
X18.5335Y-7.4764
X18.5354Y-6.9331
X18.5394Y-7.0371
X18.5413Y-3.9803
X18.5453Y-6.0551
X18.5591Y-7.1126
X18.5689Y-7.061
X18.5748Y-6.1051
X18.5748Y-6.6063
X18.5748Y-7.5354
X18.5821Y-6.9035
X18.5822Y-6.8445
X18.5945Y-6.0551
X18.6142Y-5.3287
X18.6161Y-5.1457
X18.6329Y-6.935
X18.6516Y-6.3445
X18.6516Y-6.3937
X18.6811Y-6.7972
X18.7003Y-4.2087
X18.7323Y-6.0059
X18.7461Y-6.8465
X18.7539Y-6.8898
X18.7736Y-7.0276
X18.8012Y-5.3287
X18.8012Y-7.5945
X18.8031Y-6.7835
X18.8051Y-7.002
X18.81Y-7.1161
X18.8248Y-6.5571
X18.8327Y-3.687
X18.8445Y-7.5925
X18.8563Y-5.3287
X18.8563Y-7.9409
X18.8602Y-7.0999
X18.8642Y-4.9469
X18.8681Y-5.689
X18.8701Y-3.7933
X18.8937Y-6.3504
X18.9114Y-7.0413
X18.9149Y-6.9808
X18.9392Y-7.0782
X18.9508Y-4.0315
X18.9547Y-8.0906
X18.9705Y-7.1969
X18.9823Y-6.2343
X18.9862Y-5.0354
X18.9862Y-5.9961
X19.0138Y-6.6594
X19.0394Y-4.8701
X19.0492Y-6.4685
X19.0762Y-5.1673
X19.0827Y-6.9016
X19.0964Y-3.7441
X19.0984Y-5.6929
X19.1024Y-7.8839
X19.1063Y-8.065
X19.122Y-6.0335
X19.1417Y-5.5157
X19.1437Y-3.7933
X19.1476Y-7.3524
X19.1555Y-5.6732
X19.1634Y-3.626
X19.2067Y-6.937
X19.2126Y-6.7776
X19.2244Y-7.8957
X19.2283Y-3.3051
X19.2736Y-5.3287
X19.2756Y-5.2618
X19.3012Y-5.2992
X19.3248Y-5.1929
X19.3268Y-4.5787
X19.3388Y-5.3034
X19.3701Y-5.2303
X19.375Y-5.2667
X19.4252Y-3.687
X19.4291Y-3.437
X19.5506Y-7.5866
X19.5886Y-7.1201
X19.5984Y-7.9429
X19.6004Y-3.437
X19.6024Y-7.5866
X19.6063Y-5.3287
X19.6063Y-5.6831
X19.6083Y-3.7933
X19.6102Y-4.5787
X19.6161Y-7.1909
X19.6201Y-4.9429
X19.7953Y-5.0728
X19.8228Y-7.2067
X19.8287Y-8.0768
X19.8563Y-3.7067
X19.8583Y-4.8839
X19.872Y-5.6575
X19.8858Y-3.7913
X19.9036Y-7.069
X19.9094Y-5.8642
X19.9291Y-7.8583
X19.9508Y-7.2205
X20.0965Y-7.3898
X20.0965Y-7.4528
X20.1339Y-3.5374
X20.1398Y-3.7126
X20.3006Y-7.5906
X20.3228Y-4.8307
X20.3425Y-5.0965
X20.3465Y-3.7028
X20.3524Y-7.5886
X20.3543Y-7.9409
X20.3563Y-3.7933
X20.3622Y-4.9449
X20.3622Y-5.687
X20.3917Y-8.0846
X20.5256Y-3.9055
X20.5866Y-5.6417
X20.5886Y-7.8839
X20.624Y-5.6693
X20.6673Y-7.9705
X20.687Y-3.8287
X20.7067Y-4.9508
X20.7382Y-3.5394
T3
X5.178Y-3.5307
X5.178Y-3.6291
X5.178Y-3.7276
X5.7488Y-3.5307
X5.7488Y-3.7276
T4
X3.0699Y-4.6768
X3.0699Y-5.4268
X3.0699Y-6.1768
X3.0699Y-6.9268
X3.3199Y-4.5768
X3.3199Y-5.3268
X3.3199Y-6.0768
X3.3199Y-6.8268
X3.4453Y-7.6768
X3.6953Y-7.5768
X3.8199Y-4.6768
X3.8199Y-5.4268
X3.8199Y-6.1768
X3.8199Y-6.9268
X4.0699Y-4.5768
X4.0699Y-5.3268
X4.0699Y-6.0768
X4.0699Y-6.8268
X4.5699Y-4.6768
X4.5699Y-5.4268
X4.5699Y-6.1768
X4.5699Y-6.9268
X4.5699Y-7.6768
X4.8199Y-4.5768
X4.8199Y-5.3268
X4.8199Y-6.0768
X4.8199Y-6.8268
X4.8199Y-7.5768
X5.2699Y-5.8028
X5.2699Y-7.3008
X5.3199Y-4.6768
X5.3699Y-6.0528
X5.3699Y-7.5508
X5.5699Y-4.5768
X6.8209Y-3.539
X6.8209Y-4.6866
X6.9193Y-7.6866
X7.0079Y-5.4366
X7.0709Y-3.439
X7.0709Y-4.5866
X7.1024Y-6.1866
X7.1693Y-7.5866
X7.2579Y-5.3366
X7.2894Y-6.9366
X7.3524Y-6.0866
X7.5394Y-6.8366
X7.5709Y-4.6866
X7.8209Y-4.5866
X7.8583Y-7.6866
X7.9449Y-5.4366
X8.1083Y-7.5866
X8.1339Y-6.1866
X8.1949Y-5.3366
X8.315Y-3.537
X8.3209Y-4.6866
X8.3839Y-6.0866
X8.5098Y-6.9366
X8.565Y-3.437
X8.5709Y-4.5866
X8.6949Y-5.4366
X8.7598Y-6.8366
X8.7953Y-7.6866
X8.8839Y-6.1866
X8.9449Y-5.3366
X9.0453Y-7.5866
X9.065Y-3.537
X9.0689Y-4.6866
X9.1339Y-6.0866
X9.2598Y-6.9366
X9.315Y-3.437
X9.3189Y-4.5866
X9.4449Y-5.4366
X9.5098Y-6.8366
X9.6339Y-6.1866
X9.6949Y-5.3366
X9.815Y-3.537
X9.8189Y-4.6866
X9.8839Y-6.0866
X10.0098Y-6.9366
X10.065Y-3.437
X10.0689Y-4.5866
X10.1949Y-5.4366
X10.2598Y-6.8366
X10.3839Y-6.1866
X10.4449Y-5.3366
X10.565Y-3.537
X10.5689Y-4.6866
X10.6339Y-6.0866
X10.7598Y-6.9366
X10.815Y-3.437
X10.8189Y-4.5866
X10.9449Y-5.4366
X11.0098Y-6.8366
X11.1339Y-6.1866
X11.1949Y-5.3366
X11.3189Y-4.6866
X11.3839Y-6.0866
X11.5098Y-6.9366
X11.5689Y-4.5866
X11.6063Y-7.6866
X11.6894Y-3.5323
X11.6949Y-5.4366
X11.7598Y-6.8366
X11.8563Y-7.5866
X11.8839Y-6.1866
X11.9394Y-3.4323
X11.9449Y-5.3366
X12.0689Y-4.6866
X12.1339Y-6.0866
X12.2598Y-6.9366
X12.3189Y-4.5866
X12.4394Y-3.5323
X12.4449Y-5.4366
X12.5098Y-6.8366
X12.6339Y-6.1866
X12.6894Y-3.4323
X12.6949Y-5.3366
X12.8189Y-4.6866
X12.8839Y-6.0866
X13.0079Y-6.9366
X13.0689Y-4.5866
X13.1894Y-3.5323
X13.1949Y-5.4366
X13.2579Y-6.8366
X13.3839Y-6.1866
X13.4394Y-3.4323
X13.4449Y-5.3366
X13.5689Y-4.6866
X13.6339Y-6.0866
X13.7579Y-6.9366
X13.8189Y-4.5866
X13.9394Y-3.5323
X13.9449Y-5.4366
X14.0079Y-6.8366
X14.1339Y-6.1866
X14.1894Y-3.4323
X14.1949Y-5.3366
X14.3189Y-4.6866
X14.3839Y-6.0866
X14.4193Y-7.6866
X14.5079Y-6.9366
X14.5689Y-4.5866
X14.6693Y-7.5866
X14.6969Y-5.4366
X14.7579Y-6.8366
X14.8839Y-6.1866
X14.9469Y-5.3366
X15.0669Y-3.5311
X15.0689Y-4.6866
X15.1339Y-6.0866
X15.2579Y-6.9366
X15.3169Y-3.4311
X15.3189Y-4.5866
X15.3563Y-7.6866
X15.4469Y-5.4366
X15.5079Y-6.8366
X15.6063Y-7.5866
X15.6339Y-6.1866
X15.6969Y-5.3366
X15.8169Y-3.5311
X15.8189Y-4.6866
X15.8839Y-6.0866
X16.0669Y-3.4311
X16.0689Y-4.5866
X16.1949Y-5.4366
X16.2933Y-7.6866
X16.4449Y-5.3366
X16.5433Y-7.5866
X16.5669Y-3.5311
X16.6654Y-6.9366
X16.8169Y-3.4311
X16.8524Y-6.1866
X16.9154Y-6.8366
X16.9439Y-4.6866
X17.1024Y-6.0866
X17.1319Y-5.4366
X17.1939Y-4.5866
X17.2287Y-7.6858
X17.3169Y-3.5311
X17.3819Y-5.3366
X17.4787Y-7.5858
X17.5669Y-3.4311
X18.8228Y-7.6846
X18.8262Y-3.537
X18.8262Y-4.6787
X18.8262Y-5.4287
X19.0728Y-7.5846
X19.0762Y-3.437
X19.0762Y-4.5787
X19.0762Y-5.3287
X19.5709Y-6.9346
X19.5709Y-7.6846
X19.5742Y-3.537
X19.5762Y-4.6787
X19.5762Y-5.4287
X19.8209Y-6.8346
X19.8209Y-7.5846
X19.8242Y-3.437
X19.8262Y-4.5787
X19.8262Y-5.3287
X20.3209Y-7.6846
X20.3262Y-3.537
X20.3262Y-4.6787
X20.3262Y-5.4287
X20.5709Y-7.5846
X20.5762Y-3.437
X20.5762Y-4.5787
X20.5762Y-5.3287
T2
G00X14.4972Y-3.2894
M15
G01X14.4972Y-3.313
M16
G05
G00X14.4972Y-3.4441
M15
G01X14.4972Y-3.4874
M16
G05
G00X14.8374Y-3.2894
M15
G01X14.8374Y-3.313
M16
G05
G00X14.8374Y-3.4441
M15
G01X14.8374Y-3.4874
M16
G05
T4
G00X5.4476Y-3.4087
M15
G01X5.4988Y-3.4087
M16
G05
G00X5.4476Y-3.8496
M15
G01X5.4988Y-3.8496
M16
G05
M30
